<svg xmlns="http://www.w3.org/2000/svg" width="256" height="256" viewBox="0 0 64 64" shape-rendering="geometricPrecision">
  <title>EpiCity — City Grid (light, 256px)</title>
  <rect width="64" height="64" rx="14" fill="#ff4466"></rect>
  <rect x="10" y="10" width="20" height="20" rx="3" fill="#ffffff" opacity="0.55"></rect>
      <rect x="34" y="10" width="20" height="20" rx="3" fill="#ffffff"></rect>
      <rect x="10" y="34" width="20" height="20" rx="3" fill="#ffffff" opacity="0.55"></rect>
      <rect x="34" y="34" width="20" height="20" rx="3" fill="#ffffff" opacity="0.55"></rect>
  <line x1="32" y1="6" x2="32" y2="58" stroke="#ff4466" stroke-width="2"></line>
      <line x1="6" y1="32" x2="58" y2="32" stroke="#ff4466" stroke-width="2"></line>
  <g fill="#ff4466" opacity="0.6">
        <circle cx="16" cy="18" r="1.2"></circle><circle cx="24" cy="22" r="1.2"></circle>
        <circle cx="18" cy="44" r="1.2"></circle><circle cx="24" cy="50" r="1.2"></circle>
        <circle cx="40" cy="42" r="1.2"></circle><circle cx="48" cy="48" r="1.2"></circle>
      </g>
      <g fill="#ff4466" opacity="0.8">
        <circle cx="40" cy="16" r="1.4"></circle><circle cx="46" cy="20" r="1.4"></circle>
        <circle cx="42" cy="24" r="1.4"></circle>
      </g>
</svg>