<?xml version="1.0" encoding="UTF-8"?>
<!DOCTYPE svg PUBLIC "-//W3C//DTD SVG 1.0//EN" "http://www.w3.org/TR/2001/REC-SVG-20010904/DTD/svg10.dtd">
<!-- Creator: CorelDRAW 2023 (Not for commercial use) -->
<svg xmlns="http://www.w3.org/2000/svg" xml:space="preserve" width="1.38508in" height="1.38591in" version="1.0" style="shape-rendering:geometricPrecision; text-rendering:geometricPrecision; image-rendering:optimizeQuality; fill-rule:evenodd; clip-rule:evenodd"
viewBox="0 0 177.59 177.69"
 xmlns:xlink="http://www.w3.org/1999/xlink"
 xmlns:xodm="http://www.corel.com/coreldraw/odm/2003">
 <defs>
  <style type="text/css">
   <![CDATA[
    .str0 {stroke:#2B2A29;stroke-width:5.33;stroke-miterlimit:2.61313}
    .fil1 {fill:#78909C}
    .fil0 {fill:#FEFEFE}
    .fil2 {fill:white}
   ]]>
  </style>
 </defs>
 <g id="Layer_x0020_1">
  <metadata id="CorelCorpID_0Corel-Layer"/>
  <g id="_2142010889712">
   <path class="fil0 str0" d="M26.32 92.01c0,10.78 3.49,23.09 8.14,30.73 4.9,8 10.69,15.04 18.51,20.36 1.71,1.16 3.05,2.03 4.79,3.08 2.03,1.23 2.92,1.5 5.27,2.6 16.87,7.89 40.16,7.59 56.17,-2.21 1.8,-1.09 3.01,-1.87 4.81,-3.05 37.18,-24.71 37.95,-84.75 -8.32,-107.89 -39.16,-19.58 -89.38,9.19 -89.38,56.42l0.02 -0.02z"/>
   <path class="fil1" d="M77.75 0.9c-27.4,4.08 -44.56,16.34 -57.28,31.37 -13.04,15.41 -23.18,39.89 -19.81,67.52 5.52,45.23 46.82,83.64 99.25,77.21 44.59,-5.47 83.43,-46.78 76.98,-98.75 -6.11,-49.31 -52.11,-84.36 -99.16,-77.34l0.02 0z"/>
   <path class="fil2" d="M99.81 146.44c8.59,-10.69 61.77,-61.46 61.93,-64.6 -1.28,-3.94 -5.11,-4.99 -4.56,-11.03 0.52,-5.58 4.42,-7.09 4.47,-11.28 -3.31,-2.87 -57.47,-22.98 -66.7,-26.47 -8.98,-3.4 -7.84,-2.62 -20.83,8.98 -8.32,7.43 -54.78,45.27 -56.6,48.67 -3.21,6 -1.46,13.15 1.66,18.14 2.74,4.4 9.23,6 15.14,8.78 8.66,4.08 60.57,28.54 65.49,28.84l0 -0.02z"/>
   <path class="fil1" d="M97.76 143.34c3.19,-1.21 31.8,-31.62 38.3,-37.82l22.54 -23.68c-1.55,-2.74 -3.78,-3.88 -4.13,-8.78 -0.32,-4.67 1.03,-6.84 2.51,-10.17 -6.61,4.81 -12.47,12.01 -18.97,17.48 -8.71,7.34 -27.97,27.04 -37.57,35.77 -3.88,3.51 -6.18,4.15 -6.47,11.92 -0.27,6.88 1.6,10.21 3.76,15.27l0.02 0z"/>
   <path class="fil1" d="M93.77 141.36c-3.44,-9.21 -2.35,-9.67 -1.98,-19.51 -7.29,-2.03 -68.27,-29 -70,-29.31 -4.97,-0.96 -3.03,8.34 -2.39,10.53 2.1,7.11 9.37,9.05 16.02,11.9 9.1,3.9 54,25.33 58.36,26.4l0 0z"/>
   <path class="fil1" d="M82.28 60.19l30.07 12.72c2.17,-1.73 4.33,-3.58 6.06,-5.61 -2.62,-1.94 -14.95,-6.11 -18.87,-7.73 -11.67,-4.79 -9.85,-6.34 -17.26,0.62l0 0z"/>
   <path class="fil2" d="M110.34 124.56c3.6,0 29.09,-26.99 34.44,-31.84 2.87,-2.6 10.05,-7.98 10.58,-11.67 -3.26,-0.05 -8.46,6.13 -12.45,9.76l-28.45 27.38c-2.01,1.85 -4.7,3.01 -4.1,6.36l-0.02 0.02z"/>
   <path class="fil2" d="M122.61 105.25c5.15,-0.34 2.48,-1.19 8.62,-6.15 2.89,-2.35 4.99,-4.06 7.5,-6.88 2.37,-2.71 14.38,-11.58 13.75,-14.45l-1.03 -0.23c-2.14,0.27 -10.55,8.94 -14.36,12.26l-11.17 10.35c-2.6,2.23 -2.76,1.46 -3.28,5.11l-0.02 0z"/>
   <path class="fil2" d="M34.21 105.75c0.3,3.03 -1.5,1.09 1.96,2.83 4.24,2.12 24.8,10.76 26.72,9.94 -0.41,-2.37 2.28,-0.98 -6,-4.29 -5.68,-2.28 -19.97,-9.55 -22.68,-8.48l-0 0z"/>
  </g>
 </g>
</svg>
