<?xml version="1.0" encoding="UTF-8"?>
<!DOCTYPE svg PUBLIC "-//W3C//DTD SVG 1.0//EN" "http://www.w3.org/TR/2001/REC-SVG-20010904/DTD/svg10.dtd">
<!-- Creator: CorelDRAW 2023 (Not for commercial use) -->
<svg xmlns="http://www.w3.org/2000/svg" xml:space="preserve" width="1.38505in" height="1.38592in" version="1.0" style="shape-rendering:geometricPrecision; text-rendering:geometricPrecision; image-rendering:optimizeQuality; fill-rule:evenodd; clip-rule:evenodd"
viewBox="0 0 674.31 674.74"
 xmlns:xlink="http://www.w3.org/1999/xlink"
 xmlns:xodm="http://www.corel.com/coreldraw/odm/2003">
 <defs>
  <style type="text/css">
   <![CDATA[
    .fil0 {fill:#78909C}
    .fil1 {fill:#FEFEFE}
   ]]>
  </style>
 </defs>
 <g id="Layer_x0020_1">
  <metadata id="CorelCorpID_0Corel-Layer"/>
  <g id="_2141071378944">
   <path class="fil0" d="M295.16 3.39c-104.03,15.5 -169.22,62.05 -217.46,119.1 -49.51,58.56 -88.05,151.49 -75.2,256.42 20.99,171.75 177.78,317.57 376.85,293.14 169.34,-20.74 316.78,-177.66 292.3,-374.92 -23.22,-187.25 -197.86,-320.34 -376.49,-293.75l0 0z"/>
   <g>
    <path class="fil1" d="M78.54 240.39l0 6.45c12.91,1.08 73.51,31.72 95.1,40.65 14.05,5.85 20.38,9.71 33.23,15.26 15.5,6.63 126.1,57.23 130.26,57.23 7.54,0 162.28,-72.91 192.62,-85.39 15.62,-6.45 51.38,-26.53 66.03,-27.74l0 -6.45c-12.85,-1.08 -49.63,-17.91 -63.74,-23.58l-194.91 -76.65c-7.12,0 -111.57,43.3 -127.91,49.87 -19.66,7.9 -118.38,49.33 -130.68,50.35l0 0z"/>
    <path class="fil1" d="M317.71 534.56c60.19,0 132.01,-3.14 170.48,-49.33 15.62,-18.76 10.55,-47.52 10.55,-79.96 0,-30.15 0,-60.37 0,-90.52 -7.36,3.92 -11.76,5.07 -20.32,8.74 -181.04,77.92 -106.26,74.54 -222.59,27.26l-80.39 -36c0,30.15 0,60.37 0,90.52 0,32.44 -5.07,61.27 10.55,79.96 23.82,28.58 80.27,49.33 131.71,49.33z"/>
    <path class="fil1" d="M550.55 292.19c-0.06,25.75 -0.06,51.62 -0.06,77.49 0,85.63 -12.91,39.5 -12.91,64.65l0 74.36 51.74 0 0 -74.36c0,-14.77 -11.76,-3.86 -13.15,-28.83l0.24 -126.28 -25.81 13.03 -0.06 -0.06z"/>
   </g>
  </g>
 </g>
</svg>
