<?xml version="1.0" encoding="UTF-8"?>
<!DOCTYPE svg PUBLIC "-//W3C//DTD SVG 1.0//EN" "http://www.w3.org/TR/2001/REC-SVG-20010904/DTD/svg10.dtd">
<!-- Creator: CorelDRAW 2023 (Not for commercial use) -->
<svg xmlns="http://www.w3.org/2000/svg" xml:space="preserve" width="1.38507in" height="1.38591in" version="1.0" style="shape-rendering:geometricPrecision; text-rendering:geometricPrecision; image-rendering:optimizeQuality; fill-rule:evenodd; clip-rule:evenodd"
viewBox="0 0 112.52 112.58"
 xmlns:xlink="http://www.w3.org/1999/xlink"
 xmlns:xodm="http://www.corel.com/coreldraw/odm/2003">
 <defs>
  <style type="text/css">
   <![CDATA[
    .fil4 {fill:#D9DADA}
    .fil0 {fill:#F74A55}
    .fil3 {fill:#FEFEFE}
    .fil1 {fill:white}
    .fil5 {fill:#D9DADA;fill-rule:nonzero}
    .fil2 {fill:white;fill-rule:nonzero}
   ]]>
  </style>
 </defs>
 <g id="Layer_x0020_1">
  <metadata id="CorelCorpID_0Corel-Layer"/>
  <g id="_2142016095184">
   <path class="fil0" d="M49.25 0.57c-17.36,2.59 -28.23,10.35 -36.29,19.88 -8.26,9.77 -14.69,25.28 -12.55,42.78 3.5,28.65 29.67,52.99 62.88,48.91 28.25,-3.46 52.85,-29.64 48.77,-62.56 -3.87,-31.24 -33.01,-53.45 -62.82,-49.01l-0 0z"/>
   <g>
    <g>
     <path class="fil1" d="M40.11 20.93c-9.73,1.26 -15.84,12.83 -14.01,24.26 0.93,5.82 3.41,9.12 5.55,13.83 3.17,6.97 1.64,21.84 9.1,30.01 3.51,3.85 10.38,3.79 11.61,-2.48 1.2,-6.16 -2.25,-15.52 4.37,-15.05 7.54,0.53 -1.86,19.95 9.2,20.27 7.25,0.21 10.96,-11.39 11.94,-17.33 0.96,-5.83 0.91,-11.03 3.32,-16.05 2.22,-4.62 4.69,-8.21 5.39,-14.24 1.3,-11.32 -5.16,-23.07 -15.38,-23.32 -6.96,-0.17 -9.99,3.13 -15.57,3.83 -2.55,0.32 -4.8,-1.69 -7,-2.55 -2.48,-0.96 -5.61,-1.56 -8.51,-1.19l0 -0z"/>
     <path id="_1" class="fil2" d="M26.17 45.18l-0.13 0.02 0 0 -0.15 -1.08 -0.1 -1.07 -0.06 -1.07 -0.01 -1.07 0.03 -1.06 0.07 -1.05 0.12 -1.04 0.15 -1.03 0.2 -1.01 0.23 -1 0.27 -0.98 0.31 -0.96 0.35 -0.94 0.38 -0.91 0.42 -0.88 0.45 -0.86 0.49 -0.83 0.52 -0.8 0.56 -0.76 0.59 -0.73 0.62 -0.69 0.65 -0.65 0.68 -0.61 0.71 -0.57 0.73 -0.52 0.76 -0.47 0.79 -0.42 0.81 -0.37 0.84 -0.32 0.86 -0.27 0.88 -0.21 0.9 -0.15 0.02 0.13 -0.9 0.15 -0.88 0.21 -0.85 0.26 -0.83 0.32 -0.8 0.37 -0.78 0.42 -0.75 0.47 -0.73 0.52 -0.7 0.56 -0.67 0.6 -0.64 0.65 -0.61 0.68 -0.58 0.72 -0.55 0.76 -0.52 0.79 -0.49 0.82 -0.45 0.85 -0.42 0.88 -0.38 0.9 -0.35 0.93 -0.31 0.95 -0.27 0.97 -0.23 0.99 -0.2 1.01 -0.15 1.02 -0.12 1.03 -0.07 1.04 -0.03 1.05 0.01 1.06 0.06 1.07 0.1 1.07 0.15 1.07 0 0 0.01 0zm5.55 13.81l-0.12 0.06 0 0 -0.2 -0.44 -0.2 -0.43 -0.21 -0.42 -0.21 -0.42 -0.21 -0.41 -0.21 -0.41 -0.21 -0.4 -0.21 -0.4 -0.21 -0.4 -0.2 -0.39 -0.2 -0.39 -0.2 -0.39 -0.2 -0.39 -0.2 -0.39 -0.19 -0.4 -0.19 -0.4 -0.19 -0.41 -0.18 -0.41 -0.18 -0.41 -0.17 -0.42 -0.17 -0.42 -0.16 -0.43 -0.16 -0.44 -0.15 -0.45 -0.15 -0.46 -0.14 -0.46 -0.13 -0.47 -0.13 -0.49 -0.12 -0.5 -0.11 -0.51 -0.1 -0.52 -0.09 -0.54 0.13 -0.02 0.09 0.54 0.1 0.52 0.11 0.51 0.12 0.5 0.13 0.49 0.13 0.47 0.14 0.46 0.15 0.45 0.15 0.44 0.16 0.44 0.16 0.43 0.17 0.42 0.17 0.42 0.18 0.41 0.18 0.41 0.19 0.4 0.19 0.4 0.19 0.4 0.2 0.39 0.2 0.39 0.2 0.39 0.2 0.39 0.2 0.39 0.21 0.4 0.21 0.4 0.21 0.4 0.21 0.41 0.21 0.41 0.21 0.42 0.21 0.42 0.2 0.43 0.2 0.44 0 0 -0 0zm9.08 29.99l-0.1 0.09 0 0 -0.68 -0.79 -0.63 -0.82 -0.58 -0.86 -0.53 -0.89 -0.49 -0.92 -0.45 -0.94 -0.41 -0.97 -0.38 -0.99 -0.34 -1.01 -0.31 -1.02 -0.29 -1.03 -0.26 -1.04 -0.24 -1.05 -0.22 -1.05 -0.2 -1.05 -0.19 -1.05 -0.17 -1.05 -0.16 -1.04 -0.15 -1.03 -0.15 -1.02 -0.15 -1.01 -0.15 -0.99 -0.15 -0.97 -0.15 -0.95 -0.16 -0.93 -0.17 -0.9 -0.18 -0.87 -0.2 -0.83 -0.22 -0.8 -0.23 -0.76 -0.26 -0.72 -0.28 -0.67 0.12 -0.06 0.29 0.68 0.26 0.72 0.24 0.76 0.22 0.8 0.2 0.83 0.19 0.87 0.17 0.9 0.16 0.93 0.15 0.95 0.15 0.97 0.15 0.99 0.15 1.01 0.15 1.02 0.15 1.03 0.16 1.04 0.17 1.05 0.19 1.05 0.2 1.05 0.22 1.05 0.24 1.05 0.26 1.04 0.28 1.03 0.31 1.02 0.34 1 0.37 0.98 0.41 0.96 0.45 0.94 0.49 0.91 0.53 0.88 0.57 0.85 0.62 0.82 0.67 0.78 0 0 0 0.01zm11.49 -2.45l0.13 0.02 0 0 -0.13 0.58 -0.16 0.54 -0.19 0.5 -0.22 0.47 -0.25 0.43 -0.28 0.4 -0.3 0.36 -0.32 0.33 -0.34 0.3 -0.36 0.27 -0.38 0.23 -0.39 0.2 -0.41 0.17 -0.42 0.14 -0.43 0.1 -0.43 0.08 -0.44 0.05 -0.45 0.01 -0.45 -0.01 -0.45 -0.04 -0.45 -0.07 -0.45 -0.1 -0.45 -0.13 -0.44 -0.15 -0.43 -0.18 -0.43 -0.21 -0.42 -0.23 -0.41 -0.25 -0.39 -0.28 -0.38 -0.3 -0.36 -0.33 -0.34 -0.35 0.1 -0.09 0.34 0.35 0.35 0.32 0.37 0.3 0.38 0.28 0.4 0.25 0.41 0.23 0.42 0.2 0.43 0.17 0.43 0.15 0.44 0.12 0.44 0.1 0.44 0.07 0.44 0.04 0.44 0.01 0.44 -0.01 0.43 -0.05 0.43 -0.07 0.42 -0.1 0.41 -0.13 0.39 -0.16 0.38 -0.2 0.37 -0.23 0.35 -0.26 0.33 -0.29 0.31 -0.32 0.29 -0.36 0.27 -0.39 0.24 -0.42 0.22 -0.46 0.19 -0.49 0.16 -0.53 0.13 -0.57 0 0 0.01 0zm4.44 -15.1l-0.01 0.13 0 0 -0.58 -0.01 -0.53 0.04 -0.47 0.09 -0.42 0.14 -0.37 0.19 -0.33 0.23 -0.29 0.27 -0.25 0.31 -0.21 0.35 -0.18 0.39 -0.15 0.42 -0.12 0.45 -0.09 0.49 -0.07 0.51 -0.05 0.54 -0.03 0.56 -0.01 0.58 0 0.6 0.01 0.61 0.02 0.63 0.02 0.64 0.02 0.64 0.02 0.65 0.02 0.65 0.02 0.65 0.01 0.65 -0 0.65 -0.02 0.64 -0.03 0.63 -0.05 0.62 -0.07 0.6 -0.1 0.59 -0.13 -0.02 0.1 -0.58 0.07 -0.6 0.05 -0.61 0.03 -0.63 0.02 -0.64 0 -0.64 -0.01 -0.65 -0.02 -0.65 -0.02 -0.65 -0.02 -0.65 -0.02 -0.64 -0.02 -0.64 -0.02 -0.63 -0.01 -0.61 0 -0.6 0.01 -0.58 0.03 -0.57 0.05 -0.54 0.07 -0.52 0.09 -0.49 0.12 -0.46 0.15 -0.43 0.19 -0.4 0.22 -0.37 0.26 -0.33 0.3 -0.29 0.35 -0.24 0.39 -0.2 0.44 -0.15 0.49 -0.09 0.54 -0.04 0.6 0.01 0 0 0 0zm9.2 20.27l-0 0.13 0 0 -0.99 -0.08 -0.87 -0.19 -0.77 -0.29 -0.67 -0.38 -0.58 -0.47 -0.49 -0.55 -0.41 -0.62 -0.34 -0.68 -0.27 -0.74 -0.21 -0.78 -0.16 -0.82 -0.11 -0.86 -0.07 -0.89 -0.04 -0.91 -0.02 -0.92 0 -0.93 0.01 -0.93 0.01 -0.92 0.01 -0.91 0 -0.89 -0.02 -0.86 -0.04 -0.82 -0.07 -0.78 -0.11 -0.73 -0.15 -0.68 -0.21 -0.61 -0.26 -0.54 -0.32 -0.47 -0.39 -0.38 -0.47 -0.3 -0.56 -0.2 -0.65 -0.1 0.01 -0.13 0.67 0.1 0.58 0.21 0.49 0.31 0.41 0.41 0.34 0.49 0.27 0.56 0.21 0.63 0.16 0.69 0.11 0.74 0.07 0.79 0.04 0.83 0.02 0.86 0 0.89 -0.01 0.91 -0.01 0.92 -0.01 0.93 0 0.93 0.02 0.92 0.04 0.9 0.07 0.88 0.11 0.85 0.15 0.82 0.21 0.78 0.26 0.72 0.33 0.67 0.4 0.6 0.47 0.53 0.56 0.46 0.65 0.37 0.75 0.28 0.86 0.19 0.97 0.08 0 0 0 -0.02zm11.87 -17.27l0.13 0.02 0 0 -0.1 0.57 -0.12 0.6 -0.13 0.63 -0.15 0.65 -0.16 0.67 -0.18 0.69 -0.2 0.71 -0.22 0.72 -0.23 0.72 -0.25 0.73 -0.27 0.73 -0.29 0.73 -0.3 0.72 -0.32 0.72 -0.34 0.7 -0.36 0.69 -0.38 0.67 -0.39 0.65 -0.42 0.63 -0.43 0.6 -0.45 0.57 -0.47 0.53 -0.49 0.5 -0.51 0.45 -0.53 0.41 -0.55 0.37 -0.57 0.31 -0.59 0.26 -0.61 0.21 -0.64 0.14 -0.66 0.08 -0.68 0.01 0 -0.13 0.66 -0.01 0.64 -0.08 0.62 -0.14 0.6 -0.2 0.58 -0.26 0.56 -0.31 0.54 -0.36 0.52 -0.41 0.51 -0.45 0.49 -0.49 0.47 -0.53 0.45 -0.56 0.43 -0.59 0.41 -0.62 0.39 -0.65 0.37 -0.67 0.36 -0.68 0.34 -0.7 0.32 -0.71 0.3 -0.72 0.29 -0.73 0.27 -0.73 0.25 -0.73 0.23 -0.72 0.22 -0.72 0.2 -0.7 0.18 -0.69 0.16 -0.67 0.15 -0.65 0.13 -0.63 0.12 -0.6 0.1 -0.57 0 0 0 0.02zm3.32 -16.07l0.12 0.06 0 0 -0.22 0.47 -0.21 0.47 -0.19 0.47 -0.18 0.47 -0.17 0.47 -0.16 0.47 -0.15 0.48 -0.14 0.48 -0.13 0.48 -0.12 0.48 -0.11 0.49 -0.1 0.49 -0.09 0.49 -0.09 0.49 -0.08 0.49 -0.08 0.5 -0.07 0.5 -0.07 0.5 -0.07 0.5 -0.07 0.51 -0.06 0.51 -0.06 0.51 -0.06 0.52 -0.06 0.52 -0.06 0.52 -0.07 0.52 -0.07 0.53 -0.07 0.53 -0.07 0.53 -0.08 0.54 -0.08 0.54 -0.09 0.54 -0.13 -0.02 0.09 -0.54 0.08 -0.54 0.08 -0.54 0.07 -0.53 0.07 -0.53 0.07 -0.53 0.07 -0.52 0.06 -0.52 0.06 -0.52 0.06 -0.52 0.06 -0.51 0.06 -0.51 0.07 -0.51 0.07 -0.5 0.07 -0.5 0.07 -0.5 0.08 -0.5 0.08 -0.5 0.09 -0.49 0.09 -0.49 0.1 -0.49 0.11 -0.49 0.12 -0.49 0.13 -0.49 0.14 -0.48 0.15 -0.48 0.16 -0.48 0.17 -0.48 0.18 -0.47 0.19 -0.47 0.21 -0.47 0.22 -0.47 0 0 0 0.01zm5.38 -14.21l0.13 0.01 0 0 -0.07 0.56 -0.08 0.54 -0.09 0.53 -0.1 0.52 -0.11 0.51 -0.12 0.5 -0.13 0.49 -0.13 0.48 -0.14 0.47 -0.15 0.46 -0.15 0.45 -0.16 0.44 -0.17 0.44 -0.17 0.43 -0.18 0.43 -0.18 0.42 -0.19 0.42 -0.19 0.41 -0.2 0.41 -0.2 0.41 -0.2 0.41 -0.2 0.41 -0.21 0.41 -0.21 0.41 -0.21 0.41 -0.21 0.41 -0.21 0.41 -0.21 0.41 -0.21 0.42 -0.21 0.42 -0.21 0.42 -0.21 0.43 -0.12 -0.06 0.21 -0.43 0.21 -0.43 0.21 -0.42 0.21 -0.42 0.21 -0.41 0.21 -0.41 0.21 -0.41 0.21 -0.41 0.21 -0.41 0.21 -0.41 0.2 -0.41 0.2 -0.41 0.2 -0.41 0.19 -0.41 0.19 -0.41 0.19 -0.42 0.18 -0.42 0.18 -0.42 0.17 -0.43 0.17 -0.44 0.16 -0.44 0.15 -0.45 0.15 -0.46 0.14 -0.46 0.13 -0.47 0.13 -0.49 0.12 -0.5 0.11 -0.51 0.1 -0.52 0.09 -0.53 0.08 -0.54 0.07 -0.56 0 0 0.01 0.01zm-15.32 -23.25l0 -0.13 0 0 0.95 0.06 0.93 0.12 0.9 0.19 0.88 0.25 0.86 0.31 0.83 0.36 0.8 0.42 0.78 0.47 0.75 0.52 0.72 0.57 0.69 0.61 0.66 0.66 0.63 0.7 0.6 0.74 0.56 0.77 0.53 0.81 0.5 0.84 0.46 0.87 0.43 0.9 0.39 0.93 0.35 0.95 0.31 0.97 0.28 0.99 0.24 1.01 0.2 1.02 0.16 1.03 0.12 1.04 0.07 1.05 0.03 1.06 -0.01 1.06 -0.06 1.07 -0.1 1.07 -0.13 -0.01 0.1 -1.06 0.06 -1.06 0.01 -1.06 -0.03 -1.05 -0.07 -1.05 -0.12 -1.04 -0.16 -1.03 -0.2 -1.02 -0.24 -1 -0.28 -0.99 -0.31 -0.96 -0.35 -0.94 -0.39 -0.92 -0.42 -0.89 -0.46 -0.87 -0.49 -0.83 -0.53 -0.8 -0.56 -0.77 -0.59 -0.73 -0.62 -0.69 -0.65 -0.65 -0.68 -0.61 -0.71 -0.56 -0.74 -0.51 -0.77 -0.46 -0.8 -0.41 -0.82 -0.36 -0.85 -0.3 -0.87 -0.24 -0.9 -0.19 -0.92 -0.12 -0.94 -0.06 0 0 0 0.01zm-15.56 3.83l-0.02 -0.13 0 0 0.51 -0.07 0.5 -0.09 0.49 -0.1 0.47 -0.11 0.47 -0.12 0.46 -0.13 0.45 -0.14 0.44 -0.15 0.44 -0.15 0.43 -0.16 0.43 -0.16 0.43 -0.17 0.43 -0.17 0.43 -0.17 0.43 -0.17 0.43 -0.17 0.44 -0.17 0.44 -0.16 0.45 -0.16 0.46 -0.15 0.47 -0.14 0.48 -0.14 0.49 -0.13 0.5 -0.12 0.51 -0.1 0.53 -0.09 0.54 -0.08 0.56 -0.06 0.58 -0.05 0.6 -0.03 0.62 -0.01 0.64 0.01 -0 0.13 -0.64 -0.01 -0.62 0.01 -0.6 0.03 -0.58 0.05 -0.56 0.06 -0.54 0.08 -0.53 0.09 -0.51 0.1 -0.5 0.12 -0.49 0.13 -0.47 0.14 -0.46 0.14 -0.46 0.15 -0.45 0.16 -0.44 0.16 -0.44 0.16 -0.43 0.17 -0.43 0.17 -0.43 0.17 -0.43 0.17 -0.43 0.17 -0.43 0.16 -0.44 0.16 -0.44 0.15 -0.45 0.15 -0.45 0.14 -0.46 0.13 -0.47 0.12 -0.48 0.11 -0.49 0.1 -0.5 0.09 -0.52 0.07 0 0 0.01 0zm-7.03 -2.55l0.05 -0.12 0 0 0.21 0.08 0.21 0.09 0.21 0.09 0.21 0.1 0.21 0.1 0.21 0.11 0.21 0.11 0.21 0.12 0.42 0.23 0.43 0.23 0.21 0.12 0.21 0.11 0.22 0.11 0.22 0.11 0.22 0.1 0.22 0.1 0.22 0.09 0.22 0.09 0.22 0.08 0.22 0.08 0.22 0.07 0.22 0.06 0.22 0.05 0.23 0.05 0.23 0.03 0.23 0.02 0.23 0.01 0.23 0 0.23 -0.01 0.23 -0.02 0.02 0.13 -0.24 0.02 -0.24 0.01 -0.24 -0 -0.24 -0.01 -0.23 -0.02 -0.23 -0.03 -0.23 -0.05 -0.23 -0.06 -0.23 -0.06 -0.23 -0.07 -0.22 -0.08 -0.22 -0.08 -0.22 -0.09 -0.22 -0.1 -0.22 -0.1 -0.22 -0.1 -0.22 -0.11 -0.22 -0.11 -0.22 -0.12 -0.21 -0.12 -0.43 -0.23 -0.42 -0.23 -0.21 -0.11 -0.21 -0.11 -0.21 -0.11 -0.21 -0.1 -0.21 -0.1 -0.21 -0.09 -0.21 -0.09 -0.21 -0.08 0 0 0 0zm-8.48 -1.18l-0.02 -0.13 0 0 0.27 -0.03 0.28 -0.03 0.28 -0.02 0.28 -0.02 0.28 -0.01 0.28 -0.01 0.28 0 0.28 0 0.28 0.01 0.28 0.01 0.28 0.02 0.28 0.02 0.28 0.03 0.28 0.03 0.28 0.03 0.28 0.04 0.27 0.05 0.27 0.05 0.27 0.05 0.27 0.06 0.27 0.06 0.27 0.06 0.26 0.07 0.26 0.07 0.26 0.07 0.25 0.07 0.25 0.08 0.25 0.08 0.24 0.08 0.24 0.08 0.24 0.09 0.23 0.09 -0.05 0.12 -0.23 -0.09 -0.24 -0.09 -0.24 -0.08 -0.24 -0.08 -0.25 -0.08 -0.25 -0.08 -0.25 -0.07 -0.25 -0.07 -0.26 -0.07 -0.26 -0.07 -0.26 -0.06 -0.27 -0.06 -0.27 -0.06 -0.27 -0.05 -0.27 -0.05 -0.27 -0.05 -0.27 -0.04 -0.27 -0.03 -0.28 -0.03 -0.28 -0.03 -0.28 -0.02 -0.28 -0.02 -0.28 -0.01 -0.28 -0.01 -0.28 -0 -0.28 0 -0.28 0.01 -0.28 0.01 -0.28 0.02 -0.27 0.02 -0.27 0.03 -0.27 0.03 0 0 0.01 -0.01z"/>
    </g>
    <path class="fil3" d="M44.52 87.86c0.06,0 0.62,0.6 0.93,-1.69 0.51,-3.78 -0.95,-8.95 1.74,-12.95 1.09,-1.63 1.94,-1.33 3.73,-2.52 0.87,-0.4 2.26,-2.72 6.25,-2.27 6.68,0.75 5.96,8.15 5.96,12.5 0,2.81 -0.58,6.31 1.66,7.37 3.45,-1.02 6.28,-12.62 6.66,-15.23 1.15,-7.85 1.05,-11.1 4.47,-17.59 2.8,-5.32 5.11,-9.97 4.11,-17.51 -0.66,-4.95 -3.22,-10.49 -7.21,-13.24l-0.85 -0.59c-0.05,-0.03 -0.12,-0.09 -0.18,-0.14 -4.88,-0.52 -8.8,1.78 -12.69,3.15 1.75,1.27 5.52,0.46 5.61,2.61 0.22,5.33 -15.53,-4.12 -17.11,-4.76 -10.46,-4.2 -16.96,3.82 -18.39,12.63 -1.88,11.6 5.05,16.11 7,25.51 1.46,7.04 1.08,15.52 6.07,22.82 0.47,0.69 0.29,0.52 0.95,1.15 0.57,0.54 0.53,0.63 1.31,0.76l-0 0z"/>
    <g>
     <path class="fil4" d="M64.78 88.29c2.96,1.75 5.71,-2.42 6.78,-4.63 5.82,-11.93 2.32,-17.83 7.55,-28.15 3,-5.93 5.72,-10.66 4.05,-18.88 -1.24,-6.13 -5.11,-11.98 -11.39,-12.65 0.06,0.05 0.14,0.11 0.18,0.14l0.85 0.59c3.99,2.75 6.56,8.29 7.21,13.24 1,7.53 -1.31,12.19 -4.11,17.51 -3.42,6.48 -3.32,9.73 -4.47,17.59 -0.38,2.61 -3.21,14.21 -6.66,15.23l0 0z"/>
     <path id="_1_0" class="fil5" d="M71.5 83.63l0.12 0.06 0 0 -0.1 0.21 -0.12 0.22 -0.13 0.23 -0.13 0.24 -0.14 0.24 -0.15 0.25 -0.16 0.25 -0.17 0.25 -0.17 0.25 -0.18 0.25 -0.19 0.25 -0.2 0.24 -0.2 0.24 -0.21 0.23 -0.22 0.22 -0.22 0.21 -0.23 0.2 -0.23 0.19 -0.24 0.17 -0.24 0.16 -0.25 0.14 -0.25 0.12 -0.26 0.1 -0.26 0.08 -0.27 0.06 -0.27 0.03 -0.27 0 -0.28 -0.02 -0.28 -0.05 -0.28 -0.08 -0.28 -0.12 -0.28 -0.15 0.07 -0.11 0.27 0.14 0.27 0.11 0.27 0.08 0.27 0.05 0.26 0.02 0.26 -0 0.26 -0.03 0.25 -0.06 0.25 -0.08 0.25 -0.1 0.24 -0.12 0.24 -0.14 0.24 -0.15 0.23 -0.17 0.23 -0.19 0.22 -0.2 0.22 -0.21 0.21 -0.22 0.21 -0.23 0.2 -0.24 0.2 -0.24 0.19 -0.25 0.18 -0.25 0.17 -0.25 0.17 -0.25 0.16 -0.25 0.15 -0.25 0.14 -0.24 0.13 -0.24 0.12 -0.23 0.12 -0.22 0.1 -0.21 0 0 -0.01 0.02zm7.55 -28.15l0.12 0.06 0 0 -0.46 0.95 -0.42 0.93 -0.37 0.91 -0.33 0.89 -0.29 0.87 -0.26 0.85 -0.23 0.84 -0.2 0.82 -0.17 0.81 -0.15 0.81 -0.14 0.8 -0.12 0.8 -0.11 0.79 -0.1 0.79 -0.1 0.79 -0.09 0.8 -0.1 0.8 -0.1 0.81 -0.11 0.82 -0.12 0.83 -0.14 0.84 -0.15 0.85 -0.18 0.87 -0.2 0.89 -0.23 0.91 -0.26 0.93 -0.3 0.95 -0.34 0.98 -0.38 1.01 -0.42 1.04 -0.47 1.07 -0.52 1.1 -0.12 -0.06 0.52 -1.1 0.47 -1.07 0.42 -1.03 0.37 -1.01 0.33 -0.98 0.29 -0.95 0.26 -0.93 0.23 -0.9 0.2 -0.89 0.17 -0.87 0.15 -0.85 0.14 -0.84 0.12 -0.82 0.11 -0.81 0.1 -0.81 0.1 -0.8 0.09 -0.8 0.1 -0.79 0.1 -0.79 0.11 -0.79 0.12 -0.8 0.14 -0.8 0.15 -0.81 0.17 -0.82 0.2 -0.83 0.23 -0.84 0.26 -0.86 0.29 -0.87 0.33 -0.89 0.37 -0.91 0.42 -0.93 0.46 -0.96 0 0 0.01 0zm4.05 -18.83l0.13 -0.03 0 0 0.14 0.76 0.12 0.74 0.09 0.72 0.07 0.71 0.05 0.69 0.03 0.67 0 0.66 -0.01 0.64 -0.03 0.63 -0.06 0.62 -0.07 0.6 -0.09 0.59 -0.11 0.58 -0.12 0.58 -0.14 0.57 -0.15 0.56 -0.17 0.55 -0.18 0.54 -0.19 0.54 -0.2 0.53 -0.21 0.53 -0.22 0.53 -0.23 0.53 -0.24 0.53 -0.25 0.53 -0.25 0.53 -0.26 0.53 -0.27 0.53 -0.27 0.54 -0.28 0.54 -0.28 0.54 -0.28 0.55 -0.12 -0.06 0.28 -0.55 0.28 -0.54 0.28 -0.54 0.27 -0.54 0.27 -0.53 0.26 -0.53 0.25 -0.53 0.25 -0.53 0.24 -0.53 0.23 -0.53 0.22 -0.53 0.21 -0.53 0.2 -0.53 0.19 -0.54 0.18 -0.54 0.16 -0.55 0.15 -0.56 0.14 -0.56 0.12 -0.57 0.1 -0.58 0.09 -0.59 0.07 -0.6 0.05 -0.61 0.03 -0.63 0.01 -0.64 -0 -0.65 -0.03 -0.67 -0.05 -0.68 -0.07 -0.7 -0.09 -0.72 -0.12 -0.74 -0.14 -0.76 0 0 0.01 0.01zm-11.28 -12.71l-0.08 0.1 0.05 -0.12 0.59 0.08 0.57 0.11 0.56 0.14 0.54 0.16 0.53 0.19 0.51 0.22 0.5 0.24 0.49 0.27 0.47 0.29 0.45 0.31 0.44 0.34 0.43 0.35 0.41 0.37 0.39 0.39 0.38 0.41 0.37 0.43 0.35 0.44 0.34 0.46 0.32 0.47 0.31 0.49 0.29 0.5 0.28 0.51 0.26 0.52 0.25 0.53 0.23 0.54 0.22 0.55 0.2 0.56 0.19 0.56 0.17 0.57 0.16 0.57 0.14 0.57 0.13 0.58 -0.13 0.03 -0.13 -0.57 -0.14 -0.57 -0.15 -0.57 -0.17 -0.56 -0.19 -0.56 -0.2 -0.55 -0.22 -0.54 -0.23 -0.53 -0.24 -0.53 -0.26 -0.52 -0.28 -0.51 -0.29 -0.5 -0.3 -0.48 -0.32 -0.47 -0.34 -0.45 -0.35 -0.44 -0.36 -0.42 -0.38 -0.41 -0.39 -0.39 -0.41 -0.37 -0.42 -0.35 -0.44 -0.33 -0.45 -0.31 -0.46 -0.29 -0.48 -0.26 -0.49 -0.24 -0.51 -0.21 -0.52 -0.19 -0.53 -0.16 -0.55 -0.13 -0.56 -0.1 -0.58 -0.08 0.05 -0.12 -0 -0.01zm-0.08 0.1l-0.17 -0.14 0.22 0.02 -0.05 0.12 0 0zm0.26 0.03l-0.07 0.11 0 0 -0.02 -0.01 -0.02 -0.01 -0.02 -0.02 -0.02 -0.02 -0.02 -0.02 -0.02 -0.02 -0.02 -0.02 -0.02 -0.02 0.08 -0.1 0.02 0.02 0.02 0.02 0.02 0.02 0.02 0.02 0.02 0.02 0.02 0.02 0.02 0.01 0.02 0.01 0 0 -0.01 0zm-0.07 0.11l0 0 -0 0 0 0 0 0zm0.85 0.59l-0.85 -0.59 0.07 -0.11 0.85 0.59 -0.07 0.11 0 0zm0 0l0 0 -0.03 -0.02 0.03 0.02zm7.31 13.18l-0.13 0.02 0 0 -0.07 -0.46 -0.08 -0.47 -0.09 -0.47 -0.1 -0.47 -0.11 -0.47 -0.12 -0.47 -0.13 -0.47 -0.14 -0.47 -0.15 -0.47 -0.16 -0.47 -0.17 -0.46 -0.19 -0.46 -0.19 -0.46 -0.2 -0.45 -0.21 -0.45 -0.22 -0.44 -0.23 -0.44 -0.24 -0.43 -0.25 -0.42 -0.26 -0.41 -0.27 -0.4 -0.28 -0.39 -0.29 -0.38 -0.3 -0.37 -0.31 -0.36 -0.32 -0.35 -0.32 -0.34 -0.34 -0.32 -0.34 -0.31 -0.35 -0.29 -0.36 -0.28 -0.37 -0.27 0.07 -0.11 0.37 0.27 0.36 0.28 0.36 0.3 0.35 0.31 0.34 0.33 0.33 0.34 0.32 0.35 0.31 0.36 0.3 0.38 0.29 0.39 0.28 0.4 0.27 0.41 0.27 0.42 0.25 0.42 0.24 0.43 0.23 0.44 0.22 0.44 0.22 0.45 0.21 0.45 0.2 0.46 0.19 0.46 0.17 0.47 0.16 0.47 0.15 0.47 0.14 0.47 0.13 0.47 0.12 0.47 0.11 0.47 0.1 0.47 0.09 0.47 0.08 0.47 0.07 0.47 0 0 -0 0zm-4.12 17.55l-0.12 -0.06 0 0 0.26 -0.5 0.26 -0.49 0.25 -0.49 0.25 -0.49 0.24 -0.49 0.24 -0.49 0.23 -0.49 0.23 -0.49 0.22 -0.49 0.21 -0.49 0.2 -0.49 0.2 -0.5 0.19 -0.5 0.17 -0.5 0.17 -0.51 0.16 -0.51 0.14 -0.52 0.13 -0.53 0.12 -0.53 0.11 -0.54 0.09 -0.56 0.08 -0.56 0.07 -0.57 0.05 -0.58 0.04 -0.6 0.02 -0.61 0 -0.62 -0.01 -0.64 -0.03 -0.65 -0.05 -0.66 -0.07 -0.68 -0.08 -0.69 0.13 -0.02 0.08 0.7 0.07 0.68 0.05 0.67 0.03 0.65 0.01 0.64 -0 0.63 -0.02 0.61 -0.04 0.6 -0.05 0.59 -0.07 0.58 -0.08 0.57 -0.09 0.56 -0.11 0.55 -0.12 0.54 -0.13 0.53 -0.15 0.52 -0.16 0.52 -0.17 0.51 -0.18 0.51 -0.19 0.5 -0.2 0.5 -0.21 0.5 -0.21 0.49 -0.22 0.49 -0.23 0.49 -0.23 0.49 -0.24 0.49 -0.24 0.49 -0.25 0.49 -0.25 0.49 -0.26 0.49 -0.26 0.5 0 0 -0 -0.01zm-4.46 17.56l-0.13 -0.02 0 0 0.1 -0.72 0.1 -0.7 0.09 -0.67 0.09 -0.65 0.08 -0.63 0.08 -0.61 0.08 -0.59 0.08 -0.58 0.08 -0.56 0.08 -0.54 0.08 -0.53 0.08 -0.52 0.08 -0.51 0.09 -0.5 0.09 -0.5 0.1 -0.49 0.1 -0.49 0.11 -0.49 0.12 -0.49 0.13 -0.49 0.14 -0.49 0.15 -0.49 0.16 -0.49 0.18 -0.5 0.19 -0.51 0.21 -0.52 0.22 -0.53 0.24 -0.54 0.25 -0.55 0.27 -0.57 0.29 -0.58 0.31 -0.6 0.12 0.06 -0.31 0.6 -0.29 0.58 -0.27 0.56 -0.25 0.55 -0.24 0.53 -0.22 0.52 -0.21 0.51 -0.19 0.5 -0.18 0.5 -0.16 0.49 -0.15 0.49 -0.14 0.49 -0.13 0.48 -0.12 0.48 -0.11 0.48 -0.1 0.49 -0.1 0.49 -0.09 0.5 -0.09 0.5 -0.08 0.51 -0.08 0.52 -0.08 0.53 -0.08 0.54 -0.08 0.56 -0.08 0.57 -0.08 0.59 -0.08 0.61 -0.08 0.63 -0.09 0.65 -0.09 0.67 -0.1 0.7 -0.1 0.72 0 0 0 0.01zm-6.69 15.16l-0.07 0.11 0.01 -0.12 0.31 -0.12 0.31 -0.18 0.31 -0.23 0.3 -0.29 0.3 -0.34 0.3 -0.38 0.29 -0.42 0.29 -0.46 0.28 -0.49 0.27 -0.52 0.27 -0.55 0.26 -0.57 0.25 -0.59 0.24 -0.6 0.23 -0.62 0.23 -0.63 0.22 -0.63 0.21 -0.63 0.2 -0.63 0.19 -0.62 0.18 -0.61 0.17 -0.6 0.16 -0.58 0.15 -0.56 0.13 -0.54 0.12 -0.51 0.11 -0.48 0.1 -0.44 0.08 -0.41 0.07 -0.36 0.06 -0.32 0.04 -0.27 0.13 0.02 -0.04 0.27 -0.06 0.32 -0.07 0.37 -0.08 0.41 -0.1 0.45 -0.11 0.48 -0.12 0.51 -0.13 0.54 -0.15 0.56 -0.16 0.58 -0.17 0.6 -0.18 0.61 -0.19 0.63 -0.2 0.63 -0.21 0.63 -0.22 0.63 -0.23 0.63 -0.23 0.62 -0.24 0.61 -0.25 0.59 -0.26 0.57 -0.27 0.55 -0.28 0.52 -0.28 0.5 -0.29 0.46 -0.29 0.43 -0.3 0.38 -0.31 0.34 -0.31 0.29 -0.32 0.24 -0.32 0.19 -0.33 0.13 0.01 -0.12 -0.01 -0.01zm-0.07 0.11l-0.13 -0.08 0.15 -0.04 -0.01 0.12 -0 0z"/>
    </g>
    <g>
     <path class="fil4" d="M44.52 87.86c1.1,1.59 3.67,0.64 4.31,-0.42 0.8,-1.32 0.59,-3.96 0.59,-5.73 0,-5.33 -0.32,-6.59 1.51,-11.02 -1.79,1.2 -2.64,0.9 -3.73,2.52 -2.69,4 -1.22,9.17 -1.74,12.95 -0.31,2.3 -0.87,1.69 -0.93,1.69l0 0z"/>
     <path id="_1_1" class="fil5" d="M48.76 87.41l0.11 0.07 0 0 -0.07 0.1 -0.08 0.1 -0.09 0.1 -0.1 0.1 -0.11 0.09 -0.12 0.09 -0.12 0.09 -0.13 0.08 -0.14 0.08 -0.14 0.07 -0.15 0.07 -0.15 0.06 -0.15 0.06 -0.16 0.05 -0.16 0.04 -0.16 0.03 -0.16 0.03 -0.16 0.02 -0.17 0.01 -0.16 0 -0.16 -0.01 -0.16 -0.02 -0.16 -0.03 -0.16 -0.04 -0.15 -0.05 -0.15 -0.06 -0.15 -0.08 -0.14 -0.09 -0.13 -0.1 -0.13 -0.12 -0.12 -0.13 -0.11 -0.15 0.11 -0.07 0.1 0.14 0.11 0.12 0.12 0.11 0.13 0.09 0.13 0.08 0.14 0.07 0.14 0.06 0.15 0.05 0.15 0.04 0.15 0.03 0.15 0.02 0.16 0.01 0.16 -0 0.16 -0.01 0.16 -0.02 0.16 -0.03 0.16 -0.03 0.16 -0.04 0.15 -0.05 0.15 -0.06 0.15 -0.06 0.14 -0.07 0.14 -0.07 0.13 -0.08 0.13 -0.08 0.12 -0.08 0.11 -0.09 0.1 -0.09 0.09 -0.09 0.08 -0.09 0.07 -0.09 0.06 -0.09 0 0 -0.01 0.01zm0.58 -5.7l0.13 0 0 0 0 0.17 0 0.17 0 0.18 0 0.18 0 0.19 0 0.19 0 0.19 0 0.19 0 0.2 0 0.2 0 0.2 0 0.2 -0 0.2 -0 0.2 -0.01 0.2 -0.01 0.2 -0.01 0.2 -0.01 0.2 -0.01 0.19 -0.02 0.19 -0.02 0.19 -0.02 0.19 -0.03 0.18 -0.03 0.18 -0.04 0.17 -0.04 0.17 -0.05 0.16 -0.05 0.16 -0.06 0.15 -0.06 0.14 -0.07 0.14 -0.07 0.13 -0.11 -0.07 0.07 -0.13 0.07 -0.13 0.06 -0.14 0.06 -0.15 0.05 -0.15 0.05 -0.16 0.04 -0.16 0.04 -0.17 0.03 -0.17 0.03 -0.18 0.02 -0.18 0.02 -0.19 0.02 -0.19 0.01 -0.19 0.01 -0.19 0.01 -0.2 0.01 -0.2 0.01 -0.2 0 -0.2 0 -0.2 0 -0.2 0 -0.2 0 -0.2 -0 -0.2 -0 -0.19 -0 -0.19 -0 -0.19 -0 -0.19 -0 -0.18 -0 -0.18 0 -0.17 0 -0.17 0 0 -0.01 0.01zm1.61 -10.97l-0.07 -0.11 0.1 0.08 -0.16 0.41 -0.15 0.39 -0.14 0.37 -0.13 0.36 -0.12 0.35 -0.11 0.33 -0.1 0.32 -0.09 0.31 -0.08 0.3 -0.07 0.3 -0.06 0.29 -0.06 0.29 -0.05 0.29 -0.04 0.28 -0.03 0.28 -0.03 0.29 -0.02 0.29 -0.02 0.29 -0.02 0.3 -0.01 0.3 -0.01 0.31 -0 0.32 -0 0.33 0 0.35 0 0.36 0 0.37 0 0.39 0 0.41 0 0.43 0 0.44 0 0.46 0 0.49 -0.13 0 0 -0.49 -0 -0.46 -0 -0.44 -0 -0.43 -0 -0.41 -0 -0.39 -0 -0.37 0 -0.36 0 -0.35 0 -0.33 0 -0.32 0.01 -0.31 0.01 -0.31 0.02 -0.3 0.02 -0.29 0.02 -0.29 0.03 -0.29 0.04 -0.29 0.04 -0.29 0.05 -0.29 0.06 -0.29 0.06 -0.29 0.07 -0.3 0.08 -0.31 0.09 -0.31 0.1 -0.32 0.11 -0.34 0.12 -0.35 0.13 -0.36 0.14 -0.37 0.15 -0.39 0.16 -0.41 0.1 0.08 0 0.01zm-0.07 -0.11l0.18 -0.12 -0.08 0.2 -0.1 -0.08 0 0zm-3.64 2.62l-0.11 -0.07 0 0 0.1 -0.15 0.1 -0.14 0.1 -0.13 0.1 -0.12 0.1 -0.11 0.1 -0.1 0.1 -0.09 0.1 -0.09 0.1 -0.08 0.1 -0.08 0.1 -0.07 0.1 -0.07 0.1 -0.06 0.1 -0.06 0.1 -0.06 0.11 -0.05 0.11 -0.05 0.11 -0.05 0.12 -0.05 0.12 -0.05 0.12 -0.05 0.12 -0.06 0.13 -0.06 0.13 -0.06 0.13 -0.06 0.14 -0.07 0.14 -0.07 0.14 -0.08 0.15 -0.08 0.15 -0.09 0.16 -0.1 0.16 -0.11 0.07 0.11 -0.17 0.11 -0.16 0.1 -0.16 0.09 -0.15 0.09 -0.15 0.08 -0.14 0.07 -0.14 0.07 -0.13 0.06 -0.13 0.06 -0.13 0.06 -0.12 0.06 -0.12 0.05 -0.12 0.05 -0.11 0.05 -0.11 0.05 -0.11 0.05 -0.1 0.05 -0.1 0.05 -0.1 0.06 -0.1 0.06 -0.1 0.06 -0.1 0.07 -0.1 0.07 -0.1 0.08 -0.09 0.08 -0.09 0.09 -0.09 0.1 -0.1 0.1 -0.1 0.12 -0.1 0.13 -0.1 0.13 -0.1 0.15 0 0 -0.01 0.01zm-1.73 12.92l-0.13 -0.02 0 0 0.04 -0.36 0.03 -0.36 0.02 -0.37 0.01 -0.38 0.01 -0.38 0 -0.39 -0 -0.39 -0.01 -0.4 -0.01 -0.41 -0.01 -0.41 -0.01 -0.42 -0.01 -0.42 -0.01 -0.42 -0.01 -0.42 -0 -0.42 0 -0.43 0.01 -0.43 0.02 -0.43 0.02 -0.43 0.03 -0.43 0.05 -0.43 0.06 -0.42 0.07 -0.42 0.09 -0.42 0.1 -0.42 0.12 -0.41 0.14 -0.41 0.15 -0.41 0.17 -0.4 0.2 -0.39 0.22 -0.39 0.24 -0.38 0.11 0.07 -0.24 0.37 -0.22 0.38 -0.19 0.39 -0.17 0.39 -0.15 0.4 -0.13 0.4 -0.12 0.41 -0.1 0.41 -0.08 0.42 -0.07 0.42 -0.06 0.42 -0.05 0.42 -0.03 0.42 -0.02 0.42 -0.02 0.43 -0.01 0.42 -0 0.42 0 0.42 0.01 0.42 0.01 0.42 0.01 0.42 0.01 0.42 0.01 0.41 0.01 0.41 0.01 0.4 0 0.4 0 0.39 -0.01 0.39 -0.01 0.38 -0.02 0.37 -0.03 0.37 -0.04 0.36 0 0 -0 -0.01zm-0.95 1.65l-0.11 0.07 0.05 -0.1 0.03 0 0.02 0.01 0.01 0.01 0.01 0.01 0.02 0.01 0.02 0.01 0.02 0.01 0.02 0.01 0.02 0.01 0.02 0 0.02 0 0.02 0 0.02 -0 0.02 -0.01 0.03 -0.01 0.03 -0.02 0.03 -0.02 0.03 -0.03 0.03 -0.04 0.03 -0.05 0.03 -0.06 0.03 -0.07 0.03 -0.08 0.03 -0.09 0.03 -0.1 0.03 -0.12 0.03 -0.13 0.03 -0.14 0.03 -0.16 0.03 -0.17 0.03 -0.19 0.03 -0.21 0.13 0.02 -0.03 0.21 -0.03 0.19 -0.03 0.18 -0.03 0.16 -0.03 0.15 -0.03 0.13 -0.03 0.12 -0.04 0.11 -0.04 0.1 -0.04 0.09 -0.04 0.08 -0.04 0.07 -0.04 0.06 -0.04 0.05 -0.04 0.04 -0.04 0.03 -0.04 0.03 -0.04 0.02 -0.04 0.01 -0.04 0.01 -0.04 0 -0.03 -0 -0.03 -0.01 -0.03 -0.01 -0.03 -0.01 -0.02 -0.01 -0.02 -0.01 -0.02 -0.01 -0.01 -0.01 -0.01 -0.01 -0 0 0.01 0 0.05 -0.1 -0.01 -0.02zm-0.11 0.07l-0.07 -0.1 0.12 -0 -0.05 0.1 0 0z"/>
    </g>
   </g>
  </g>
 </g>
</svg>
