<?xml version="1.0" encoding="UTF-8"?>
<!DOCTYPE svg PUBLIC "-//W3C//DTD SVG 1.0//EN" "http://www.w3.org/TR/2001/REC-SVG-20010904/DTD/svg10.dtd">
<!-- Creator: CorelDRAW 2023 (Not for commercial use) -->
<svg xmlns="http://www.w3.org/2000/svg" xml:space="preserve" width="1.3851in" height="1.38593in" version="1.0" style="shape-rendering:geometricPrecision; text-rendering:geometricPrecision; image-rendering:optimizeQuality; fill-rule:evenodd; clip-rule:evenodd"
viewBox="0 0 211 211.13"
 xmlns:xlink="http://www.w3.org/1999/xlink"
 xmlns:xodm="http://www.corel.com/coreldraw/odm/2003">
 <defs>
  <style type="text/css">
   <![CDATA[
    .str0 {stroke:#898989;stroke-width:0.46;stroke-miterlimit:2.61313}
    .str1 {stroke:#C5C6C6;stroke-width:0.46;stroke-miterlimit:2.61313}
    .fil2 {fill:#898989}
    .fil3 {fill:#C5C6C6}
    .fil0 {fill:#F74A55}
    .fil1 {fill:white}
   ]]>
  </style>
 </defs>
 <g id="Layer_x0020_1">
  <metadata id="CorelCorpID_0Corel-Layer"/>
  <g id="_2178031309824">
   <path class="fil0" d="M92.36 1.05c-32.56,4.85 -52.94,19.41 -68.05,37.28 -15.49,18.32 -27.54,47.4 -23.53,80.23 6.57,53.73 55.63,99.36 117.92,91.72 52.98,-6.5 99.12,-55.59 91.46,-117.32 -7.26,-58.59 -61.9,-100.24 -117.8,-91.91l0 -0.01z"/>
   <path class="fil1" d="M78.35 88.99c5.83,12.83 2.53,15.46 14.8,28.07 12.15,12.49 16.12,9.72 27.9,15.25 -2,4.48 -23.04,24.7 -27.92,28.62 -12.12,9.71 -29.79,8.52 -40.72,-2.41 -24.32,-24.32 6.45,-54.39 25.94,-69.54zm85.04 -12.15c-4.88,26.61 -21,22.23 -14.9,13.87 5.26,-7.2 6.57,-4.7 7.69,-15.39 1.02,-9.74 8.97,-8.07 7.22,1.52l-0.01 -0zm-10.01 -19.29c1.55,-5.72 9.79,-4.91 9.19,1.3 -0.56,5.83 -8.93,5.93 -9.19,-1.3zm-22.87 -19.29c-20.41,3.32 -56.86,47.11 -72.71,63.06 -13.58,13.67 -25.52,24.7 -18.72,46.27 5.71,18.11 23.01,28.3 41.67,25.33 18.02,-2.87 57.84,-48.68 72.44,-63.38 13.58,-13.67 25.52,-24.7 18.72,-46.27 -5.79,-18.36 -22.56,-28.07 -41.4,-25.01l0 -0.01z"/>
   <path class="fil2 str0" d="M93.12 160.92c4.89,-3.92 25.93,-24.14 27.93,-28.62 -11.77,-5.53 -15.74,-2.76 -27.9,-15.25 -12.27,-12.61 -8.97,-15.25 -14.8,-28.07 -19.49,15.14 -50.27,45.21 -25.94,69.54 10.93,10.93 28.6,12.12 40.72,2.41l-0.01 0z"/>
   <path class="fil3 str1" d="M148.48 90.71c-6.11,8.36 10.02,12.74 14.9,-13.87 1.75,-9.59 -6.2,-11.25 -7.21,-1.52 -1.12,10.69 -2.43,8.19 -7.69,15.39l-0 0z"/>
   <path class="fil3 str1" d="M153.38 57.54c0.27,7.23 8.63,7.13 9.19,1.3 0.59,-6.22 -7.64,-7.02 -9.19,-1.3z"/>
  </g>
 </g>
</svg>
