<?xml version="1.0" encoding="UTF-8"?>
<!DOCTYPE svg PUBLIC "-//W3C//DTD SVG 1.0//EN" "http://www.w3.org/TR/2001/REC-SVG-20010904/DTD/svg10.dtd">
<!-- Creator: CorelDRAW 2023 (Not for commercial use) -->
<svg xmlns="http://www.w3.org/2000/svg" xml:space="preserve" width="1.38514in" height="1.38596in" version="1.0" style="shape-rendering:geometricPrecision; text-rendering:geometricPrecision; image-rendering:optimizeQuality; fill-rule:evenodd; clip-rule:evenodd"
viewBox="0 0 129.79 129.87"
 xmlns:xlink="http://www.w3.org/1999/xlink"
 xmlns:xodm="http://www.corel.com/coreldraw/odm/2003">
 <defs>
  <style type="text/css">
   <![CDATA[
    .str0 {stroke:white;stroke-width:0.28;stroke-miterlimit:2.61313}
    .fil0 {fill:#FF8126}
    .fil1 {fill:white}
   ]]>
  </style>
 </defs>
 <g id="Layer_x0020_1">
  <metadata id="CorelCorpID_0Corel-Layer"/>
  <g id="_2142510429760">
   <path class="fil0" d="M56.81 0.65c-20.03,2.98 -32.57,11.94 -41.86,22.93 -9.53,11.27 -16.95,29.16 -14.47,49.35 4.04,33.05 34.22,61.12 72.54,56.42 32.59,-4 60.97,-34.19 56.26,-72.17 -4.46,-36.04 -38.08,-61.66 -72.47,-56.54l0 0z"/>
   <g>
    <path class="fil1" d="M83.46 107.07c-4.86,0 -3.38,-6.8 -0.58,-6.8 2.6,0 2.9,1.17 3.21,3.61 0.2,1.59 -1.19,3.19 -2.62,3.19l-0 0zm-37.1 -3.3c0,-3.97 3.93,-4.29 5.15,-2.43 0.85,1.31 1.53,5.73 -2.43,5.73 -1.85,0 -2.72,-1.43 -2.72,-3.3l0 -0zm-9.13 -51.48l62.94 0c2.26,0 4.08,1.23 4.08,3.49 0,2.46 -5.34,11.86 -6.86,14.89l-2.98 5.76c-0.33,0.66 -1.09,2.65 -1.82,2.65l-49.92 0c-0.02,-0.9 -0.41,-2.38 -0.62,-3.26l-4.82 -23.54 0.01 0zm-17.87 -17.1c3.1,0 5.66,-0.44 7.72,1.41 1.03,0.92 0.97,2.16 1.33,3.72l8.77 41.93c0.5,2.52 1.93,10.35 2.97,12.19 0.57,1 1.39,2.29 2.33,2.92 -7.29,10.89 5.76,20.51 12.97,13.16 2.4,-2.45 3.32,-7.48 1.99,-10.25l17.29 0c-0.03,1.1 -0.39,1.47 -0.39,3.69 0,5.93 6.19,11.14 12.44,8.35 3.3,-1.47 5.24,-4.78 5.24,-8.55 0,-1.33 -0.33,-2.42 -0.58,-3.49l2.91 0 0 -6.02 -45.07 0c-1.74,0 -3.53,-1.82 -4,-3.19l-1.25 -6.14 52.25 0c0.69,0 1.74,-2.69 2.07,-3.37l8.29 -16.19c0.37,-0.73 0.61,-1.02 0.98,-1.74 2.46,-4.86 5.13,-10.44 -0.6,-15.07 -2.27,-1.84 -5.11,-2.29 -8.21,-2.28l-62.94 0 -1.8 -8.69c-0.57,-2.48 -2.22,-4.83 -4.2,-6.29 -3.32,-2.45 -6.07,-1.91 -10.52,-1.91l0 5.83 -0 0.01z"/>
    <path class="fil1 str0" d="M37.23 52.29l4.82 23.54c0.21,0.89 0.6,2.36 0.62,3.26l49.92 0c0.73,0 1.49,-2 1.82,-2.65l2.98 -5.76c1.52,-3.04 6.86,-12.44 6.86,-14.89 0,-2.27 -1.82,-3.49 -4.08,-3.49l-62.94 0 -0.01 -0z"/>
    <path class="fil1 str0" d="M51.51 101.34c-1.22,-1.87 -5.15,-1.55 -5.15,2.43 0,1.87 0.87,3.3 2.72,3.3 3.95,0 3.28,-4.42 2.43,-5.73l0 0z"/>
    <path class="fil1 str0" d="M82.88 100.27c-2.79,0 -4.28,6.8 0.58,6.8 1.43,0 2.81,-1.6 2.62,-3.19 -0.3,-2.45 -0.6,-3.61 -3.21,-3.61l0 -0z"/>
   </g>
  </g>
 </g>
</svg>
