<?xml version="1.0" encoding="UTF-8"?>
<!DOCTYPE svg PUBLIC "-//W3C//DTD SVG 1.0//EN" "http://www.w3.org/TR/2001/REC-SVG-20010904/DTD/svg10.dtd">
<!-- Creator: CorelDRAW 2023 (Not for commercial use) -->
<svg xmlns="http://www.w3.org/2000/svg" xml:space="preserve" width="1.38509in" height="1.38595in" version="1.0" style="shape-rendering:geometricPrecision; text-rendering:geometricPrecision; image-rendering:optimizeQuality; fill-rule:evenodd; clip-rule:evenodd"
viewBox="0 0 91.23 91.28"
 xmlns:xlink="http://www.w3.org/1999/xlink"
 xmlns:xodm="http://www.corel.com/coreldraw/odm/2003">
 <defs>
  <style type="text/css">
   <![CDATA[
    .fil0 {fill:#F74A55}
    .fil1 {fill:#FEFEFE}
   ]]>
  </style>
 </defs>
 <g id="Layer_x0020_1">
  <metadata id="CorelCorpID_0Corel-Layer"/>
  <g id="_2178031755504">
   <path class="fil0" d="M39.93 0.46c-14.07,2.1 -22.89,8.39 -29.42,16.12 -6.7,7.92 -11.91,20.5 -10.17,34.69 2.84,23.23 24.05,42.96 50.98,39.66 22.91,-2.81 42.86,-24.03 39.55,-50.73 -3.14,-25.33 -26.76,-43.34 -50.93,-39.73l-0.01 0z"/>
   <g>
    <path class="fil1" d="M41.83 42.19c-5.62,2.12 -7.16,7 -10.81,10.8 -3.16,3.28 -8.77,5.6 -9.22,12.27 -0.43,6.43 4.04,11.27 10,11.62 6.91,0.4 9.8,-4.88 17.64,-2.59 5.9,1.73 10.81,5.17 16.38,-0.15 3.96,-3.79 5.26,-10 1.03,-15.14 -2.66,-3.22 -4.84,-3.38 -10.56,-10.88 -2.8,-3.66 -6.97,-8.75 -14.45,-5.93l0 0z"/>
    <path class="fil1" d="M55.26 14.98c-10.99,6.15 -7.67,25.03 2.66,21.53 12.05,-4.09 6.03,-26.4 -2.66,-21.53z"/>
    <path class="fil1" d="M31.36 15.08c-10.67,6.29 -1.47,26.48 6.35,21.11 10.95,-7.53 0.99,-25.44 -6.35,-21.11z"/>
    <path class="fil1" d="M72.87 31.51c-3.71,1.41 -6.77,5.77 -7.42,10.37 -0.74,5.28 2.34,10.48 7.69,8.84 10.46,-3.22 10.63,-23.36 -0.26,-19.21l-0.01 0z"/>
    <path class="fil1" d="M15.69 31.21c-11,2.41 -3.5,21.38 5.44,19.76 4.8,-0.87 5.86,-6.96 4.03,-11.97 -1.21,-3.32 -5.51,-8.66 -9.47,-7.79z"/>
   </g>
  </g>
 </g>
</svg>
