<?xml version="1.0" encoding="UTF-8"?>
<!DOCTYPE svg PUBLIC "-//W3C//DTD SVG 1.0//EN" "http://www.w3.org/TR/2001/REC-SVG-20010904/DTD/svg10.dtd">
<!-- Creator: CorelDRAW 2023 (Not for commercial use) -->
<svg xmlns="http://www.w3.org/2000/svg" xml:space="preserve" width="1.38531in" height="1.38595in" version="1.0" style="shape-rendering:geometricPrecision; text-rendering:geometricPrecision; image-rendering:optimizeQuality; fill-rule:evenodd; clip-rule:evenodd"
viewBox="0 0 1691.56 1692.34"
 xmlns:xlink="http://www.w3.org/1999/xlink"
 xmlns:xodm="http://www.corel.com/coreldraw/odm/2003">
 <defs>
  <style type="text/css">
   <![CDATA[
    .str1 {stroke:#FEFEFE;stroke-width:3.75;stroke-miterlimit:2.61313}
    .str0 {stroke:#FEFEFE;stroke-width:8.5;stroke-miterlimit:2.61313}
    .fil0 {fill:#78909C}
    .fil1 {fill:#FEFEFE}
   ]]>
  </style>
 </defs>
 <g id="Layer_x0020_1">
  <metadata id="CorelCorpID_0Corel-Layer"/>
  <g id="_2142229850736">
   <path class="fil0" d="M740.32 8.5c-261.02,39 -424.28,155.51 -545.53,298.77 -124.26,146.76 -220.76,380.03 -188.51,643.04 52.75,430.78 446.03,796.55 945.31,735.3 424.78,-52 794.55,-445.53 733.3,-940.31 -58.26,-469.78 -496.28,-803.55 -944.31,-736.8l-0.25 0z"/>
   <g>
    <rect class="fil1 str0" x="1006.84" y="733.41" width="355.52" height="579.29"/>
    <path class="fil1" d="M1381.61 1312.7l1.5 -30 -9 4.75c-1,0.5 -1.75,0.75 -3,1l-342.27 1c3.5,-28.5 0,-72.25 -0.25,-101.26 0,-23.75 3.5,-68.75 0,-99.51l138.76 0c5.75,0 17.25,-0.5 22,0 11,1.5 1.25,1.5 7,7 105.26,-3.5 64.76,1 83.25,48l-0.25 38c-18.25,-4.5 -34,-0.5 -55.01,-2 6.75,7.5 2,6.5 13.75,9.25 13.25,3.25 3.25,1 8.5,-2 -1.5,13.5 -3,1.25 -6.25,18.5l6.25 4c5.25,4.75 11.5,25.75 11.75,30.25 0,0.25 -0.25,1.75 -0.25,1.5 0,-0.25 0,1 -0.25,1.25 0,-31.5 3.75,-30 20.25,-30.25 4.5,6 2.25,1.5 4.75,9.75l4.5 25.5c9.5,-5.25 4.25,18.75 4.25,-35.5 9.75,1.25 28.25,-4.75 13.5,10 8.25,-12.5 4.5,-9 23.5,-10 -0.5,1.5 -1,2.75 -1.75,4 -0.5,1.25 -1,2.5 -1.5,3.75l-5.25 9.5c-2.5,7.75 12.25,2 1.75,9.5l16.75 -6.75c-2.25,7.25 -8.5,4.25 -13.5,-10l23.5 0c3,8 5.75,12.5 1.5,22.25 -1.75,-49 15.25,-34.75 -7.5,-59.26 4.75,-32.5 0.75,-17 1,-39.75l12.5 -6 -1 -53.51 -1.75 -352.52c-26.75,-3.5 -207.26,-0.5 -260.02,0 -51.25,0.5 -48,6.5 -70,-16 -30.25,-30.75 -58.76,-58.51 -89.26,-89.26 -17,-17.25 -74,-77.75 -89.51,-86.5 -17.75,10.25 -37.25,34.75 -52.5,50 -17,17.25 -31.5,31.75 -48.75,48.75 -33.25,33 -64.01,65 -97.01,98.01l-308.77 -0.5 -0.5 503.53 -31.5 -0.5 0.5 71.75 1075.57 0.25 0.01 0.01z"/>
    <path class="fil1" d="M413.8 486.39l-80.5 160.26c-8.5,18.5 -19,36.75 -26.5,56.51 77.5,-3.5 195.01,-0.75 279.27,-0.5 53.51,0 41,1.75 69,-26.25 15,-15 176.76,-180.26 189.51,-187.51 14.25,8.75 174.26,170.51 199.76,197.51 15.5,16.25 11.75,16.25 42.25,16.25l296.52 0.25c-12.5,-33.5 -36.5,-76 -53.51,-110.01 -15.75,-31.5 -36.25,-79 -53.76,-106.76l-297.52 0.25c-35.5,0 -25.25,-3 -70.25,-46.75l-45.25 -45.25c-2.25,-2.25 -4.75,-5 -6.75,-6.75 -7.25,-6.25 -2.75,-3.25 -11.25,-8 -17,8.75 -83.25,82.5 -101.26,99.26 -13,12 -38.25,7.5 -60.01,7.5 -90.01,0 -180.01,0.25 -269.77,0l0 -0.01z"/>
    <path class="fil0" d="M742.82 1240.44l204.01 0.5c1.25,-45 4.75,-140.51 -0.75,-180.76 -6.5,-48.25 -48.75,-88 -101.26,-88 -52.75,0 -92.76,38.5 -100.76,85.25 -5.5,32.5 -3,145.51 -1.25,183.26l0 -0.25z"/>
    <path class="fil0" d="M822.58 694.16c-102.51,33.75 -52.25,179.26 46.75,148.76 36.5,-11.25 64.51,-51 50,-99.26 -12,-39.25 -55.26,-63.26 -96.76,-49.75l0 0.25z"/>
    <path class="fil1 str1" d="M1224.36 1179.69c21,1.5 36.75,-2.5 55.01,2l0.25 -38c-18.5,-46.75 22,-51.25 -83.25,-48 -6.25,10.75 -5,27.5 -4.75,43 -0.5,-0.5 -1,-2.5 -1.25,-2 -3.75,7.75 3,-5.5 -13,-10.5 -2,3.5 -6.75,10.25 -7.25,15 -2,17.5 -0.5,-2 2.5,17.25 3.75,24.75 -4.25,24.5 21.5,19.5l6.75 19c17,-6.75 11,-13.75 23.5,-17.75l-0.01 0.5z"/>
    <path class="fil0" d="M1049.59 849.17c0,68.25 -17,62.01 82.75,56.76 12.25,-103.51 -8,-83.25 -35.75,-83.25 -53.51,0 -47,-4.75 -47,26.5l0 -0z"/>
    <path class="fil0" d="M445.05 1043.68c63.51,0 64.26,19.5 57.01,-82.75 -103.51,-10 -83.25,4 -83.25,39.5 0,36.5 -9.25,43.5 26.25,43.5l-0 -0.25z"/>
    <path class="fil0" d="M1049.59 983.43c0,74 -4.5,60.51 40.5,60.26 46.75,-0.25 48.25,13.5 44.25,-67l-1.5 -15.25c-17,-4.75 -35.75,-2.5 -53,-2.75 -31,-0.5 -30.25,-4.75 -30.25,24.5l0 0.25z"/>
    <path class="fil0" d="M420.55 1096.93c-3.25,19.25 -1.75,38.75 -1.75,58.26 0,29 -1.5,25.75 29.5,25.5 17.25,-0.25 38.75,1 53.76,-1.75 9,-93.51 0,-83.5 -29.75,-83.25 -10.75,0.25 -45.5,-1 -51.5,1.5l-0.25 -0.25z"/>
    <path class="fil0" d="M579.31 907.42l63.26 -1.25c3.5,-16 2.25,-46.25 2.25,-64.26 0,-24.75 -0.25,-19 -48.75,-19.5 -35.75,-0.25 -39.75,-13.25 -36.75,67.25 0.75,17.25 2.25,17.5 20,17.5l-0 0.25z"/>
    <path class="fil0" d="M563.56 1178.44c13.25,3.5 38.25,1.75 53,1.75 31.5,0.5 32.25,7.25 26.75,-82.5l-47.25 -2.5c-29.5,0 -36.5,-7 -36.5,22.25 0,17.75 -4.25,47.75 4,60.76l0 0.25z"/>
    <path class="fil0" d="M1193.1 962.42c-4.75,14.5 -2.25,37.75 -2.5,55.01 -0.5,33.5 -5.25,26.5 67.25,26.5 21.25,0 19.25,-1.75 17.25,-60.26l-1.5 -22.25c-18,-3 -66.25,-5.5 -80.75,1l0.25 0z"/>
    <path class="fil0" d="M418.8 842.42c0,73.25 -18.5,69 82.75,63.76l2.25 -57.01c-0.25,-31.75 8,-26.5 -58.76,-26.5 -21.5,0 -26.25,-3.5 -26.25,19.75l0 0z"/>
    <path class="fil0" d="M559.81 980.18c0,74.75 -12.5,63.51 59.76,63.51 29,0 25.5,0.5 25,-29.75 -0.25,-16.75 1.5,-39 -2.25,-52.75l-63.01 -2.25c-20.75,0 -19.5,1.5 -19.5,21.25l0 -0z"/>
    <path class="fil0" d="M1221.11 907.42l52 -2 2.25 -56.51c0,-28.75 2.25,-27 -27.25,-26.5 -71.5,1 -56.26,-10 -57.51,57.01 -0.5,32.5 -1.5,28 30.25,28l0.25 0z"/>
    <path class="fil1" d="M1071.34 1179.19c1.25,-6.5 -1.75,-18.5 1.25,-30.25 0.25,-1 0.75,-2 1,-3 2.25,-7.25 19.75,-13.5 33.25,-1.5l4 5c4,-14.25 8,-12.75 24.25,-9 -1,-19.25 2,-39.5 -4.75,-44.25 -16.25,-3.75 -64.76,-6 -76.5,2.5 -8.5,7.25 -4.75,30 -5,49.5 -0.25,28 -4.75,31.25 22.25,30.75l0.25 0.25z"/>
    <path class="fil1" d="M834.08 761.16c-14.25,0.5 -42,5.25 -22.25,23 2,1.75 32,11.75 45,-4.5 8.5,-8.75 6,-61.26 -1.25,-69.5 -8.5,-9.5 -18.25,-2.5 -20.75,8 -1.75,6.75 -0.5,34 -0.5,43l-0.25 0z"/>
    <path class="fil0" d="M1046.84 1119.68c0,74 -4.5,60.51 40.5,60.26 46.75,-0.25 48.25,13.5 44.25,-67l-1.5 -15.25c-17,-4.75 -35.75,-2.5 -53,-2.75 -31,-0.5 -30.25,-4.75 -30.25,24.5l0 0.25z"/>
    <path class="fil0" d="M1190.1 1098.43c-4.75,14.5 -2.25,37.75 -2.5,55.01 -0.5,33.5 -5.25,26.5 67.25,26.5 21.25,0 19.25,-1.75 17.25,-60.26l-1.5 -22.25c-18,-3 -66.25,-5.5 -80.75,1l0.25 0z"/>
    <rect class="fil1 str0" x="305.8" y="1240.69" width="1079.82" height="72"/>
   </g>
  </g>
 </g>
</svg>
