<?xml version="1.0" encoding="UTF-8"?>
<!DOCTYPE svg PUBLIC "-//W3C//DTD SVG 1.0//EN" "http://www.w3.org/TR/2001/REC-SVG-20010904/DTD/svg10.dtd">
<!-- Creator: CorelDRAW 2023 (Not for commercial use) -->
<svg xmlns="http://www.w3.org/2000/svg" xml:space="preserve" width="1.38511in" height="1.38597in" version="1.0" style="shape-rendering:geometricPrecision; text-rendering:geometricPrecision; image-rendering:optimizeQuality; fill-rule:evenodd; clip-rule:evenodd"
viewBox="0 0 281.15 281.33"
 xmlns:xlink="http://www.w3.org/1999/xlink"
 xmlns:xodm="http://www.corel.com/coreldraw/odm/2003">
 <defs>
  <style type="text/css">
   <![CDATA[
    .str1 {stroke:#FEFEFE;stroke-width:1.41;stroke-miterlimit:2.61313}
    .str0 {stroke:white;stroke-width:0.61;stroke-miterlimit:2.61313}
    .fil3 {fill:none}
    .fil0 {fill:#78909C}
    .fil2 {fill:#FEFEFE}
    .fil1 {fill:white}
   ]]>
  </style>
 </defs>
 <g id="Layer_x0020_1">
  <metadata id="CorelCorpID_0Corel-Layer"/>
  <g id="_2142505938160">
   <path class="fil0" d="M123.07 1.42c-43.38,6.46 -70.54,25.87 -90.68,49.66 -20.63,24.4 -36.71,63.16 -31.35,106.91 8.76,71.61 74.12,132.41 157.12,122.22 70.6,-8.66 132.08,-74.06 121.88,-156.32 -9.67,-78.07 -82.48,-133.58 -156.97,-122.46l-0 0z"/>
   <path class="fil1" d="M114.38 54.44c-0.61,0.37 -9,3.55 -9.34,3.55 -0.58,0.67 -0.7,0.58 -1.5,0.95 -0.58,0.24 -0.92,0.43 -1.38,0.67 -2.24,1.13 -7.29,4.32 -8.42,4.71 -0.4,0.61 -3.12,2.3 -3.95,2.91 -1.5,1.07 -2.51,1.93 -3.92,3.06 -6.64,5.45 -11.63,10.81 -16.72,17.79 -0.61,0.86 -1.93,3.37 -2.69,3.77l-4.81 8.69c-0.52,1.04 -0.86,2.05 -1.56,2.66l-3.7 9.55c-0.18,0.77 -1.47,5.2 -1.96,5.85l-1.93 9.55c-0.15,1.56 -0.43,3.06 -0.61,4.65l-0.34 3.37c-0.15,0.61 0,0.37 -0.31,0.67 -0.52,1.07 -4.75,2.79 -8.88,8.73 -0.43,0.61 -1.75,3.03 -2.11,3.34 -0.52,1.87 -1.59,3.77 -2.2,6.06 -0.61,2.14 -0.95,4.32 -1.07,6.64 -0.34,6.21 0.95,8.63 2.24,13.75l2.3 4.62c0.06,0.03 0.12,0.09 0.15,0.15l0.77 0.89c2.39,3.34 4.32,4.56 5.33,6.15 0.77,0.18 1.47,0.92 2.3,1.47 0.77,0.52 1.53,1.01 2.39,1.5 1.35,0.77 4.19,1.68 5.05,2.27 1.19,0.21 2.2,0.52 3.37,0.77 4.81,0.89 2.48,-0.64 5.45,3.86l6.58 9.37 0.12 0.18c0.86,0.43 4.07,4.29 4.56,5.11 1.01,0.12 0.61,0.28 0.7,0.7l4.56 4.35c0.52,0.15 0.24,-0.73 0.46,0.43l16.38 11.48c0.92,0.06 3.77,1.75 4.84,2.27 1.29,0.61 3.98,1.65 4.9,2.2l4.56 1.56c0.15,0.06 0.52,0.18 0.77,0.31 0.37,0.18 0.34,0.18 0.55,0.37l9.74 2.33 5.48 1.07c1.32,-0.28 3.7,0.12 4.84,0.31 5.63,0.28 10.19,0.15 15.77,-0.21 1.19,-0.15 2.51,-0.46 3.77,-0.31 0.95,-0.7 4.26,-0.95 5.79,-1.29 1.99,-0.46 4.13,-1.13 6.09,-1.47 0.49,-0.4 3.92,-1.38 4.68,-1.38 0.43,-0.43 0,-0.12 0.67,-0.46l4.81 -1.87c0.95,-0.64 3.61,-1.71 4.96,-2.39 1.29,-0.67 3.8,-2.39 4.96,-2.51 0.64,-0.89 4.75,-3.28 5.88,-4.04 1.9,-1.29 3.86,-2.82 5.45,-4.13 3.52,-2.94 7.07,-6.21 9.92,-9.52 2.97,-3.46 5.76,-6.8 8.48,-10.96 3.4,-5.2 1.75,-3.86 5.17,-4.68 3,-0.7 4.84,-1.93 7.16,-2.63l0.83 -0.4 1.38 -1.1c5.48,-3.67 6.89,-7.16 8.14,-7.99 0.09,-0.55 0.12,-0.83 0.61,-1.1 0.46,-1.19 0.95,-1.93 1.53,-3.15 0.52,-1.13 0.73,-2.17 1.41,-2.91 -0.09,-1.29 0.7,-3.09 0.98,-4.5 0.34,-1.65 0.43,-3.31 0.49,-4.99 0.03,-4.78 -0.8,-6.74 -1.56,-10.9l-1.71 -4.32c-0.73,-0.7 -2.63,-4.35 -5.39,-7.23 -3.67,-3.83 -2.88,-0.34 -3.55,-9.18 -0.18,-1.29 -0.52,-2.66 -0.37,-3.98 -0.55,-0.7 -1.22,-5.39 -1.41,-6.64 -0.43,-1.07 -0.95,-3.06 -0.92,-4.23 -0.61,-0.67 -3.06,-8.94 -3.86,-10.65 -0.43,-1.44 -1.81,-3.61 -1.84,-4.81l-6 -10.44c-2.11,-3.37 -3.98,-7.04 -9.67,-5.76l-0.46 0.03c-0.73,0.92 -2.79,1.65 -3.43,4.71 -1.13,5.42 5.08,9.18 7.38,16.38 0.58,0.37 3.98,8.42 3.95,9.89 0.46,0.49 0.4,0.43 0.67,1.26 0.15,0.46 0.24,0.92 0.4,1.38 0.34,1.07 0.55,1.71 0.73,2.85 0.37,0.89 1.01,3.06 0.83,4.29 0.58,0.8 0.89,3.61 1.04,4.56 0.24,1.62 0.4,3.31 0.55,4.87 0.34,3.46 0.31,6.8 0.4,10.29 0.46,0.4 0.77,0.55 1.38,0.89l1.41 1.04c0.4,0.03 0.09,-0.06 0.49,0.12 0.03,0 0.09,0.12 0.09,0.09 0,-0.03 0.03,0.06 0.06,0.12 1.71,0.67 4.47,3.31 5.05,4.9 0.95,0.67 2.94,4.9 2.73,7.23 1.53,2.11 -0.46,9.31 -2.76,12.58l-1.13 1.13c-0.15,0.7 -1.68,2.05 -2.3,2.48 -0.73,0.49 -0.28,0.34 -0.98,0.46 -0.58,0.83 -1.29,1.07 -2.42,1.56 -0.98,0.43 -1.81,0.73 -2.91,0.98 -2.45,0.55 -4.71,0.37 -7.23,0.49 -0.28,1.56 -5.33,9.37 -6.55,11.14 -0.43,0.61 -1.68,2.82 -2.39,3.03 -1.53,3.12 -12.34,13.78 -15.58,15.28 -0.52,0.98 -5.45,3.92 -6.95,4.75 -2.69,1.56 -4.9,2.54 -7.81,4.01 -2.73,0.98 -12.74,5.05 -15.55,4.68 -0.64,0.46 -0.95,0.43 -2.85,0.7 -0.83,0.12 -1.87,0.24 -2.66,0.43 -2.85,0.24 -13.1,1.32 -14.97,0.12l-0.58 0.12 -5.6 -0.64 -4.78 -0.98c-2.54,-0.4 -6.15,-1.56 -8.66,-2.45 -0.46,-0.15 -0.83,-0.28 -1.32,-0.46l-1.26 -0.73c-0.95,0.03 -9.25,-3.67 -9.49,-4.5 -4.47,-1.59 -13.93,-9.67 -17.27,-13.17 -3.18,-3.34 -11.48,-13.01 -12.83,-17.42 -1.38,-1.13 -1.62,-3.64 -3.09,-5.3l-2.3 -0.06 -1.84 0.37c-1.38,0.09 -4.1,0.21 -5.17,-0.67 -6.55,0.21 -18.83,-14.02 -8.76,-27.28 1.84,-2.42 6.15,-5.57 8.76,-5.69 0.55,-0.58 0.8,-0.52 1.65,-0.98 0.12,-1.81 -0.34,-5.27 0.49,-6.58l-0.15 -0.06c0.06,-1.26 0.21,-5.3 0.86,-6.37 -0.21,-0.77 0,-2.73 0.37,-3.46 0.28,-2.11 0.83,-4.32 1.35,-6.28 0.24,-0.95 0.52,-1.93 0.8,-2.82 0.15,-0.49 0.28,-0.89 0.43,-1.38 0.06,-0.15 0.21,-0.55 0.31,-0.77 0.34,-0.64 0.06,-0.21 0.37,-0.55 -0.09,-0.89 0.92,-3.74 1.5,-4.35 0.73,-3.15 7.1,-15.12 8.94,-16.23 0.18,-0.98 1.26,-2.08 1.9,-2.94 3.21,-4.1 3.89,-4.47 6.95,-7.84 1.16,-1.26 9,-8.54 10.78,-8.85 1.22,-1.93 12.98,-7.93 16.26,-8.76 0.46,-0.52 3.49,-1.47 4.35,-1.41l0.73 -0.43c0.21,-0.09 0.37,-0.12 0.58,-0.18 0.37,-0.12 0.83,-0.21 1.19,-0.31 2.57,-0.73 6.09,-1.53 8.66,-1.81 3.89,-1.47 15.25,-0.7 19.99,-0.4 3.64,0.24 4.29,-1.38 5.36,-1.71 0.31,-0.61 0,-0.21 0.55,-0.92 0.43,-0.58 0.21,-0.31 0.67,-0.67 0.09,-1.29 0.77,-2.45 0.49,-4.19 -0.34,-2.24 -1.35,-3.7 -2.91,-4.68 -1.62,-1.01 -5.08,-0.83 -5.85,-1.41l-2.73 -0.03 -7.26 -0.03c-0.95,0.03 -1.13,0.15 -1.96,-0.12l-6.09 0.8c-1.99,0.24 -3.7,0.55 -5.63,0.92 -3.8,0.73 -7.26,1.99 -10.68,2.69l0.06 -0.27z"/>
   <path class="fil0" d="M87.99 180.46c0.58,0.28 1.65,2.51 2.14,3.25 3.86,5.79 7.71,9.83 13.01,14.21l6.18 4.53 10.78 5.3c1.32,0 2.51,0.73 3.89,0.98 3.83,1.84 14.11,2.6 19.2,2.39 6.52,-0.28 12.77,-1.62 18.15,-3.7 10.93,-4.19 17.51,-9.46 24.83,-17.42 0.06,-0.06 0.31,-0.31 0.37,-0.37 0.31,-0.28 0.18,-0.18 0.37,-0.28 0.86,-1.56 2.36,-3.18 3.43,-4.78 0.64,-0.98 2.48,-4.23 3.28,-4.81 0.31,-2.3 2.66,-3.77 2.42,-7.32 -0.21,-2.88 -2.02,-4.84 -4.16,-5.69 -7.13,-2.82 -8.94,7.1 -10.56,7.99 -1.75,4.19 -10.93,13.72 -14.94,15.37 -0.09,0.12 0,0.09 -0.43,0.43l-4.13 2.33c-1.01,0.55 -3.92,2.05 -5.11,2.02 -0.4,0.37 -0.03,0.12 -0.7,0.46 -2.02,1.01 -8.39,2.17 -10.35,2.3 -2.63,0.58 -8.39,0.24 -11.27,-0.09 -1.81,-0.21 -8.33,-1.47 -9.09,-2.24 -2.57,-0.61 -10.04,-4.04 -11.05,-5.69 -1.68,-0.31 -6.64,-4.99 -7.78,-6.15 -0.92,-0.95 -5.79,-6.52 -5.97,-7.84 -0.83,-0.67 -1.59,-2.2 -2.14,-3.21 -0.58,-1.07 -1.13,-2.39 -1.81,-3.37 -3.37,-4.84 -11.39,-2.73 -11.42,3.92 0,3.21 2.02,4.99 2.91,7.53l-0.03 -0.03z"/>
   <path class="fil0" d="M100.14 128.01c-0.06,0.03 -0.12,0.09 -0.18,0.12l-0.55 0.31c-6.7,3.28 -4.26,3.28 -7.16,5.66 -0.09,0.77 -0.95,2.39 -1.26,3.55 -1.62,6.15 1.53,9.89 1.78,11.11 0.06,0.03 0.15,0.03 0.18,0.12 0.03,0.15 0.67,0.21 1.26,1.62l0.28 0.15c1.78,1.13 2.51,2.73 6.95,3.49 4.44,0.4 7.29,-0.7 9.89,-2.88 1.01,-0.86 2.08,-2.11 2.91,-3.58 0.64,-1.13 1.35,-4.13 1.78,-4.78l0.03 -3.49c-0.4,-0.52 -1.1,-3.67 -1.71,-4.81 -0.73,-1.35 -1.71,-2.69 -2.69,-3.52 -2.36,-2.02 -5.17,-3.31 -9.46,-3.25l-2.05 0.15 0.03 0z"/>
   <path class="fil1 str0" d="M193.86 86.44c-0.98,0.49 -1.5,1.35 -1.9,2.17l-3.55 3.15c-0.8,0.34 -1.16,0.49 -1.62,1.22 -0.89,0.15 -1.47,0.7 -2.36,1.19 -0.55,0.31 -1.9,0.77 -2.11,1.16 -2.2,0.58 -3.86,1.35 -6.28,1.84 -2.51,0.49 -4.47,0.52 -7.19,0.49 -0.92,-0.06 -0.67,-0.12 -1.41,0.12 -0.34,-0.21 0.12,-0.03 -0.67,-0.31l-2.36 -0.46c-4.44,-0.98 -5.24,-1.96 -8.51,-3.15 -0.83,-1.26 -10.41,-5.11 -7.96,-12.12 0.83,-2.39 3.09,-4.56 6.43,-4.35 3.77,0.24 4.71,3.46 6.7,3.92 0.58,0.77 1.32,1.13 2.24,1.56 2.11,0.98 7.1,2.45 8.94,1.32 3,0.49 7.65,-2.39 9.18,-3.7 1.44,-1.26 5.2,-5.39 5.2,-7.99 0.43,-0.43 0.73,-1.38 0.95,-2.51 -8.97,-6.09 -19.1,-10.47 -29.94,-12.68 -0.03,1.22 -0.49,2.17 -0.55,3.18 -0.49,0.37 -0.24,0.09 -0.67,0.67 -0.55,0.7 -0.24,0.31 -0.55,0.92 -1.07,0.34 -1.71,1.96 -5.36,1.71 -4.71,-0.31 -16.1,-1.04 -19.99,0.4 -2.57,0.28 -6.06,1.07 -8.66,1.81 -0.37,0.12 -0.86,0.21 -1.19,0.34 -0.21,0.06 -0.37,0.09 -0.58,0.18l-0.73 0.43c-0.86,-0.06 -3.89,0.92 -4.35,1.41 -3.28,0.86 -15.06,6.83 -16.26,8.76 -1.81,0.28 -9.61,7.59 -10.78,8.85 -3.06,3.34 -3.74,3.74 -6.95,7.84 -0.64,0.83 -1.71,1.96 -1.9,2.94 -1.84,1.1 -8.2,13.07 -8.94,16.23 -0.58,0.61 -1.59,3.43 -1.5,4.35 -0.31,0.34 -0.03,-0.09 -0.37,0.55 -0.12,0.21 -0.28,0.64 -0.31,0.77 -0.18,0.52 -0.31,0.92 -0.43,1.38 -0.28,0.92 -0.55,1.87 -0.8,2.82 -0.49,1.96 -1.07,4.13 -1.35,6.28 -0.37,0.73 -0.61,2.69 -0.37,3.46 -0.64,1.07 -0.83,5.14 -0.86,6.37l0.15 0.06c-0.83,1.32 -0.37,4.78 -0.49,6.58 -0.83,0.46 -1.1,0.4 -1.65,0.98 -1.71,0.09 -4.16,1.47 -6.15,3.12 0.43,10.53 2.6,20.57 6.18,29.88 1.07,0.86 3.77,0.73 5.14,0.64l1.84 -0.37 2.3 0.06c1.44,1.65 1.71,4.16 3.09,5.3 1.35,4.41 9.64,14.05 12.83,17.42 3.34,3.52 12.8,11.57 17.27,13.17 0.24,0.83 8.57,4.5 9.49,4.5l1.26 0.73c0.49,0.21 0.86,0.31 1.32,0.46 2.51,0.89 6.12,2.05 8.66,2.45l4.78 0.98 5.6 0.64 0.58 -0.12c1.87,1.19 12.15,0.12 14.97,-0.12 0.8,-0.18 1.81,-0.31 2.66,-0.43 1.87,-0.28 2.2,-0.28 2.85,-0.7 2.82,0.37 12.83,-3.7 15.55,-4.68 2.88,-1.47 5.11,-2.45 7.81,-4.01 1.47,-0.86 6.43,-3.8 6.95,-4.75 3.25,-1.5 14.05,-12.15 15.58,-15.28 0.7,-0.21 1.96,-2.42 2.39,-3.03 1.22,-1.78 6.28,-9.58 6.55,-11.14 2.51,-0.12 4.78,0.06 7.23,-0.49 0.52,-0.12 0.98,-0.24 1.41,-0.4 3.55,-8.91 5.76,-18.58 6.4,-28.69 -1.01,-1.01 -2.17,-1.9 -3.09,-2.24 -0.03,-0.03 -0.06,-0.15 -0.06,-0.12 0,0.03 -0.06,-0.09 -0.09,-0.09 -0.4,-0.15 -0.09,-0.09 -0.49,-0.12l-1.41 -1.04c-0.61,-0.34 -0.92,-0.49 -1.38,-0.89 -0.06,-3.49 -0.03,-6.83 -0.4,-10.29 -0.15,-1.56 -0.34,-3.25 -0.55,-4.87 -0.15,-0.95 -0.46,-3.77 -1.04,-4.56 0.15,-1.22 -0.46,-3.37 -0.83,-4.29 -0.18,-1.1 -0.4,-1.78 -0.73,-2.85 -0.15,-0.46 -0.24,-0.92 -0.4,-1.38 -0.28,-0.83 -0.18,-0.77 -0.67,-1.26 0.03,-1.47 -3.37,-9.52 -3.95,-9.89 -2.3,-7.19 -8.54,-10.96 -7.38,-16.38 0.46,-2.17 1.62,-3.15 2.51,-3.89 -2.6,-3.25 -5.42,-6.28 -8.42,-9.12 -0.52,1.19 -1.13,2.73 -1.47,3.31 -0.77,1.38 -2.6,3.7 -2.82,4.62l-0.21 0.06zm-11.57 41.76c0.37,0.34 3.7,1.32 5.69,3.52l1.47 1.71c1.1,3 2.27,3.95 2.11,8.14 -0.12,4.04 -1.5,5.05 -2.6,7.78 -0.43,0.12 -0.52,0.4 -0.92,0.86 -0.18,0.21 -0.31,0.34 -0.46,0.55 -0.24,0.34 -0.15,0.18 -0.28,0.4 -1.1,0.46 -2.05,1.41 -3.52,2.05 -6.21,2.69 -9.67,-0.34 -12.34,-1.26 -0.18,-0.43 -2.3,-2.51 -2.69,-2.73 -0.61,-1.56 -1.5,-2.51 -2.08,-4.59 -0.58,-2.17 -0.52,-3.58 -0.34,-5.91 1.96,-6.4 3.61,-8.45 9.95,-10.72 2.57,-0.31 3.46,-0.21 5.97,0.15l0.03 0.03zm-80.09 -0.37c4.29,-0.06 7.1,1.22 9.46,3.25 0.98,0.83 1.96,2.17 2.69,3.52 0.61,1.13 1.32,4.29 1.71,4.81l-0.03 3.49c-0.46,0.64 -1.16,3.64 -1.78,4.78 -0.83,1.47 -1.9,2.73 -2.91,3.58 -2.6,2.17 -5.45,3.31 -9.89,2.88 -4.44,-0.77 -5.17,-2.33 -6.95,-3.49l-0.28 -0.15c-0.58,-1.41 -1.22,-1.44 -1.26,-1.62 -0.03,-0.09 -0.12,-0.09 -0.18,-0.12 -0.24,-1.26 -3.37,-4.96 -1.78,-11.11 0.31,-1.16 1.16,-2.79 1.26,-3.55 2.91,-2.39 0.46,-2.39 7.16,-5.66l0.55 -0.31c0.03,-0.03 0.12,-0.06 0.18,-0.12l2.05 -0.15 -0.03 0zm-1.74 47.76c0.18,1.35 5.08,6.92 5.97,7.87 1.1,1.16 6.09,5.88 7.78,6.15 1.04,1.62 8.48,5.08 11.05,5.69 0.8,0.8 7.32,2.02 9.09,2.24 2.88,0.37 8.66,0.67 11.27,0.09 1.96,-0.12 8.33,-1.29 10.35,-2.3 0.67,-0.34 0.31,-0.12 0.7,-0.46 1.19,0.03 4.1,-1.47 5.11,-2.02l4.13 -2.33c0.43,-0.34 0.34,-0.31 0.43,-0.43 4.01,-1.65 13.2,-11.17 14.94,-15.37 1.62,-0.89 3.43,-10.81 10.56,-7.99 2.14,0.86 3.98,2.79 4.16,5.69 0.24,3.58 -2.11,5.02 -2.42,7.32 -0.8,0.58 -2.63,3.83 -3.28,4.81 -1.07,1.59 -2.57,3.21 -3.43,4.78 -0.15,0.09 -0.06,0 -0.37,0.28 -0.06,0.06 -0.31,0.31 -0.37,0.37 -7.32,7.96 -13.93,13.26 -24.83,17.42 -5.42,2.08 -11.66,3.43 -18.19,3.7 -5.05,0.21 -15.37,-0.55 -19.2,-2.39 -1.38,-0.28 -2.57,-1.01 -3.89,-0.98l-10.78 -5.3 -6.18 -4.53c-5.3,-4.38 -9.15,-8.42 -13.01,-14.21 -0.49,-0.73 -1.59,-2.97 -2.14,-3.25 -0.86,-2.54 -2.91,-4.32 -2.91,-7.53 0.03,-6.64 8.05,-8.73 11.42,-3.92 0.67,0.98 1.22,2.3 1.81,3.37 0.55,1.01 1.32,2.54 2.14,3.21l0.06 -0z"/>
   <path class="fil1 str0" d="M226.53 151.74c-0.64,10.1 -2.85,19.75 -6.4,28.69 0.49,-0.15 0.98,-0.37 1.47,-0.58 1.13,-0.49 1.84,-0.77 2.42,-1.56 0.7,-0.12 0.24,0.03 0.98,-0.46 0.61,-0.43 2.14,-1.78 2.3,-2.48l1.13 -1.13c2.33,-3.28 4.32,-10.47 2.76,-12.58 0.21,-2.33 -1.78,-6.52 -2.73,-7.23 -0.28,-0.77 -1.04,-1.78 -1.96,-2.66l0.03 0z"/>
   <path class="fil1 str0" d="M62.09 179.6c-3.58,-9.28 -5.76,-19.35 -6.18,-29.88 -1.04,0.86 -1.96,1.75 -2.57,2.57 -10.07,13.23 2.2,27.49 8.76,27.28 0,0 0,0 0.03,0l-0.03 0.03z"/>
   <ellipse class="fil2 str1" cx="160.18" cy="111.76" rx="51.77" ry="48.74"/>
   <path class="fil0" d="M176.35 128.04c-6.31,2.27 -7.96,4.29 -9.95,10.72 -0.15,2.33 -0.24,3.74 0.34,5.91 0.55,2.08 1.44,3.03 2.08,4.59 0.4,0.21 2.51,2.3 2.69,2.73 2.66,0.95 6.12,3.98 12.34,1.26 1.47,-0.64 2.42,-1.59 3.52,-2.05 0.12,-0.24 0,-0.06 0.28,-0.4 0.15,-0.21 0.28,-0.34 0.46,-0.55 0.4,-0.46 0.49,-0.73 0.92,-0.86 1.13,-2.73 2.48,-3.74 2.6,-7.78 0.15,-4.23 -1.04,-5.14 -2.11,-8.17l-1.47 -1.71c-1.99,-2.2 -5.33,-3.21 -5.69,-3.52 -2.51,-0.37 -3.4,-0.46 -5.97,-0.15l-0.03 0z"/>
   <g>
    <path class="fil0" d="M139.94 99.42c-25.23,4.87 -20.76,-17.24 -10.53,-21.16 1.26,-4.87 5.6,-10.38 15.22,-15.98 15.55,-9.06 19.87,0.89 18.74,10.75 3.52,2.76 5.66,7.93 3.49,16.17 -0.46,1.71 -3.25,6.37 -5.05,5.42 7.16,-2.91 4.9,-11.45 0.67,-17.18 -2.33,8.17 -8.14,14.08 -13.72,5.11 -5.76,-9.25 4.65,-14.18 12.19,-10.93 0.46,-16.35 -19.66,-4.56 -25.11,6.77 2.2,0.92 4.41,2.85 6.52,6.03 4.96,7.56 3,10.56 -0.73,10.38 0.18,0.24 0.31,0.55 0.4,0.86 0.46,1.62 -0.46,3.31 -2.08,3.77zm-2.33 -5.73c-3.28,-1.56 -6.67,-4.62 -8.02,-8.66 -4.5,3.61 -6.18,11.48 8.02,8.66zm22.96 -18.52c-4.56,-4.68 -10.04,-5.48 -9.18,5.79 2.17,2.17 7.16,2.66 8.3,-1.68 0.4,-1.5 0.67,-2.85 0.89,-4.1zm-26.08 8.17c-0.06,2.73 1.19,5.11 4.41,6.7 0,-0.12 -0.03,-0.24 -0.03,-0.4 -0.64,-4.23 -2.39,-6 -4.35,-6.31l-0.03 0z"/>
   </g>
   <path class="fil3" d="M139.09 96.48c-19.84,5.76 -19.72,-21.86 -2.08,-13.35 7.23,3.46 5.27,16.47 -2.51,5.63 -10.13,-14.18 23.45,-39.16 26.76,-21.43 4.38,23.61 -11.08,16.13 -11.36,14.02 -1.44,-11.42 9.55,-15.09 14.63,-2.82 2.11,5.08 3.61,12 -1.96,15.8 -0.34,0.24 -0.43,0.24 -0.83,0.21"/>
   <g>
    <path class="fil0" d="M119.92 83.74c-25.23,4.87 -20.76,-17.24 -10.53,-21.16 1.26,-4.87 5.6,-10.38 15.22,-15.98 15.55,-9.06 19.87,0.89 18.74,10.75 3.52,2.76 5.66,7.93 3.49,16.17 -0.46,1.71 -3.25,6.37 -5.05,5.42 7.16,-2.91 4.9,-11.45 0.67,-17.18 -2.33,8.17 -8.14,14.08 -13.72,5.11 -5.76,-9.25 4.65,-14.18 12.19,-10.93 0.46,-16.35 -19.66,-4.56 -25.11,6.77 2.2,0.92 4.41,2.85 6.52,6.03 4.96,7.56 3,10.56 -0.73,10.38 0.18,0.24 0.31,0.55 0.4,0.86 0.46,1.62 -0.46,3.31 -2.08,3.77zm-2.33 -5.73c-3.28,-1.56 -6.67,-4.62 -8.02,-8.66 -4.5,3.61 -6.18,11.48 8.02,8.66zm22.96 -18.52c-4.56,-4.68 -10.04,-5.48 -9.18,5.79 2.17,2.17 7.16,2.66 8.3,-1.68 0.4,-1.5 0.67,-2.85 0.89,-4.1zm-26.08 8.17c-0.06,2.73 1.19,5.11 4.41,6.7 0,-0.12 -0.03,-0.24 -0.03,-0.4 -0.64,-4.23 -2.39,-6 -4.35,-6.31l-0.03 0z"/>
   </g>
   <path class="fil3" d="M119.06 80.8c-19.84,5.76 -19.72,-21.86 -2.08,-13.35 7.23,3.46 5.27,16.47 -2.51,5.63 -10.13,-14.18 23.45,-39.16 26.76,-21.43 4.38,23.61 -11.08,16.13 -11.36,14.02 -1.44,-11.42 9.55,-15.09 14.63,-2.82 2.11,5.08 3.61,12 -1.96,15.8 -0.34,0.24 -0.43,0.24 -0.83,0.21"/>
   <g>
    <path class="fil0" d="M168.88 94.89c-25.23,4.87 -20.76,-17.24 -10.53,-21.16 1.26,-4.87 5.6,-10.38 15.22,-15.98 15.55,-9.06 19.87,0.89 18.74,10.75 3.52,2.76 5.66,7.93 3.49,16.17 -0.46,1.71 -3.25,6.37 -5.05,5.42 7.16,-2.91 4.9,-11.45 0.67,-17.18 -2.33,8.17 -8.14,14.08 -13.72,5.11 -5.76,-9.25 4.65,-14.18 12.19,-10.93 0.46,-16.35 -19.66,-4.56 -25.11,6.77 2.2,0.92 4.41,2.85 6.52,6.03 4.96,7.56 3,10.56 -0.73,10.38 0.18,0.24 0.31,0.55 0.4,0.86 0.46,1.62 -0.46,3.31 -2.08,3.77zm-2.33 -5.73c-3.28,-1.56 -6.67,-4.62 -8.02,-8.66 -4.5,3.61 -6.18,11.48 8.02,8.66zm22.96 -18.52c-4.56,-4.68 -10.04,-5.48 -9.18,5.79 2.17,2.17 7.16,2.66 8.3,-1.68 0.4,-1.5 0.67,-2.85 0.89,-4.1zm-26.08 8.17c-0.06,2.73 1.19,5.11 4.41,6.7 0,-0.12 -0.03,-0.24 -0.03,-0.4 -0.64,-4.23 -2.39,-6 -4.35,-6.31l-0.03 0z"/>
   </g>
   <path class="fil3" d="M168.02 91.95c-19.84,5.76 -19.72,-21.86 -2.08,-13.35 7.23,3.46 5.27,16.47 -2.51,5.63 -10.13,-14.18 23.45,-39.16 26.76,-21.43 4.38,23.61 -11.08,16.13 -11.36,14.02 -1.44,-11.42 9.55,-15.09 14.63,-2.82 2.11,5.08 3.61,12 -1.96,15.8 -0.34,0.24 -0.43,0.24 -0.83,0.21"/>
  </g>
 </g>
</svg>
