<?xml version="1.0" encoding="UTF-8"?>
<!DOCTYPE svg PUBLIC "-//W3C//DTD SVG 1.0//EN" "http://www.w3.org/TR/2001/REC-SVG-20010904/DTD/svg10.dtd">
<!-- Creator: CorelDRAW 2023 (Not for commercial use) -->
<svg xmlns="http://www.w3.org/2000/svg" xml:space="preserve" width="1.3851in" height="1.38593in" version="1.0" style="shape-rendering:geometricPrecision; text-rendering:geometricPrecision; image-rendering:optimizeQuality; fill-rule:evenodd; clip-rule:evenodd"
viewBox="0 0 146.77 146.86"
 xmlns:xlink="http://www.w3.org/1999/xlink"
 xmlns:xodm="http://www.corel.com/coreldraw/odm/2003">
 <defs>
  <style type="text/css">
   <![CDATA[
    .fil0 {fill:#F74A55}
    .fil2 {fill:#FEFEFE}
    .fil1 {fill:#F74A55;fill-rule:nonzero}
   ]]>
  </style>
 </defs>
 <g id="Layer_x0020_1">
  <metadata id="CorelCorpID_0Corel-Layer"/>
  <g id="_2142016079392">
   <path class="fil0" d="M64.25 0.74c-22.65,3.37 -36.83,13.5 -47.33,25.93 -10.77,12.74 -19.16,32.97 -16.37,55.81 4.57,37.38 38.7,69.12 82.02,63.8 36.85,-4.52 68.95,-38.66 63.62,-81.61 -5.05,-40.76 -43.06,-69.73 -81.94,-63.93l-0 -0z"/>
   <g>
    <path class="fil0" d="M68.86 16.63c-29.97,2.57 -54.86,28.22 -52.3,61.38 2.3,29.79 28.57,54.92 61.51,52.22 17.33,-1.42 30.15,-10.22 37.86,-18.94 8.45,-9.55 15.86,-24.47 14.24,-42.48 -1.61,-17.92 -9.97,-29.73 -18.94,-37.93 -9.3,-8.5 -24.66,-15.77 -42.37,-14.25l-0 -0z"/>
    <path id="_1" class="fil1" d="M18.43 77.87l-3.75 0.29 0 0 -0.16 -3.18 -0 -3.14 0.15 -3.09 0.31 -3.03 0.46 -2.98 0.6 -2.92 0.74 -2.86 0.88 -2.79 1.01 -2.72 1.14 -2.65 1.26 -2.57 1.38 -2.5 1.5 -2.41 1.61 -2.33 1.72 -2.24 1.82 -2.15 1.92 -2.06 2.01 -1.96 2.1 -1.87 2.19 -1.76 2.27 -1.66 2.34 -1.55 2.42 -1.44 2.49 -1.33 2.55 -1.21 2.61 -1.09 2.67 -0.97 2.72 -0.85 2.77 -0.72 2.81 -0.59 2.85 -0.46 2.89 -0.32 0.32 3.75 -2.7 0.3 -2.67 0.43 -2.63 0.55 -2.59 0.67 -2.55 0.79 -2.5 0.91 -2.45 1.02 -2.39 1.14 -2.33 1.25 -2.27 1.35 -2.2 1.45 -2.13 1.55 -2.05 1.65 -1.97 1.75 -1.88 1.84 -1.79 1.93 -1.7 2.02 -1.61 2.1 -1.51 2.18 -1.4 2.26 -1.29 2.33 -1.18 2.41 -1.07 2.48 -0.95 2.54 -0.82 2.61 -0.7 2.67 -0.56 2.73 -0.43 2.79 -0.29 2.84 -0.14 2.89 0 2.94 0.16 2.99 0 0 -0 -0zm59.48 50.49l0.31 3.75 0 0 -3.16 0.18 -3.12 0.02 -3.08 -0.15 -3.03 -0.3 -2.98 -0.45 -2.92 -0.6 -2.86 -0.74 -2.8 -0.88 -2.73 -1.01 -2.66 -1.14 -2.59 -1.27 -2.51 -1.39 -2.43 -1.5 -2.35 -1.61 -2.26 -1.72 -2.17 -1.82 -2.08 -1.92 -1.98 -2.01 -1.88 -2.1 -1.78 -2.19 -1.67 -2.27 -1.56 -2.35 -1.45 -2.42 -1.34 -2.49 -1.22 -2.55 -1.1 -2.61 -0.97 -2.66 -0.84 -2.71 -0.71 -2.76 -0.58 -2.8 -0.44 -2.84 -0.3 -2.87 3.75 -0.29 0.28 2.68 0.41 2.65 0.54 2.62 0.66 2.58 0.79 2.54 0.91 2.49 1.03 2.44 1.14 2.39 1.25 2.33 1.36 2.27 1.47 2.2 1.57 2.13 1.67 2.05 1.76 1.97 1.86 1.89 1.95 1.8 2.03 1.71 2.12 1.61 2.2 1.51 2.27 1.41 2.35 1.3 2.42 1.18 2.49 1.07 2.55 0.95 2.62 0.82 2.67 0.69 2.73 0.56 2.78 0.42 2.83 0.28 2.88 0.14 2.93 -0.01 2.97 -0.17 0 0 0 0zm36.61 -18.31l2.82 2.49 0 0 -0.76 0.85 -0.79 0.84 -0.82 0.84 -0.85 0.84 -0.89 0.83 -0.92 0.83 -0.94 0.82 -0.98 0.81 -1.01 0.8 -1.04 0.79 -1.07 0.77 -1.09 0.76 -1.12 0.74 -1.15 0.72 -1.18 0.7 -1.21 0.68 -1.24 0.66 -1.27 0.64 -1.3 0.61 -1.33 0.59 -1.36 0.56 -1.39 0.53 -1.41 0.5 -1.44 0.47 -1.47 0.43 -1.5 0.4 -1.53 0.36 -1.55 0.32 -1.58 0.29 -1.61 0.24 -1.64 0.2 -1.66 0.16 -0.31 -3.75 1.56 -0.15 1.53 -0.19 1.51 -0.23 1.48 -0.27 1.45 -0.3 1.43 -0.34 1.4 -0.37 1.37 -0.4 1.35 -0.44 1.32 -0.47 1.3 -0.49 1.27 -0.52 1.24 -0.55 1.22 -0.57 1.19 -0.6 1.16 -0.62 1.14 -0.64 1.11 -0.66 1.08 -0.68 1.05 -0.69 1.02 -0.71 1 -0.72 0.97 -0.74 0.94 -0.75 0.91 -0.76 0.89 -0.77 0.86 -0.77 0.83 -0.78 0.8 -0.78 0.77 -0.79 0.74 -0.79 0.71 -0.79 0 0 0.01 -0zm13.77 -41.06l3.75 -0.34 0 0 0.13 1.74 0.08 1.72 0.02 1.7 -0.03 1.68 -0.07 1.66 -0.12 1.64 -0.17 1.62 -0.21 1.59 -0.25 1.57 -0.3 1.55 -0.33 1.53 -0.37 1.5 -0.41 1.48 -0.44 1.45 -0.48 1.43 -0.51 1.4 -0.54 1.38 -0.57 1.35 -0.59 1.32 -0.62 1.3 -0.65 1.27 -0.67 1.24 -0.69 1.21 -0.71 1.18 -0.73 1.16 -0.74 1.13 -0.76 1.09 -0.77 1.07 -0.79 1.04 -0.8 1 -0.81 0.97 -0.81 0.94 -2.82 -2.49 0.76 -0.88 0.76 -0.91 0.75 -0.94 0.74 -0.97 0.73 -1 0.71 -1.03 0.7 -1.06 0.68 -1.08 0.67 -1.11 0.65 -1.14 0.63 -1.16 0.6 -1.19 0.58 -1.21 0.56 -1.24 0.53 -1.26 0.5 -1.29 0.48 -1.31 0.45 -1.34 0.41 -1.36 0.38 -1.38 0.35 -1.4 0.31 -1.42 0.28 -1.45 0.24 -1.47 0.2 -1.49 0.16 -1.51 0.11 -1.53 0.07 -1.55 0.02 -1.57 -0.02 -1.59 -0.07 -1.6 -0.12 -1.62 0 0 -0 -0.01zm-18.34 -36.71l2.54 -2.78 0 0 0.86 0.8 0.86 0.82 0.85 0.85 0.85 0.87 0.84 0.89 0.83 0.92 0.82 0.94 0.81 0.97 0.8 1 0.78 1.02 0.77 1.05 0.75 1.08 0.73 1.11 0.71 1.13 0.69 1.16 0.67 1.19 0.65 1.22 0.63 1.25 0.6 1.28 0.58 1.31 0.55 1.34 0.52 1.37 0.49 1.41 0.46 1.44 0.43 1.47 0.4 1.51 0.36 1.54 0.33 1.57 0.29 1.61 0.25 1.64 0.22 1.67 0.18 1.71 -3.75 0.34 -0.16 -1.61 -0.2 -1.58 -0.24 -1.54 -0.27 -1.51 -0.31 -1.48 -0.34 -1.44 -0.37 -1.41 -0.4 -1.38 -0.43 -1.35 -0.46 -1.31 -0.49 -1.28 -0.51 -1.25 -0.54 -1.22 -0.56 -1.2 -0.58 -1.17 -0.61 -1.14 -0.63 -1.11 -0.65 -1.08 -0.67 -1.06 -0.69 -1.03 -0.7 -1.01 -0.72 -0.98 -0.73 -0.96 -0.75 -0.93 -0.76 -0.91 -0.77 -0.89 -0.78 -0.86 -0.79 -0.84 -0.8 -0.82 -0.81 -0.8 -0.81 -0.78 -0.82 -0.76 0 0 -0 0zm-40.94 -13.77l-0.32 -3.75 0 0 1.71 -0.12 1.69 -0.07 1.68 -0.02 1.66 0.03 1.65 0.08 1.63 0.12 1.61 0.17 1.59 0.21 1.57 0.25 1.55 0.29 1.53 0.33 1.51 0.37 1.48 0.41 1.46 0.44 1.43 0.47 1.41 0.5 1.39 0.54 1.36 0.56 1.33 0.59 1.3 0.62 1.28 0.64 1.25 0.67 1.22 0.69 1.19 0.71 1.16 0.73 1.12 0.74 1.09 0.76 1.06 0.78 1.03 0.79 0.99 0.8 0.96 0.81 0.92 0.82 -2.54 2.78 -0.85 -0.76 -0.89 -0.75 -0.92 -0.75 -0.96 -0.74 -0.99 -0.72 -1.02 -0.71 -1.05 -0.7 -1.08 -0.68 -1.11 -0.66 -1.14 -0.64 -1.17 -0.62 -1.19 -0.6 -1.22 -0.58 -1.25 -0.56 -1.27 -0.53 -1.3 -0.5 -1.32 -0.47 -1.34 -0.44 -1.37 -0.41 -1.39 -0.38 -1.41 -0.35 -1.43 -0.31 -1.45 -0.28 -1.47 -0.24 -1.49 -0.2 -1.5 -0.16 -1.52 -0.12 -1.54 -0.07 -1.55 -0.03 -1.57 0.02 -1.58 0.06 -1.6 0.11 0 0 -0 0z"/>
   </g>
   <path class="fil2" d="M58.54 31.89l-0.03 26.64 -29.59 0.07 -0.01 29.64 29.58 0.01 0.05 29.63 29.65 0 0.04 -29.59 29.6 -0.05 0.01 -29.65 -29.59 -0.01c-0.32,-8.46 0.01,-20.63 -0.06,-29.62l-29.64 0 -0.02 2.93 0 -0z"/>
  </g>
 </g>
</svg>
