<?xml version="1.0" encoding="UTF-8"?>
<!DOCTYPE svg PUBLIC "-//W3C//DTD SVG 1.0//EN" "http://www.w3.org/TR/2001/REC-SVG-20010904/DTD/svg10.dtd">
<!-- Creator: CorelDRAW 2023 (Not for commercial use) -->
<svg xmlns="http://www.w3.org/2000/svg" xml:space="preserve" width="1.3851in" height="1.38594in" version="1.0" style="shape-rendering:geometricPrecision; text-rendering:geometricPrecision; image-rendering:optimizeQuality; fill-rule:evenodd; clip-rule:evenodd"
viewBox="0 0 375.18 375.41"
 xmlns:xlink="http://www.w3.org/1999/xlink"
 xmlns:xodm="http://www.corel.com/coreldraw/odm/2003">
 <defs>
  <style type="text/css">
   <![CDATA[
    .fil0 {fill:#F74A55}
    .fil1 {fill:#FEFEFE}
   ]]>
  </style>
 </defs>
 <g id="Layer_x0020_1">
  <metadata id="CorelCorpID_0Corel-Layer"/>
  <g id="_2178031294512">
   <path class="fil0" d="M164.23 1.89c-57.89,8.63 -94.14,34.52 -121,66.28 -27.54,32.57 -48.98,84.28 -41.84,142.65 11.67,95.54 98.92,176.68 209.68,163.09 94.2,-11.56 176.24,-98.84 162.64,-208.61 -12.91,-104.19 -110.07,-178.24 -209.47,-163.42z"/>
   <g>
    <path class="fil1" d="M178.05 309.16c7.92,-4.81 16.57,-14.77 23.78,-21.67 12.67,-12.13 14.36,-8.42 12.76,-32.93 -40.09,0.91 -49.65,-3.03 -49.67,-43.62 -0.01,-41.99 10.06,-42.53 50.04,-42.53 -0.21,-39.83 1.38,-49.88 42.78,-49.88 41.36,0 43.34,10.07 43.34,49.82 9.06,-0.13 15.09,2.43 18.03,-23.54 3.35,-29.61 -14.23,-58.01 -40.05,-70.63 -18.42,-9 -40.84,-11.05 -60.1,-2.4 -24.56,11.03 -31.33,26.72 -41.06,32.84 -21.93,-20.42 -47.29,-50.79 -95.39,-32.88 -34.3,12.77 -51.6,47.64 -35.27,92.1 6.67,18.14 30.25,50.64 41.46,60.86l18.05 17.83c6.4,5.87 12.75,9.9 18.61,15.58l17.43 16.59c13.91,11.64 21.46,21.28 35.25,34.46l-0 0z"/>
    <path class="fil1" d="M232.8 144.12l-0.16 41.93 -41.8 0.02c-8.93,3.59 -8.57,5.75 -8.6,17.17 -0.02,6.42 -1.02,21.96 1.28,27.02 5.04,11.05 36.17,5.11 48.98,7.07 0,14.02 -1.34,34.41 1.88,46.23 11.68,3.93 34.85,3.71 47.07,0.42 3.14,-11.18 2.03,-32.25 1.88,-45.81 15.71,-3.93 34.87,2.64 48.65,-4.02 2.91,-10.82 2.7,-33.97 0.38,-45.12 -11.85,-5.11 -33.22,-3.11 -48.82,-2.83 -0.21,-15.8 1.37,-35.04 -2.09,-48.22 -9.31,-2.53 -16.17,-1.97 -27.58,-2.04 -12.85,-0.08 -16.9,-1.63 -21.08,8.18l0 0z"/>
    <path class="fil1" d="M190.84 186.07l41.8 -0.02 0.16 -41.93 -1.57 40.33 -35.96 0.11c-5.19,0.82 -3.17,0.93 -4.42,1.51l0 -0z"/>
   </g>
  </g>
 </g>
</svg>
