<?xml version="1.0" encoding="UTF-8"?>
<!DOCTYPE svg PUBLIC "-//W3C//DTD SVG 1.0//EN" "http://www.w3.org/TR/2001/REC-SVG-20010904/DTD/svg10.dtd">
<!-- Creator: CorelDRAW 2023 (Not for commercial use) -->
<svg xmlns="http://www.w3.org/2000/svg" xml:space="preserve" width="1.77602in" height="2.00581in" version="1.0" style="shape-rendering:geometricPrecision; text-rendering:geometricPrecision; image-rendering:optimizeQuality; fill-rule:evenodd; clip-rule:evenodd"
viewBox="0 0 253.88 286.73"
 xmlns:xlink="http://www.w3.org/1999/xlink"
 xmlns:xodm="http://www.corel.com/coreldraw/odm/2003">
 <defs>
  <style type="text/css">
   <![CDATA[
    .str0 {stroke:#2B2A29;stroke-width:5.96;stroke-miterlimit:2.61313}
    .str1 {stroke:#2B2A29;stroke-width:0.43;stroke-miterlimit:2.61313}
    .str2 {stroke:white;stroke-width:0.43;stroke-miterlimit:2.61313}
    .fil0 {fill:#FEFEFE}
    .fil2 {fill:#020202}
    .fil1 {fill:#FF8126}
    .fil3 {fill:white}
   ]]>
  </style>
 </defs>
 <g id="Layer_x0020_1">
  <metadata id="CorelCorpID_0Corel-Layer"/>
  <g id="_2183063987120">
   <g>
    <g>
     <path class="fil0 str0" d="M2.98 123.65l0 5.48c0,17.68 11.41,40.02 18.76,50.9l18.37 24.97 29.38 31.5 46.8 40.41c11.31,8.83 9.65,9.32 21,0.24 1.71,-1.37 3.22,-2.47 4.94,-3.84l41.9 -36.54c6.94,-6.94 11,-10.69 17.28,-17.82 8.41,-9.54 16.13,-17.64 23.72,-28.39l7.02 -10.53c7.33,-10.86 18.76,-33.27 18.76,-50.9 0,-16.56 -1.65,-28.04 -6.78,-43.13 -2.24,-6.59 -6.19,-14.68 -9.5,-20.67 -1.84,-3.33 -3.83,-6.26 -5.99,-9.37 -7.9,-11.43 -12.68,-15.32 -21.48,-23.5 -6.34,-5.9 -19.99,-14.58 -27.57,-17.96 -15.76,-7.02 -31.31,-10.81 -46.84,-11.53l-10.83 0c-15.66,0.72 -31.35,4.55 -47.25,11.36 -18.33,7.85 -37.79,25.16 -49.21,41.3 -13.61,19.25 -22.49,44.14 -22.49,68.01z"/>
     <path class="fil0 str0" d="M57.28 126.94c0,12.03 3.88,25.74 9.08,34.25 5.46,8.93 11.92,16.79 20.64,22.69 1.9,1.29 3.42,2.26 5.35,3.43 2.26,1.36 3.26,1.67 5.88,2.9 18.8,8.8 44.77,8.45 62.62,-2.48 2.01,-1.23 3.36,-2.08 5.37,-3.41 41.44,-27.55 42.32,-94.48 -9.29,-120.28 -43.67,-21.83 -99.65,10.24 -99.65,62.9z"/>
    </g>
    <path class="fil1" d="M115.85 23.7c-30.55,4.55 -49.68,18.22 -63.86,34.98 -14.54,17.19 -25.85,44.48 -22.08,75.29 6.16,50.42 52.2,93.24 110.66,86.07 49.71,-6.1 93.01,-52.16 85.83,-110.09 -6.81,-54.98 -58.09,-94.06 -110.55,-86.25z"/>
    <g>
     <path class="fil2" d="M151.09 186.04c-7.42,0 -5.15,-10.37 -0.89,-10.37 3.96,0 4.43,1.78 4.89,5.51 0.3,2.42 -1.82,4.86 -4,4.86zm-56.6 -5.04c0,-6.06 5.99,-6.54 7.85,-3.7 1.3,2 2.33,8.74 -3.7,8.74 -2.83,0 -4.15,-2.18 -4.15,-5.04zm-13.93 -78.53l96.01 0c3.45,0 6.22,1.87 6.22,5.33 0,3.75 -8.15,18.09 -10.47,22.72l-4.55 8.79c-0.5,1 -1.66,4.05 -2.77,4.05l-76.16 0c-0.03,-1.38 -0.63,-3.63 -0.95,-4.98l-7.35 -35.91zm-27.26 -26.08c4.73,0 8.64,-0.67 11.78,2.15 1.57,1.41 1.48,3.3 2.03,5.67l13.38 63.96c0.77,3.84 2.94,15.79 4.53,18.59 0.87,1.53 2.12,3.49 3.55,4.45 -11.12,16.61 8.78,31.29 19.79,20.08 3.66,-3.73 5.06,-11.41 3.03,-15.64l26.37 0c-0.04,1.68 -0.59,2.24 -0.59,5.63 0,9.05 9.44,17 18.97,12.74 5.03,-2.25 8,-7.29 8,-13.04 0,-2.03 -0.51,-3.69 -0.89,-5.33l4.44 0 0 -9.19 -68.75 0c-2.66,0 -5.38,-2.77 -6.1,-4.86l-1.9 -9.36 79.71 0c1.05,0 2.65,-4.11 3.16,-5.14l12.64 -24.7c0.56,-1.12 0.93,-1.56 1.49,-2.66 3.76,-7.41 7.83,-15.93 -0.92,-22.99 -3.46,-2.8 -7.79,-3.49 -12.52,-3.48l-96.01 0 -2.74 -13.26c-0.87,-3.78 -3.38,-7.37 -6.4,-9.6 -5.06,-3.74 -9.26,-2.92 -16.05,-2.92l0 8.89z"/>
     <path class="fil3 str1" d="M80.57 102.48l7.35 35.91c0.32,1.35 0.92,3.6 0.95,4.98l76.16 0c1.11,0 2.27,-3.05 2.77,-4.05l4.55 -8.79c2.32,-4.63 10.47,-18.97 10.47,-22.72 0,-3.46 -2.77,-5.33 -6.22,-5.33l-96.01 0z"/>
     <path class="fil3 str1" d="M102.34 177.3c-1.86,-2.85 -7.85,-2.36 -7.85,3.7 0,2.86 1.32,5.04 4.15,5.04 6.03,0 5,-6.74 3.7,-8.74z"/>
     <path class="fil3 str1" d="M150.2 175.67c-4.26,0 -6.53,10.37 0.89,10.37 2.18,0 4.29,-2.44 4,-4.86 -0.46,-3.73 -0.92,-5.51 -4.89,-5.51z"/>
    </g>
   </g>
   <g>
    <path class="fil0 str0" d="M2.98 123.65l0 5.48c0,17.68 11.41,40.02 18.76,50.9l18.37 24.97 29.38 31.5 46.8 40.41c11.31,8.83 9.65,9.32 21,0.24 1.71,-1.37 3.22,-2.47 4.94,-3.84l41.9 -36.54c6.94,-6.94 11,-10.69 17.28,-17.82 8.41,-9.54 16.13,-17.64 23.72,-28.39l7.02 -10.53c7.33,-10.86 18.76,-33.27 18.76,-50.9 0,-16.56 -1.65,-28.04 -6.78,-43.13 -2.24,-6.59 -6.19,-14.68 -9.5,-20.67 -1.84,-3.33 -3.83,-6.26 -5.99,-9.37 -7.9,-11.43 -12.68,-15.32 -21.48,-23.5 -6.34,-5.9 -19.99,-14.58 -27.57,-17.96 -15.76,-7.02 -31.31,-10.81 -46.84,-11.53l-10.83 0c-15.66,0.72 -31.35,4.55 -47.25,11.36 -18.33,7.85 -37.79,25.16 -49.21,41.3 -13.61,19.25 -22.49,44.14 -22.49,68.01z"/>
    <path class="fil0 str0" d="M57.28 126.94c0,12.03 3.88,25.74 9.08,34.25 5.46,8.93 11.92,16.79 20.64,22.69 1.9,1.29 3.42,2.26 5.35,3.43 2.26,1.36 3.26,1.67 5.88,2.9 18.8,8.8 44.77,8.45 62.62,-2.48 2.01,-1.23 3.36,-2.08 5.37,-3.41 41.44,-27.55 42.32,-94.48 -9.29,-120.28 -43.67,-21.83 -99.65,10.24 -99.65,62.9z"/>
   </g>
   <path class="fil1" d="M114.61 23.7c-30.55,4.55 -49.68,18.22 -63.86,34.98 -14.54,17.19 -25.85,44.48 -22.08,75.29 6.16,50.42 52.2,93.24 110.66,86.07 49.71,-6.1 93.01,-52.16 85.83,-110.09 -6.81,-54.98 -58.09,-94.06 -110.55,-86.25z"/>
   <g>
    <path class="fil3" d="M155.26 186.04c-7.42,0 -5.15,-10.37 -0.89,-10.37 3.96,0 4.43,1.78 4.89,5.51 0.3,2.42 -1.82,4.86 -4,4.86zm-56.6 -5.04c0,-6.06 5.99,-6.54 7.85,-3.7 1.3,2 2.33,8.74 -3.7,8.74 -2.83,0 -4.15,-2.18 -4.15,-5.04zm-13.93 -78.53l96.01 0c3.45,0 6.22,1.87 6.22,5.33 0,3.75 -8.15,18.09 -10.47,22.72l-4.55 8.79c-0.5,1 -1.66,4.05 -2.77,4.05l-76.16 0c-0.03,-1.38 -0.63,-3.63 -0.95,-4.98l-7.35 -35.91zm-27.26 -26.08c4.73,0 8.64,-0.67 11.78,2.15 1.57,1.41 1.48,3.3 2.03,5.67l13.38 63.96c0.77,3.84 2.94,15.79 4.53,18.59 0.87,1.53 2.12,3.49 3.55,4.45 -11.12,16.61 8.78,31.29 19.79,20.08 3.66,-3.73 5.06,-11.41 3.03,-15.64l26.37 0c-0.04,1.68 -0.59,2.24 -0.59,5.63 0,9.05 9.44,17 18.97,12.74 5.03,-2.25 8,-7.29 8,-13.04 0,-2.03 -0.51,-3.69 -0.89,-5.33l4.44 0 0 -9.19 -68.75 0c-2.66,0 -5.38,-2.77 -6.1,-4.86l-1.9 -9.36 79.71 0c1.05,0 2.65,-4.11 3.16,-5.14l12.64 -24.7c0.56,-1.12 0.93,-1.56 1.49,-2.66 3.76,-7.41 7.83,-15.93 -0.92,-22.99 -3.46,-2.8 -7.79,-3.49 -12.52,-3.48l-96.01 0 -2.74 -13.26c-0.87,-3.78 -3.38,-7.37 -6.4,-9.6 -5.06,-3.74 -9.26,-2.92 -16.05,-2.92l0 8.89z"/>
    <path class="fil3 str2" d="M84.74 102.48l7.35 35.91c0.32,1.35 0.92,3.6 0.95,4.98l76.16 0c1.11,0 2.27,-3.05 2.77,-4.05l4.55 -8.79c2.32,-4.63 10.47,-18.97 10.47,-22.72 0,-3.46 -2.77,-5.33 -6.22,-5.33l-96.01 0z"/>
    <path class="fil3 str2" d="M106.51 177.3c-1.86,-2.85 -7.85,-2.36 -7.85,3.7 0,2.86 1.32,5.04 4.15,5.04 6.03,0 5,-6.74 3.7,-8.74z"/>
    <path class="fil3 str2" d="M154.37 175.67c-4.26,0 -6.53,10.37 0.89,10.37 2.18,0 4.29,-2.44 4,-4.86 -0.46,-3.73 -0.92,-5.51 -4.89,-5.51z"/>
   </g>
  </g>
 </g>
</svg>
