<?xml version="1.0" encoding="UTF-8"?>
<!DOCTYPE svg PUBLIC "-//W3C//DTD SVG 1.0//EN" "http://www.w3.org/TR/2001/REC-SVG-20010904/DTD/svg10.dtd">
<!-- Creator: CorelDRAW 2023 (Not for commercial use) -->
<svg xmlns="http://www.w3.org/2000/svg" xml:space="preserve" width="1.77602in" height="2.00581in" version="1.0" style="shape-rendering:geometricPrecision; text-rendering:geometricPrecision; image-rendering:optimizeQuality; fill-rule:evenodd; clip-rule:evenodd"
viewBox="0 0 143.38 161.93"
 xmlns:xlink="http://www.w3.org/1999/xlink"
 xmlns:xodm="http://www.corel.com/coreldraw/odm/2003">
 <defs>
  <style type="text/css">
   <![CDATA[
    .str0 {stroke:#2B2A29;stroke-width:3.36;stroke-miterlimit:2.61313}
    .fil0 {fill:#FEFEFE}
    .fil2 {fill:#FEFEFE}
    .fil1 {fill:#78909C}
   ]]>
  </style>
 </defs>
 <g id="Layer_x0020_1">
  <metadata id="CorelCorpID_0Corel-Layer"/>
  <g id="_2183068097392">
   <g>
    <path class="fil0 str0" d="M1.68 69.83l0 3.1c0,9.99 6.44,22.6 10.59,28.75l10.37 14.1 16.59 17.79 26.43 22.82c6.39,4.99 5.45,5.26 11.86,0.14 0.97,-0.77 1.82,-1.39 2.79,-2.17l23.66 -20.64c3.92,-3.92 6.21,-6.04 9.76,-10.07 4.75,-5.39 9.11,-9.96 13.39,-16.03l3.97 -5.95c4.14,-6.13 10.59,-18.79 10.59,-28.75 0,-9.35 -0.93,-15.83 -3.83,-24.36 -1.27,-3.72 -3.5,-8.29 -5.36,-11.67 -1.04,-1.88 -2.17,-3.54 -3.38,-5.29 -4.46,-6.46 -7.16,-8.65 -12.13,-13.27 -3.58,-3.33 -11.29,-8.23 -15.57,-10.14 -8.9,-3.96 -17.68,-6.11 -26.45,-6.51l-6.11 0c-8.85,0.41 -17.7,2.57 -26.68,6.42 -10.35,4.43 -21.34,14.21 -27.79,23.32 -7.69,10.87 -12.7,24.93 -12.7,38.41z"/>
    <path class="fil0 str0" d="M32.35 71.69c0,6.79 2.19,14.54 5.13,19.34 3.09,5.04 6.73,9.48 11.66,12.82 1.07,0.73 1.93,1.28 3.02,1.93 1.28,0.77 1.84,0.94 3.32,1.63 10.62,4.97 25.28,4.77 35.36,-1.4 1.14,-0.7 1.9,-1.17 3.03,-1.93 23.4,-15.56 23.9,-53.36 -5.24,-67.93 -24.66,-12.33 -56.28,5.78 -56.28,35.52z"/>
   </g>
   <path class="fil1" d="M64.73 14.33c-17.25,2.57 -28.06,10.29 -36.06,19.75 -8.21,9.71 -14.6,25.12 -12.47,42.52 3.48,28.48 29.48,52.66 62.49,48.61 28.08,-3.44 52.53,-29.46 48.47,-62.17 -3.85,-31.05 -32.81,-53.12 -62.43,-48.71z"/>
   <g>
    <path class="fil2" d="M28.81 53.63l0 1.07c2.14,0.18 12.19,5.26 15.77,6.74 2.33,0.97 3.38,1.61 5.51,2.53 2.57,1.1 20.91,9.49 21.6,9.49 1.25,0 26.91,-12.09 31.94,-14.16 2.59,-1.07 8.52,-4.4 10.95,-4.6l0 -1.07c-2.13,-0.18 -8.23,-2.97 -10.57,-3.91l-32.32 -12.71c-1.18,0 -18.5,7.18 -21.21,8.27 -3.26,1.31 -19.63,8.18 -21.67,8.35z"/>
    <path class="fil2" d="M68.47 102.41c9.98,0 21.89,-0.52 28.27,-8.18 2.59,-3.11 1.75,-7.88 1.75,-13.26 0,-5 0,-10.01 0,-15.01 -1.22,0.65 -1.95,0.84 -3.37,1.45 -30.02,12.92 -17.62,12.36 -36.91,4.52l-13.33 -5.97c0,5 0,10.01 0,15.01 0,5.38 -0.84,10.16 1.75,13.26 3.95,4.74 13.31,8.18 21.84,8.18z"/>
    <path class="fil2" d="M107.08 62.22c-0.01,4.27 -0.01,8.56 -0.01,12.85 0,14.2 -2.14,6.55 -2.14,10.72l0 12.33 8.58 0 0 -12.33c0,-2.45 -1.95,-0.64 -2.18,-4.78l0.04 -20.94 -4.28 2.16z"/>
   </g>
  </g>
 </g>
</svg>
