<?xml version="1.0" encoding="UTF-8"?>
<!DOCTYPE svg PUBLIC "-//W3C//DTD SVG 1.0//EN" "http://www.w3.org/TR/2001/REC-SVG-20010904/DTD/svg10.dtd">
<!-- Creator: CorelDRAW 2023 (Not for commercial use) -->
<svg xmlns="http://www.w3.org/2000/svg" xml:space="preserve" width="1.77602in" height="2.00581in" version="1.0" style="shape-rendering:geometricPrecision; text-rendering:geometricPrecision; image-rendering:optimizeQuality; fill-rule:evenodd; clip-rule:evenodd"
viewBox="0 0 413.08 466.52"
 xmlns:xlink="http://www.w3.org/1999/xlink"
 xmlns:xodm="http://www.corel.com/coreldraw/odm/2003">
 <defs>
  <style type="text/css">
   <![CDATA[
    .str0 {stroke:#2B2A29;stroke-width:9.69;stroke-miterlimit:2.61313}
    .fil0 {fill:#FEFEFE}
    .fil4 {fill:#D9DADA}
    .fil1 {fill:#F74A55}
    .fil2 {fill:white}
    .fil5 {fill:#D9DADA;fill-rule:nonzero}
    .fil3 {fill:white;fill-rule:nonzero}
   ]]>
  </style>
 </defs>
 <g id="Layer_x0020_1">
  <metadata id="CorelCorpID_0Corel-Layer"/>
  <g id="_2182213744992">
   <g>
    <path class="fil0 str0" d="M4.85 201.19l0 8.92c0,28.77 18.56,65.11 30.52,82.82l29.88 40.62 47.81 51.26 76.15 65.75c18.4,14.37 15.7,15.16 34.17,0.39 2.79,-2.23 5.24,-4.01 8.04,-6.24l68.17 -59.45c11.29,-11.3 17.89,-17.39 28.12,-29 13.68,-15.53 26.25,-28.7 38.59,-46.19l11.42 -17.13c11.93,-17.66 30.52,-54.14 30.52,-82.82 0,-26.94 -2.68,-45.62 -11.03,-70.18 -3.65,-10.72 -10.07,-23.89 -15.45,-33.63 -2.99,-5.42 -6.24,-10.19 -9.74,-15.25 -12.86,-18.6 -20.63,-24.92 -34.94,-38.24 -10.32,-9.6 -32.53,-23.72 -44.86,-29.21 -25.64,-11.42 -50.94,-17.59 -76.21,-18.75l-17.62 0c-25.49,1.17 -51.01,7.41 -76.88,18.48 -29.82,12.77 -61.49,40.93 -80.06,67.2 -22.14,31.32 -36.59,71.82 -36.59,110.66z"/>
    <path class="fil0 str0" d="M93.2 206.54c0,19.57 6.32,41.89 14.78,55.72 8.89,14.53 19.4,27.31 33.58,36.93 3.08,2.09 5.56,3.68 8.7,5.57 3.68,2.22 5.3,2.71 9.57,4.71 30.58,14.31 72.84,13.75 101.88,-4.03 3.27,-2 5.47,-3.38 8.73,-5.55 67.42,-44.83 68.86,-153.73 -15.11,-195.7 -71.06,-35.52 -162.14,16.66 -162.14,102.35z"/>
   </g>
   <path class="fil1" d="M186.48 47.33c-49.71,7.41 -80.83,29.64 -103.9,56.91 -23.65,27.96 -42.05,72.37 -35.93,122.49 10.02,82.04 84.94,151.71 180.04,140.04 80.89,-9.92 151.33,-84.87 139.65,-179.12 -11.09,-89.46 -94.51,-153.04 -179.86,-140.32z"/>
   <g>
    <g>
     <path class="fil2" d="M160.3 105.63c-27.86,3.62 -45.34,36.74 -40.11,69.47 2.66,16.66 9.76,26.1 15.89,39.59 9.08,19.96 4.69,62.52 26.05,85.93 10.06,11.03 29.73,10.86 33.23,-7.1 3.44,-17.63 -6.44,-44.44 12.5,-43.09 21.59,1.53 -5.33,57.12 26.35,58.04 20.77,0.6 31.39,-32.62 34.19,-49.61 2.75,-16.68 2.6,-31.59 9.5,-45.96 6.35,-13.23 13.44,-23.52 15.42,-40.76 3.73,-32.41 -14.76,-66.06 -44.05,-66.77 -19.94,-0.48 -28.6,8.95 -44.57,10.97 -7.31,0.92 -13.75,-4.84 -20.05,-7.3 -7.09,-2.76 -16.07,-4.48 -24.36,-3.4z"/>
     <path id="_1" class="fil3" d="M120.38 175.07l-0.37 0.06 0 0 -0.43 -3.08 -0.29 -3.07 -0.17 -3.06 -0.04 -3.05 0.09 -3.03 0.21 -3 0.33 -2.98 0.44 -2.94 0.56 -2.9 0.67 -2.85 0.78 -2.8 0.89 -2.74 1 -2.68 1.1 -2.61 1.21 -2.53 1.3 -2.45 1.4 -2.37 1.5 -2.28 1.59 -2.18 1.68 -2.08 1.77 -1.97 1.86 -1.86 1.94 -1.74 2.02 -1.62 2.1 -1.49 2.18 -1.35 2.25 -1.21 2.33 -1.07 2.4 -0.91 2.46 -0.76 2.53 -0.6 2.59 -0.43 0.05 0.37 -2.57 0.42 -2.51 0.59 -2.44 0.75 -2.37 0.91 -2.3 1.06 -2.23 1.2 -2.16 1.34 -2.08 1.48 -2 1.6 -1.92 1.73 -1.84 1.85 -1.76 1.96 -1.67 2.06 -1.58 2.17 -1.49 2.26 -1.39 2.35 -1.3 2.44 -1.2 2.52 -1.1 2.59 -0.99 2.66 -0.89 2.73 -0.78 2.78 -0.67 2.84 -0.56 2.88 -0.44 2.92 -0.33 2.96 -0.21 2.99 -0.09 3.02 0.04 3.03 0.17 3.05 0.29 3.06 0.42 3.06 0 0zm15.88 39.54l-0.34 0.16 0 0 -0.58 -1.25 -0.58 -1.23 -0.59 -1.21 -0.59 -1.19 -0.59 -1.18 -0.59 -1.16 -0.59 -1.15 -0.59 -1.15 -0.59 -1.14 -0.58 -1.13 -0.58 -1.13 -0.57 -1.13 -0.57 -1.13 -0.56 -1.13 -0.55 -1.14 -0.54 -1.15 -0.53 -1.16 -0.52 -1.17 -0.51 -1.18 -0.5 -1.2 -0.48 -1.21 -0.47 -1.24 -0.45 -1.26 -0.44 -1.28 -0.42 -1.31 -0.4 -1.33 -0.38 -1.36 -0.36 -1.4 -0.34 -1.43 -0.31 -1.47 -0.29 -1.5 -0.26 -1.55 0.37 -0.06 0.26 1.54 0.29 1.5 0.31 1.46 0.33 1.42 0.36 1.39 0.38 1.36 0.4 1.33 0.42 1.3 0.43 1.27 0.45 1.25 0.47 1.23 0.48 1.21 0.5 1.19 0.51 1.18 0.52 1.16 0.53 1.15 0.54 1.14 0.55 1.14 0.56 1.13 0.57 1.13 0.57 1.13 0.58 1.13 0.58 1.13 0.59 1.14 0.59 1.15 0.59 1.15 0.59 1.17 0.59 1.18 0.59 1.19 0.59 1.21 0.58 1.23 0.58 1.26 0 0zm26.01 85.88l-0.28 0.25 0 0 -1.94 -2.26 -1.79 -2.36 -1.65 -2.46 -1.52 -2.55 -1.4 -2.63 -1.28 -2.7 -1.18 -2.77 -1.08 -2.83 -0.98 -2.88 -0.9 -2.92 -0.82 -2.96 -0.74 -2.98 -0.68 -3 -0.62 -3.02 -0.57 -3.02 -0.53 -3.02 -0.49 -3.01 -0.46 -2.99 -0.44 -2.96 -0.43 -2.93 -0.42 -2.89 -0.42 -2.84 -0.43 -2.78 -0.44 -2.72 -0.46 -2.65 -0.49 -2.57 -0.52 -2.48 -0.57 -2.38 -0.62 -2.28 -0.67 -2.17 -0.74 -2.05 -0.81 -1.93 0.34 -0.16 0.82 1.95 0.74 2.07 0.68 2.18 0.62 2.29 0.57 2.39 0.53 2.49 0.49 2.57 0.46 2.65 0.44 2.72 0.43 2.78 0.42 2.84 0.42 2.89 0.43 2.93 0.44 2.96 0.46 2.99 0.49 3 0.53 3.01 0.57 3.02 0.62 3.01 0.68 3 0.74 2.98 0.81 2.95 0.89 2.91 0.98 2.87 1.07 2.81 1.17 2.76 1.28 2.69 1.39 2.61 1.51 2.53 1.64 2.44 1.78 2.35 1.92 2.24 0 0zm32.91 -7.01l0.37 0.07 0 0 -0.38 1.65 -0.47 1.54 -0.55 1.44 -0.64 1.34 -0.71 1.24 -0.79 1.14 -0.85 1.04 -0.92 0.95 -0.97 0.85 -1.03 0.76 -1.08 0.66 -1.12 0.57 -1.16 0.48 -1.19 0.39 -1.22 0.3 -1.24 0.22 -1.26 0.13 -1.28 0.04 -1.28 -0.04 -1.29 -0.12 -1.29 -0.2 -1.29 -0.28 -1.28 -0.36 -1.26 -0.44 -1.24 -0.51 -1.22 -0.59 -1.19 -0.66 -1.16 -0.73 -1.12 -0.8 -1.08 -0.87 -1.03 -0.94 -0.98 -1.01 0.28 -0.25 0.96 0.99 1.01 0.93 1.06 0.86 1.1 0.79 1.14 0.72 1.17 0.65 1.2 0.58 1.22 0.5 1.24 0.43 1.25 0.35 1.26 0.28 1.27 0.2 1.27 0.12 1.26 0.04 1.25 -0.04 1.24 -0.13 1.22 -0.21 1.19 -0.3 1.16 -0.38 1.13 -0.47 1.09 -0.56 1.05 -0.65 1 -0.74 0.95 -0.83 0.9 -0.93 0.84 -1.02 0.77 -1.12 0.7 -1.21 0.62 -1.31 0.55 -1.41 0.46 -1.52 0.37 -1.62 0 0zm12.7 -43.24l-0.03 0.38 0 0 -1.67 -0.04 -1.51 0.11 -1.35 0.26 -1.21 0.4 -1.07 0.53 -0.94 0.66 -0.82 0.78 -0.71 0.9 -0.61 1.01 -0.51 1.11 -0.42 1.21 -0.34 1.3 -0.27 1.39 -0.2 1.47 -0.14 1.54 -0.09 1.6 -0.04 1.66 -0 1.71 0.03 1.75 0.05 1.79 0.06 1.82 0.07 1.84 0.07 1.86 0.06 1.86 0.05 1.87 0.02 1.86 -0.01 1.85 -0.05 1.83 -0.1 1.8 -0.15 1.77 -0.21 1.73 -0.29 1.69 -0.37 -0.07 0.28 -1.67 0.21 -1.72 0.15 -1.76 0.1 -1.79 0.05 -1.82 0.01 -1.84 -0.02 -1.85 -0.05 -1.86 -0.06 -1.86 -0.07 -1.85 -0.07 -1.84 -0.06 -1.82 -0.05 -1.79 -0.03 -1.76 0 -1.72 0.04 -1.67 0.09 -1.62 0.14 -1.55 0.2 -1.49 0.27 -1.41 0.35 -1.33 0.43 -1.24 0.53 -1.15 0.63 -1.05 0.74 -0.94 0.86 -0.82 0.99 -0.69 1.12 -0.56 1.26 -0.42 1.4 -0.27 1.55 -0.11 1.71 0.04 0 0zm26.34 58.04l-0.01 0.38 0 0 -2.82 -0.24 -2.5 -0.55 -2.2 -0.83 -1.92 -1.1 -1.65 -1.34 -1.4 -1.57 -1.17 -1.77 -0.96 -1.95 -0.77 -2.11 -0.6 -2.24 -0.45 -2.36 -0.32 -2.46 -0.21 -2.54 -0.12 -2.6 -0.05 -2.64 -0 -2.66 0.03 -2.66 0.03 -2.64 0.02 -2.6 -0 -2.54 -0.05 -2.46 -0.12 -2.36 -0.21 -2.24 -0.31 -2.1 -0.44 -1.94 -0.59 -1.76 -0.75 -1.56 -0.92 -1.34 -1.12 -1.1 -1.34 -0.85 -1.59 -0.58 -1.85 -0.29 0.03 -0.38 1.92 0.3 1.66 0.61 1.41 0.89 1.18 1.16 0.96 1.39 0.77 1.61 0.6 1.8 0.45 1.97 0.32 2.13 0.21 2.26 0.12 2.38 0.05 2.47 0 2.55 -0.02 2.61 -0.03 2.64 -0.03 2.66 0 2.66 0.05 2.63 0.12 2.59 0.21 2.53 0.32 2.44 0.44 2.34 0.59 2.22 0.75 2.07 0.94 1.91 1.14 1.73 1.36 1.52 1.6 1.31 1.86 1.07 2.15 0.81 2.45 0.54 2.78 0.24 0 0zm34 -49.45l0.37 0.06 0 0 -0.29 1.64 -0.33 1.73 -0.38 1.8 -0.43 1.87 -0.47 1.93 -0.52 1.98 -0.57 2.02 -0.62 2.05 -0.67 2.07 -0.72 2.09 -0.77 2.09 -0.82 2.08 -0.87 2.07 -0.92 2.05 -0.97 2.01 -1.03 1.97 -1.08 1.92 -1.13 1.86 -1.19 1.79 -1.24 1.71 -1.3 1.62 -1.35 1.53 -1.41 1.42 -1.47 1.3 -1.52 1.18 -1.58 1.05 -1.64 0.9 -1.7 0.75 -1.76 0.59 -1.82 0.41 -1.88 0.23 -1.94 0.04 0.01 -0.38 1.9 -0.04 1.84 -0.23 1.78 -0.41 1.72 -0.58 1.67 -0.74 1.61 -0.89 1.56 -1.03 1.5 -1.16 1.45 -1.29 1.39 -1.4 1.34 -1.51 1.29 -1.61 1.23 -1.7 1.18 -1.78 1.13 -1.85 1.07 -1.91 1.02 -1.96 0.97 -2 0.92 -2.04 0.87 -2.06 0.82 -2.08 0.77 -2.08 0.72 -2.08 0.67 -2.07 0.62 -2.05 0.57 -2.01 0.52 -1.97 0.47 -1.92 0.42 -1.87 0.38 -1.8 0.33 -1.72 0.28 -1.64 0 0zm9.51 -46.02l0.34 0.16 0 0 -0.62 1.35 -0.59 1.35 -0.55 1.35 -0.51 1.36 -0.48 1.36 -0.45 1.36 -0.42 1.37 -0.39 1.37 -0.36 1.38 -0.34 1.38 -0.31 1.39 -0.29 1.4 -0.27 1.4 -0.26 1.41 -0.24 1.41 -0.23 1.42 -0.21 1.43 -0.2 1.44 -0.19 1.44 -0.19 1.45 -0.18 1.46 -0.18 1.47 -0.18 1.48 -0.18 1.48 -0.18 1.49 -0.19 1.5 -0.19 1.51 -0.2 1.52 -0.21 1.53 -0.22 1.54 -0.23 1.55 -0.25 1.56 -0.37 -0.06 0.25 -1.56 0.23 -1.55 0.22 -1.54 0.21 -1.53 0.2 -1.52 0.19 -1.51 0.19 -1.5 0.18 -1.49 0.18 -1.48 0.18 -1.48 0.18 -1.47 0.18 -1.46 0.19 -1.45 0.19 -1.44 0.2 -1.44 0.21 -1.43 0.23 -1.43 0.24 -1.42 0.26 -1.41 0.27 -1.41 0.29 -1.4 0.31 -1.4 0.34 -1.39 0.36 -1.39 0.39 -1.38 0.42 -1.38 0.45 -1.37 0.48 -1.37 0.52 -1.36 0.55 -1.36 0.59 -1.36 0.63 -1.35 0 0zm15.41 -40.7l0.37 0.04 0 0 -0.2 1.6 -0.23 1.56 -0.26 1.52 -0.29 1.49 -0.31 1.46 -0.34 1.42 -0.36 1.39 -0.38 1.37 -0.4 1.34 -0.42 1.31 -0.44 1.29 -0.46 1.27 -0.48 1.25 -0.49 1.24 -0.51 1.22 -0.52 1.21 -0.53 1.19 -0.55 1.18 -0.56 1.17 -0.57 1.17 -0.58 1.16 -0.58 1.16 -0.59 1.16 -0.59 1.16 -0.6 1.16 -0.6 1.17 -0.6 1.17 -0.6 1.18 -0.6 1.19 -0.6 1.2 -0.6 1.21 -0.6 1.23 -0.34 -0.16 0.6 -1.23 0.6 -1.22 0.6 -1.2 0.6 -1.19 0.6 -1.18 0.6 -1.17 0.6 -1.17 0.6 -1.16 0.59 -1.16 0.59 -1.16 0.58 -1.16 0.57 -1.16 0.57 -1.17 0.55 -1.17 0.54 -1.18 0.53 -1.19 0.52 -1.2 0.51 -1.21 0.49 -1.23 0.48 -1.25 0.46 -1.26 0.44 -1.29 0.42 -1.31 0.4 -1.33 0.38 -1.36 0.36 -1.39 0.33 -1.42 0.31 -1.45 0.28 -1.48 0.26 -1.52 0.23 -1.55 0.2 -1.59 0 0zm-43.86 -66.56l0.01 -0.38 0 0 2.73 0.16 2.66 0.35 2.59 0.53 2.52 0.71 2.45 0.88 2.38 1.04 2.3 1.19 2.22 1.34 2.14 1.49 2.06 1.62 1.97 1.76 1.89 1.88 1.8 2 1.71 2.11 1.61 2.21 1.52 2.31 1.42 2.41 1.32 2.49 1.22 2.57 1.12 2.65 1.01 2.72 0.9 2.78 0.79 2.83 0.68 2.88 0.57 2.92 0.45 2.96 0.34 2.99 0.21 3.02 0.09 3.03 -0.03 3.04 -0.16 3.05 -0.29 3.05 -0.37 -0.04 0.28 -3.03 0.16 -3.03 0.03 -3.03 -0.09 -3.02 -0.21 -3 -0.33 -2.98 -0.45 -2.95 -0.57 -2.91 -0.68 -2.87 -0.79 -2.82 -0.9 -2.76 -1.01 -2.7 -1.11 -2.63 -1.21 -2.56 -1.31 -2.48 -1.41 -2.39 -1.51 -2.3 -1.6 -2.2 -1.69 -2.1 -1.78 -1.98 -1.87 -1.86 -1.96 -1.74 -2.04 -1.61 -2.12 -1.47 -2.2 -1.33 -2.28 -1.18 -2.36 -1.03 -2.43 -0.87 -2.5 -0.7 -2.57 -0.53 -2.63 -0.35 -2.7 -0.16 0 0zm-44.54 10.97l-0.05 -0.37 0 0 1.47 -0.21 1.43 -0.25 1.4 -0.29 1.36 -0.32 1.34 -0.35 1.31 -0.38 1.29 -0.4 1.27 -0.42 1.25 -0.44 1.24 -0.46 1.23 -0.47 1.23 -0.48 1.23 -0.48 1.23 -0.49 1.23 -0.49 1.24 -0.48 1.25 -0.48 1.27 -0.46 1.29 -0.45 1.31 -0.43 1.34 -0.41 1.37 -0.39 1.4 -0.36 1.44 -0.34 1.47 -0.3 1.52 -0.27 1.56 -0.23 1.61 -0.18 1.66 -0.14 1.72 -0.09 1.78 -0.04 1.84 0.02 -0.01 0.38 -1.83 -0.02 -1.77 0.04 -1.71 0.09 -1.65 0.14 -1.6 0.18 -1.55 0.23 -1.51 0.26 -1.46 0.3 -1.43 0.33 -1.39 0.36 -1.36 0.39 -1.33 0.41 -1.31 0.43 -1.28 0.45 -1.27 0.46 -1.25 0.47 -1.24 0.48 -1.23 0.49 -1.23 0.49 -1.23 0.48 -1.23 0.48 -1.24 0.47 -1.25 0.46 -1.26 0.44 -1.28 0.43 -1.29 0.41 -1.32 0.38 -1.34 0.35 -1.37 0.32 -1.41 0.29 -1.44 0.25 -1.48 0.21 0 0zm-20.14 -7.31l0.14 -0.35 0 0 0.6 0.24 0.6 0.26 0.6 0.27 0.6 0.29 0.6 0.3 0.6 0.31 0.6 0.32 0.6 0.33 1.21 0.66 1.22 0.66 0.61 0.33 0.61 0.32 0.62 0.32 0.62 0.31 0.62 0.3 0.62 0.29 0.62 0.27 0.63 0.26 0.63 0.24 0.63 0.22 0.64 0.2 0.64 0.18 0.64 0.15 0.65 0.13 0.65 0.1 0.65 0.07 0.66 0.04 0.66 0.01 0.67 -0.03 0.67 -0.07 0.05 0.37 -0.69 0.07 -0.69 0.03 -0.68 -0.01 -0.68 -0.04 -0.67 -0.07 -0.67 -0.1 -0.66 -0.13 -0.66 -0.16 -0.65 -0.18 -0.65 -0.21 -0.64 -0.23 -0.64 -0.24 -0.64 -0.26 -0.63 -0.28 -0.63 -0.29 -0.63 -0.3 -0.62 -0.31 -0.62 -0.32 -0.62 -0.33 -0.61 -0.33 -1.22 -0.66 -1.21 -0.66 -0.6 -0.32 -0.6 -0.32 -0.6 -0.31 -0.59 -0.3 -0.59 -0.28 -0.59 -0.27 -0.59 -0.25 -0.59 -0.24 0 0zm-24.27 -3.39l-0.05 -0.37 0 0 0.78 -0.09 0.79 -0.08 0.79 -0.06 0.79 -0.05 0.79 -0.03 0.8 -0.02 0.8 -0 0.8 0.01 0.8 0.03 0.8 0.04 0.8 0.05 0.8 0.07 0.79 0.08 0.79 0.09 0.79 0.1 0.79 0.12 0.78 0.13 0.78 0.14 0.77 0.15 0.77 0.16 0.76 0.17 0.76 0.18 0.75 0.19 0.74 0.2 0.74 0.2 0.73 0.21 0.72 0.22 0.71 0.23 0.7 0.24 0.69 0.24 0.68 0.25 0.67 0.26 -0.14 0.35 -0.67 -0.25 -0.68 -0.25 -0.69 -0.24 -0.7 -0.23 -0.71 -0.23 -0.72 -0.22 -0.72 -0.21 -0.73 -0.2 -0.74 -0.19 -0.75 -0.19 -0.75 -0.18 -0.76 -0.17 -0.76 -0.16 -0.77 -0.15 -0.77 -0.13 -0.78 -0.13 -0.78 -0.11 -0.78 -0.1 -0.79 -0.09 -0.79 -0.08 -0.79 -0.07 -0.79 -0.05 -0.79 -0.04 -0.79 -0.03 -0.79 -0.01 -0.79 0 -0.79 0.02 -0.79 0.03 -0.79 0.05 -0.78 0.06 -0.78 0.08 -0.78 0.09 0 0z"/>
    </g>
    <path class="fil0" d="M172.92 297.26c0.18,-0 1.78,1.73 2.67,-4.85 1.47,-10.81 -2.71,-25.64 4.97,-37.08 3.13,-4.66 5.55,-3.8 10.69,-7.22 2.5,-1.15 6.46,-7.78 17.9,-6.49 19.12,2.15 17.05,23.34 17.05,35.79 0,8.05 -1.67,18.06 4.75,21.09 9.87,-2.91 17.97,-36.12 19.07,-43.6 3.29,-22.48 3,-31.79 12.79,-50.35 8.03,-15.23 14.63,-28.56 11.77,-50.13 -1.88,-14.17 -9.22,-30.03 -20.65,-37.91l-2.44 -1.7c-0.13,-0.09 -0.35,-0.26 -0.52,-0.4 -13.96,-1.48 -25.19,5.11 -36.33,9.02 5.02,3.65 15.81,1.31 16.06,7.46 0.63,15.25 -44.47,-11.81 -49,-13.63 -29.94,-12.04 -48.57,10.93 -52.65,36.16 -5.37,33.21 14.47,46.12 20.03,73.04 4.17,20.16 3.08,44.45 17.38,65.34 1.36,1.99 0.82,1.48 2.73,3.29 1.64,1.55 1.53,1.81 3.74,2.17z"/>
    <g>
     <path class="fil4" d="M230.94 298.49c8.48,5 16.34,-6.93 19.42,-13.25 16.67,-34.15 6.65,-51.04 21.61,-80.59 8.59,-16.97 16.38,-30.52 11.61,-54.05 -3.56,-17.56 -14.64,-34.31 -32.62,-36.21 0.17,0.14 0.39,0.31 0.52,0.4l2.44 1.7c11.43,7.87 18.77,23.74 20.65,37.91 2.86,21.57 -3.74,34.9 -11.77,50.13 -9.79,18.56 -9.5,27.87 -12.79,50.35 -1.1,7.48 -9.2,40.7 -19.07,43.6z"/>
     <path id="_1_0" class="fil5" d="M250.19 285.17l0.34 0.16 0 0 -0.3 0.61 -0.33 0.64 -0.36 0.66 -0.38 0.68 -0.41 0.7 -0.43 0.71 -0.46 0.72 -0.48 0.73 -0.5 0.73 -0.52 0.72 -0.54 0.71 -0.56 0.7 -0.58 0.68 -0.6 0.66 -0.62 0.64 -0.64 0.61 -0.65 0.58 -0.67 0.54 -0.68 0.5 -0.7 0.45 -0.71 0.4 -0.73 0.35 -0.74 0.29 -0.75 0.23 -0.76 0.16 -0.77 0.09 -0.78 0.01 -0.79 -0.07 -0.8 -0.15 -0.8 -0.24 -0.81 -0.33 -0.81 -0.43 0.19 -0.32 0.78 0.41 0.77 0.32 0.77 0.23 0.76 0.14 0.75 0.06 0.74 -0.01 0.74 -0.09 0.73 -0.16 0.72 -0.22 0.71 -0.28 0.7 -0.34 0.69 -0.39 0.68 -0.44 0.67 -0.49 0.65 -0.53 0.64 -0.57 0.63 -0.6 0.61 -0.63 0.59 -0.66 0.58 -0.68 0.56 -0.69 0.54 -0.71 0.52 -0.71 0.5 -0.72 0.48 -0.72 0.45 -0.72 0.43 -0.71 0.4 -0.7 0.38 -0.68 0.35 -0.66 0.33 -0.63 0.3 -0.61 0 0zm21.61 -80.59l0.34 0.17 0 0 -1.33 2.73 -1.19 2.66 -1.06 2.6 -0.95 2.54 -0.84 2.49 -0.74 2.44 -0.65 2.4 -0.57 2.36 -0.5 2.33 -0.44 2.31 -0.39 2.29 -0.35 2.28 -0.31 2.27 -0.29 2.27 -0.28 2.27 -0.27 2.28 -0.28 2.29 -0.29 2.31 -0.31 2.34 -0.35 2.37 -0.39 2.4 -0.44 2.44 -0.51 2.49 -0.58 2.54 -0.66 2.6 -0.75 2.66 -0.85 2.73 -0.96 2.81 -1.08 2.89 -1.2 2.97 -1.34 3.06 -1.49 3.16 -0.34 -0.16 1.48 -3.15 1.34 -3.05 1.2 -2.96 1.07 -2.88 0.95 -2.8 0.84 -2.72 0.75 -2.66 0.65 -2.59 0.58 -2.54 0.5 -2.49 0.44 -2.44 0.39 -2.4 0.35 -2.36 0.31 -2.33 0.29 -2.31 0.28 -2.29 0.27 -2.28 0.28 -2.27 0.29 -2.27 0.31 -2.27 0.35 -2.28 0.39 -2.3 0.44 -2.32 0.5 -2.34 0.57 -2.37 0.65 -2.41 0.74 -2.45 0.84 -2.5 0.95 -2.55 1.07 -2.61 1.2 -2.67 1.33 -2.74 0 0zm11.59 -53.92l0.37 -0.08 0 0 0.41 2.18 0.34 2.13 0.27 2.07 0.2 2.02 0.14 1.97 0.08 1.93 0.01 1.88 -0.04 1.84 -0.1 1.8 -0.16 1.77 -0.21 1.73 -0.26 1.7 -0.31 1.67 -0.35 1.65 -0.39 1.62 -0.44 1.6 -0.48 1.58 -0.51 1.56 -0.55 1.55 -0.58 1.53 -0.61 1.53 -0.64 1.52 -0.67 1.51 -0.69 1.51 -0.71 1.51 -0.73 1.51 -0.75 1.52 -0.76 1.53 -0.78 1.54 -0.79 1.55 -0.8 1.56 -0.8 1.58 -0.34 -0.17 0.8 -1.58 0.8 -1.56 0.79 -1.55 0.77 -1.54 0.76 -1.52 0.75 -1.52 0.73 -1.51 0.71 -1.51 0.69 -1.51 0.66 -1.51 0.64 -1.51 0.61 -1.52 0.58 -1.53 0.54 -1.54 0.51 -1.55 0.47 -1.57 0.43 -1.59 0.39 -1.61 0.35 -1.63 0.3 -1.66 0.26 -1.69 0.21 -1.72 0.15 -1.76 0.1 -1.79 0.04 -1.83 -0.01 -1.87 -0.08 -1.92 -0.14 -1.96 -0.2 -2.01 -0.27 -2.06 -0.34 -2.12 -0.41 -2.17 0 0zm-32.31 -36.39l-0.24 0.29 0.14 -0.33 1.68 0.22 1.63 0.31 1.59 0.39 1.55 0.47 1.51 0.55 1.47 0.62 1.43 0.69 1.39 0.76 1.35 0.83 1.3 0.89 1.26 0.96 1.22 1.01 1.18 1.07 1.13 1.12 1.09 1.17 1.05 1.22 1.01 1.27 0.97 1.31 0.92 1.35 0.88 1.39 0.84 1.43 0.79 1.46 0.75 1.49 0.71 1.52 0.66 1.54 0.62 1.57 0.58 1.59 0.53 1.6 0.49 1.62 0.45 1.63 0.4 1.64 0.36 1.65 -0.37 0.08 -0.36 -1.64 -0.4 -1.63 -0.44 -1.62 -0.49 -1.61 -0.53 -1.59 -0.57 -1.58 -0.62 -1.56 -0.66 -1.53 -0.7 -1.51 -0.74 -1.48 -0.79 -1.45 -0.83 -1.42 -0.87 -1.38 -0.91 -1.34 -0.96 -1.3 -1 -1.26 -1.04 -1.21 -1.08 -1.16 -1.12 -1.11 -1.17 -1.06 -1.21 -1 -1.25 -0.94 -1.29 -0.88 -1.33 -0.82 -1.37 -0.75 -1.41 -0.68 -1.45 -0.61 -1.49 -0.54 -1.53 -0.46 -1.57 -0.38 -1.61 -0.3 -1.66 -0.22 0.14 -0.33zm-0.24 0.29l-0.48 -0.4 0.62 0.07 -0.14 0.33zm0.74 0.1l-0.21 0.31 -0 -0 -0.05 -0.04 -0.06 -0.04 -0.06 -0.05 -0.07 -0.05 -0.07 -0.05 -0.07 -0.06 -0.07 -0.06 -0.07 -0.05 0.24 -0.29 0.06 0.05 0.07 0.05 0.07 0.05 0.07 0.05 0.07 0.05 0.07 0.05 0.06 0.04 0.05 0.04 -0 -0zm-0.21 0.31l0 0 -0.01 -0 0 0zm2.44 1.7l-2.44 -1.7 0.21 -0.31 2.44 1.7 -0.21 0.31 -0 0zm0 0l-0 0 -0.08 -0.06 0.08 0.06zm20.94 37.73l-0.37 0.05 0 0 -0.19 -1.33 -0.22 -1.34 -0.25 -1.34 -0.29 -1.35 -0.32 -1.35 -0.35 -1.35 -0.38 -1.35 -0.41 -1.35 -0.44 -1.35 -0.47 -1.34 -0.5 -1.33 -0.53 -1.32 -0.55 -1.31 -0.58 -1.3 -0.61 -1.28 -0.64 -1.27 -0.67 -1.25 -0.7 -1.23 -0.72 -1.2 -0.75 -1.18 -0.78 -1.15 -0.8 -1.13 -0.83 -1.1 -0.86 -1.07 -0.88 -1.04 -0.91 -1 -0.93 -0.96 -0.96 -0.93 -0.98 -0.89 -1.01 -0.84 -1.03 -0.8 -1.05 -0.76 0.21 -0.31 1.07 0.77 1.04 0.81 1.02 0.85 0.99 0.9 0.97 0.94 0.94 0.97 0.91 1.01 0.89 1.04 0.86 1.08 0.84 1.11 0.81 1.14 0.78 1.16 0.76 1.19 0.73 1.21 0.7 1.23 0.67 1.25 0.64 1.27 0.62 1.29 0.59 1.3 0.56 1.32 0.53 1.33 0.5 1.34 0.47 1.35 0.44 1.35 0.41 1.36 0.38 1.36 0.35 1.36 0.32 1.36 0.29 1.36 0.26 1.35 0.22 1.34 0.19 1.34 0 0zm-11.79 50.25l-0.33 -0.18 0 0 0.75 -1.42 0.74 -1.41 0.73 -1.4 0.71 -1.4 0.7 -1.4 0.68 -1.39 0.67 -1.39 0.65 -1.39 0.63 -1.4 0.61 -1.4 0.58 -1.41 0.56 -1.42 0.53 -1.43 0.5 -1.44 0.48 -1.46 0.45 -1.47 0.41 -1.49 0.38 -1.51 0.35 -1.53 0.31 -1.56 0.27 -1.59 0.23 -1.61 0.19 -1.64 0.15 -1.67 0.11 -1.71 0.06 -1.74 0.01 -1.78 -0.03 -1.82 -0.08 -1.86 -0.13 -1.9 -0.19 -1.95 -0.24 -1.99 0.37 -0.05 0.24 2 0.19 1.96 0.13 1.91 0.08 1.87 0.03 1.83 -0.01 1.79 -0.06 1.75 -0.11 1.72 -0.15 1.68 -0.19 1.65 -0.23 1.62 -0.27 1.59 -0.31 1.57 -0.35 1.54 -0.38 1.52 -0.42 1.5 -0.45 1.48 -0.48 1.47 -0.51 1.45 -0.53 1.44 -0.56 1.43 -0.59 1.42 -0.61 1.41 -0.63 1.4 -0.65 1.4 -0.67 1.4 -0.68 1.4 -0.7 1.4 -0.71 1.4 -0.73 1.41 -0.74 1.41 -0.75 1.42 0 0zm-12.77 50.29l-0.37 -0.05 0 0 0.3 -2.07 0.28 -2 0.26 -1.93 0.25 -1.86 0.24 -1.8 0.23 -1.75 0.23 -1.69 0.22 -1.65 0.22 -1.6 0.22 -1.56 0.23 -1.52 0.23 -1.49 0.24 -1.47 0.25 -1.44 0.27 -1.42 0.28 -1.41 0.3 -1.4 0.32 -1.39 0.35 -1.39 0.38 -1.39 0.41 -1.39 0.44 -1.4 0.47 -1.41 0.51 -1.43 0.55 -1.45 0.59 -1.48 0.63 -1.51 0.68 -1.54 0.73 -1.58 0.78 -1.62 0.83 -1.67 0.89 -1.72 0.33 0.18 -0.89 1.71 -0.83 1.66 -0.78 1.61 -0.73 1.57 -0.68 1.53 -0.63 1.5 -0.59 1.47 -0.54 1.44 -0.51 1.42 -0.47 1.41 -0.43 1.39 -0.4 1.39 -0.37 1.38 -0.35 1.38 -0.32 1.38 -0.3 1.39 -0.28 1.4 -0.27 1.42 -0.25 1.44 -0.24 1.46 -0.23 1.49 -0.23 1.52 -0.22 1.56 -0.22 1.6 -0.22 1.64 -0.23 1.69 -0.23 1.75 -0.24 1.8 -0.25 1.86 -0.26 1.93 -0.28 2 -0.3 2.07 0 0zm-19.16 43.41l-0.19 0.32 0.04 -0.34 0.89 -0.35 0.89 -0.51 0.88 -0.67 0.87 -0.82 0.86 -0.96 0.85 -1.08 0.83 -1.2 0.82 -1.31 0.8 -1.4 0.78 -1.49 0.76 -1.57 0.74 -1.63 0.72 -1.69 0.7 -1.73 0.67 -1.77 0.65 -1.79 0.62 -1.8 0.6 -1.81 0.57 -1.8 0.54 -1.78 0.51 -1.75 0.48 -1.72 0.45 -1.67 0.42 -1.61 0.38 -1.54 0.35 -1.46 0.31 -1.37 0.28 -1.27 0.24 -1.16 0.2 -1.04 0.16 -0.91 0.12 -0.77 0.37 0.05 -0.12 0.78 -0.16 0.92 -0.2 1.05 -0.24 1.17 -0.28 1.28 -0.31 1.38 -0.35 1.47 -0.38 1.54 -0.42 1.61 -0.45 1.67 -0.48 1.72 -0.51 1.76 -0.54 1.79 -0.57 1.8 -0.6 1.81 -0.62 1.81 -0.65 1.79 -0.67 1.77 -0.7 1.74 -0.72 1.69 -0.74 1.64 -0.77 1.58 -0.79 1.5 -0.81 1.42 -0.82 1.32 -0.84 1.22 -0.86 1.1 -0.88 0.98 -0.9 0.84 -0.91 0.7 -0.93 0.54 -0.95 0.37 0.04 -0.34zm-0.19 0.32l-0.37 -0.22 0.42 -0.12 -0.04 0.34z"/>
    </g>
    <g>
     <path class="fil4" d="M172.92 297.26c3.14,4.54 10.5,1.83 12.33,-1.19 2.29,-3.78 1.69,-11.34 1.69,-16.41 -0,-15.27 -0.92,-18.86 4.31,-31.56 -5.13,3.43 -7.56,2.57 -10.69,7.22 -7.69,11.45 -3.5,26.27 -4.97,37.08 -0.9,6.58 -2.49,4.84 -2.67,4.85z"/>
     <path id="_1_1" class="fil5" d="M185.08 295.98l0.32 0.19 0 0 -0.2 0.29 -0.23 0.29 -0.26 0.28 -0.28 0.28 -0.31 0.27 -0.33 0.26 -0.35 0.25 -0.37 0.24 -0.39 0.23 -0.41 0.21 -0.42 0.2 -0.43 0.18 -0.44 0.16 -0.46 0.15 -0.46 0.12 -0.47 0.1 -0.47 0.08 -0.47 0.06 -0.48 0.03 -0.47 0.01 -0.47 -0.02 -0.47 -0.05 -0.46 -0.08 -0.45 -0.11 -0.44 -0.15 -0.43 -0.18 -0.42 -0.22 -0.4 -0.26 -0.38 -0.29 -0.36 -0.34 -0.34 -0.38 -0.32 -0.42 0.31 -0.21 0.3 0.39 0.32 0.35 0.34 0.31 0.36 0.27 0.37 0.24 0.39 0.2 0.4 0.17 0.42 0.14 0.43 0.11 0.44 0.08 0.44 0.05 0.45 0.02 0.45 -0.01 0.45 -0.03 0.46 -0.06 0.45 -0.08 0.45 -0.1 0.45 -0.12 0.44 -0.14 0.43 -0.16 0.42 -0.18 0.41 -0.19 0.39 -0.2 0.38 -0.22 0.36 -0.23 0.34 -0.24 0.31 -0.25 0.29 -0.26 0.27 -0.26 0.24 -0.26 0.21 -0.27 0.18 -0.27 0 0zm1.67 -16.31l0.38 0 0 0 0 0.48 0 0.49 0.01 0.51 0.01 0.52 0.01 0.53 0.01 0.54 0.01 0.55 0.01 0.55 0.01 0.56 0 0.56 0 0.57 -0 0.57 -0.01 0.57 -0.01 0.57 -0.02 0.57 -0.02 0.56 -0.03 0.56 -0.04 0.56 -0.04 0.55 -0.05 0.54 -0.06 0.54 -0.07 0.53 -0.08 0.52 -0.09 0.51 -0.11 0.49 -0.12 0.48 -0.13 0.47 -0.15 0.45 -0.16 0.43 -0.18 0.41 -0.2 0.4 -0.21 0.37 -0.32 -0.19 0.2 -0.36 0.19 -0.38 0.17 -0.4 0.16 -0.42 0.14 -0.44 0.13 -0.45 0.12 -0.47 0.11 -0.48 0.09 -0.5 0.08 -0.51 0.07 -0.52 0.06 -0.53 0.05 -0.54 0.04 -0.55 0.04 -0.55 0.03 -0.56 0.02 -0.56 0.02 -0.56 0.01 -0.57 0.01 -0.57 0 -0.57 -0 -0.56 -0 -0.56 -0.01 -0.56 -0.01 -0.55 -0.01 -0.55 -0.01 -0.54 -0.01 -0.53 -0.01 -0.52 -0.01 -0.51 -0 -0.5 -0 -0.48 0 0zm4.6 -31.4l-0.21 -0.31 0.28 0.23 -0.47 1.16 -0.44 1.11 -0.4 1.07 -0.37 1.02 -0.34 0.99 -0.31 0.95 -0.28 0.92 -0.26 0.89 -0.23 0.87 -0.21 0.85 -0.18 0.84 -0.16 0.82 -0.14 0.82 -0.12 0.81 -0.1 0.81 -0.09 0.82 -0.07 0.82 -0.06 0.84 -0.05 0.85 -0.03 0.87 -0.02 0.89 -0.01 0.92 -0.01 0.95 -0 0.99 0 1.02 0.01 1.07 0.01 1.11 0.01 1.16 0.01 1.22 0.01 1.27 0.01 1.33 0 1.4 -0.38 0 -0 -1.4 -0.01 -1.33 -0.01 -1.27 -0.01 -1.22 -0.01 -1.16 -0.01 -1.11 -0.01 -1.07 -0 -1.03 0 -0.99 0.01 -0.95 0.01 -0.92 0.02 -0.9 0.03 -0.88 0.05 -0.86 0.06 -0.84 0.07 -0.83 0.09 -0.82 0.11 -0.82 0.12 -0.82 0.14 -0.83 0.16 -0.83 0.18 -0.84 0.21 -0.86 0.23 -0.88 0.26 -0.9 0.28 -0.93 0.31 -0.96 0.34 -0.99 0.37 -1.03 0.41 -1.07 0.44 -1.12 0.47 -1.17 0.28 0.23zm-0.21 -0.31l0.51 -0.34 -0.24 0.57 -0.28 -0.23zm-10.43 7.49l-0.31 -0.21 0 -0 0.29 -0.42 0.29 -0.4 0.29 -0.37 0.29 -0.34 0.28 -0.31 0.29 -0.29 0.28 -0.27 0.29 -0.25 0.29 -0.23 0.29 -0.22 0.29 -0.2 0.29 -0.19 0.3 -0.18 0.3 -0.17 0.3 -0.16 0.31 -0.15 0.31 -0.15 0.32 -0.15 0.33 -0.15 0.33 -0.15 0.34 -0.15 0.35 -0.16 0.36 -0.16 0.37 -0.17 0.38 -0.18 0.39 -0.2 0.4 -0.21 0.41 -0.22 0.43 -0.24 0.44 -0.26 0.45 -0.28 0.47 -0.31 0.21 0.31 -0.48 0.31 -0.46 0.29 -0.45 0.27 -0.43 0.25 -0.42 0.23 -0.41 0.21 -0.39 0.2 -0.38 0.18 -0.37 0.17 -0.36 0.16 -0.35 0.16 -0.34 0.15 -0.33 0.15 -0.32 0.15 -0.31 0.14 -0.31 0.15 -0.3 0.15 -0.29 0.15 -0.29 0.16 -0.29 0.17 -0.28 0.18 -0.28 0.19 -0.28 0.21 -0.28 0.22 -0.27 0.24 -0.27 0.26 -0.27 0.28 -0.28 0.3 -0.28 0.33 -0.28 0.36 -0.28 0.38 -0.29 0.42 0 -0zm-4.94 37l-0.37 -0.05 0 0 0.12 -1.02 0.09 -1.04 0.07 -1.06 0.04 -1.08 0.02 -1.1 0 -1.12 -0.01 -1.13 -0.02 -1.15 -0.03 -1.16 -0.03 -1.17 -0.03 -1.19 -0.03 -1.19 -0.03 -1.2 -0.02 -1.21 -0.01 -1.21 0.01 -1.22 0.03 -1.22 0.05 -1.22 0.07 -1.22 0.1 -1.22 0.13 -1.22 0.17 -1.21 0.21 -1.21 0.25 -1.2 0.29 -1.19 0.34 -1.18 0.39 -1.17 0.44 -1.16 0.5 -1.14 0.56 -1.13 0.62 -1.11 0.69 -1.09 0.31 0.21 -0.68 1.07 -0.62 1.09 -0.55 1.11 -0.49 1.13 -0.44 1.14 -0.38 1.15 -0.33 1.17 -0.29 1.18 -0.24 1.19 -0.2 1.19 -0.17 1.2 -0.13 1.21 -0.1 1.21 -0.07 1.21 -0.05 1.22 -0.03 1.21 -0.01 1.21 0.01 1.21 0.02 1.21 0.03 1.2 0.03 1.19 0.03 1.19 0.03 1.18 0.03 1.17 0.02 1.15 0.01 1.14 -0 1.12 -0.02 1.11 -0.04 1.09 -0.07 1.07 -0.09 1.05 -0.12 1.03 0 0zm-2.71 4.72l-0.31 0.21 0.15 -0.29 0.09 0.01 0.05 0.02 0.04 0.02 0.04 0.02 0.05 0.03 0.05 0.03 0.05 0.02 0.06 0.02 0.06 0.02 0.06 0.01 0.06 0 0.06 -0 0.07 -0.01 0.07 -0.02 0.08 -0.04 0.08 -0.05 0.09 -0.07 0.09 -0.09 0.09 -0.11 0.1 -0.14 0.1 -0.17 0.1 -0.2 0.1 -0.23 0.1 -0.26 0.1 -0.3 0.1 -0.33 0.1 -0.37 0.1 -0.41 0.1 -0.45 0.09 -0.5 0.09 -0.54 0.09 -0.59 0.37 0.05 -0.09 0.6 -0.09 0.55 -0.09 0.51 -0.1 0.46 -0.1 0.42 -0.1 0.38 -0.1 0.35 -0.11 0.31 -0.11 0.28 -0.11 0.25 -0.11 0.22 -0.11 0.19 -0.11 0.16 -0.11 0.14 -0.12 0.12 -0.12 0.1 -0.12 0.08 -0.12 0.06 -0.12 0.04 -0.11 0.02 -0.11 0.01 -0.1 -0.01 -0.1 -0.02 -0.09 -0.02 -0.08 -0.03 -0.07 -0.03 -0.06 -0.03 -0.05 -0.03 -0.04 -0.02 -0.03 -0.02 -0.01 -0 0.04 0.01 0.15 -0.29zm-0.31 0.21l-0.2 -0.29 0.35 -0.01 -0.15 0.29z"/>
    </g>
   </g>
  </g>
 </g>
</svg>
