<?xml version="1.0" encoding="UTF-8"?>
<!DOCTYPE svg PUBLIC "-//W3C//DTD SVG 1.0//EN" "http://www.w3.org/TR/2001/REC-SVG-20010904/DTD/svg10.dtd">
<!-- Creator: CorelDRAW 2023 (Not for commercial use) -->
<svg xmlns="http://www.w3.org/2000/svg" xml:space="preserve" width="1.77602in" height="2.00581in" version="1.0" style="shape-rendering:geometricPrecision; text-rendering:geometricPrecision; image-rendering:optimizeQuality; fill-rule:evenodd; clip-rule:evenodd"
viewBox="0 0 99.89 112.82"
 xmlns:xlink="http://www.w3.org/1999/xlink"
 xmlns:xodm="http://www.corel.com/coreldraw/odm/2003">
 <defs>
  <style type="text/css">
   <![CDATA[
    .str0 {stroke:#2B2A29;stroke-width:2.34;stroke-miterlimit:2.61313}
    .fil0 {fill:#FEFEFE}
    .fil1 {fill:#78909C}
    .fil2 {fill:white}
   ]]>
  </style>
 </defs>
 <g id="Layer_x0020_1">
  <metadata id="CorelCorpID_0Corel-Layer"/>
  <g id="_2182923261920">
   <g>
    <path class="fil0 str0" d="M1.17 48.65l0 2.16c0,6.96 4.49,15.75 7.38,20.03l7.23 9.82 11.56 12.4 18.41 15.9c4.45,3.47 3.8,3.67 8.26,0.1 0.67,-0.54 1.27,-0.97 1.94,-1.51l16.49 -14.38c2.73,-2.73 4.33,-4.2 6.8,-7.01 3.31,-3.75 6.35,-6.94 9.33,-11.17l2.76 -4.14c2.88,-4.27 7.38,-13.09 7.38,-20.03 0,-6.52 -0.65,-11.03 -2.67,-16.97 -0.88,-2.59 -2.44,-5.78 -3.74,-8.13 -0.72,-1.31 -1.51,-2.46 -2.36,-3.69 -3.11,-4.5 -4.99,-6.03 -8.45,-9.25 -2.5,-2.32 -7.87,-5.74 -10.85,-7.06 -6.2,-2.76 -12.32,-4.26 -18.43,-4.54l-4.26 0c-6.16,0.28 -12.34,1.79 -18.59,4.47 -7.21,3.09 -14.87,9.9 -19.36,16.25 -5.36,7.57 -8.85,17.37 -8.85,26.76z"/>
    <path class="fil0 str0" d="M22.54 49.95c0,4.73 1.53,10.13 3.57,13.48 2.15,3.51 4.69,6.6 8.12,8.93 0.75,0.51 1.34,0.89 2.1,1.35 0.89,0.54 1.28,0.66 2.31,1.14 7.4,3.46 17.62,3.33 24.64,-0.97 0.79,-0.48 1.32,-0.82 2.11,-1.34 16.31,-10.84 16.65,-37.18 -3.65,-47.33 -17.18,-8.59 -39.21,4.03 -39.21,24.75z"/>
   </g>
   <path class="fil1" d="M45.1 9.98c-12.02,1.79 -19.55,7.17 -25.13,13.76 -5.72,6.76 -10.17,17.5 -8.69,29.62 2.42,19.84 20.54,36.69 43.54,33.87 19.56,-2.4 36.6,-20.52 33.77,-43.32 -2.68,-21.63 -22.86,-37.01 -43.5,-33.93z"/>
   <path class="fil2" d="M54.78 73.83c3.77,-4.69 27.1,-26.96 27.17,-28.34 -0.56,-1.73 -2.24,-2.19 -2,-4.84 0.23,-2.45 1.94,-3.11 1.96,-4.95 -1.45,-1.26 -25.21,-10.08 -29.26,-11.61 -3.94,-1.49 -3.44,-1.15 -9.14,3.94 -3.65,3.26 -24.03,19.86 -24.83,21.35 -1.41,2.63 -0.64,5.77 0.73,7.96 1.2,1.93 4.05,2.63 6.64,3.85 3.8,1.79 26.57,12.52 28.73,12.65z"/>
   <path class="fil1" d="M53.88 72.47c1.4,-0.53 13.95,-13.87 16.8,-16.59l9.89 -10.39c-0.68,-1.2 -1.66,-1.7 -1.81,-3.85 -0.14,-2.05 0.45,-3 1.1,-4.46 -2.9,2.11 -5.47,5.27 -8.32,7.67 -3.82,3.22 -12.27,11.86 -16.48,15.69 -1.7,1.54 -2.71,1.82 -2.84,5.23 -0.12,3.02 0.7,4.48 1.65,6.7z"/>
   <path class="fil1" d="M52.13 71.6c-1.51,-4.04 -1.03,-4.24 -0.87,-8.56 -3.2,-0.89 -29.95,-12.72 -30.71,-12.86 -2.18,-0.42 -1.33,3.66 -1.05,4.62 0.92,3.12 4.11,3.97 7.03,5.22 3.99,1.71 23.69,11.11 25.6,11.58z"/>
   <path class="fil1" d="M47.09 35.99l13.19 5.58c0.95,-0.76 1.9,-1.57 2.66,-2.46 -1.15,-0.85 -6.56,-2.68 -8.28,-3.39 -5.12,-2.1 -4.32,-2.78 -7.57,0.27z"/>
   <path class="fil2" d="M59.4 64.23c1.58,0 12.76,-11.84 15.11,-13.97 1.26,-1.14 4.41,-3.5 4.64,-5.12 -1.43,-0.02 -3.71,2.69 -5.46,4.28l-12.48 12.01c-0.88,0.81 -2.06,1.32 -1.8,2.79z"/>
   <path class="fil2" d="M64.78 55.76c2.26,-0.15 1.09,-0.52 3.78,-2.7 1.27,-1.03 2.19,-1.78 3.29,-3.02 1.04,-1.19 6.31,-5.08 6.03,-6.34l-0.45 -0.1c-0.94,0.12 -4.63,3.92 -6.3,5.38l-4.9 4.54c-1.14,0.98 -1.21,0.64 -1.44,2.24z"/>
   <path class="fil2" d="M26 55.98c0.13,1.33 -0.66,0.48 0.86,1.24 1.86,0.93 10.88,4.72 11.72,4.36 -0.18,-1.04 1,-0.43 -2.63,-1.88 -2.49,-1 -8.76,-4.19 -9.95,-3.72z"/>
  </g>
 </g>
</svg>
