<?xml version="1.0" encoding="UTF-8"?>
<!DOCTYPE svg PUBLIC "-//W3C//DTD SVG 1.0//EN" "http://www.w3.org/TR/2001/REC-SVG-20010904/DTD/svg10.dtd">
<!-- Creator: CorelDRAW 2023 (Not for commercial use) -->
<svg xmlns="http://www.w3.org/2000/svg" xml:space="preserve" width="1.77602in" height="2.00581in" version="1.0" style="shape-rendering:geometricPrecision; text-rendering:geometricPrecision; image-rendering:optimizeQuality; fill-rule:evenodd; clip-rule:evenodd"
viewBox="0 0 468.84 529.5"
 xmlns:xlink="http://www.w3.org/1999/xlink"
 xmlns:xodm="http://www.corel.com/coreldraw/odm/2003">
 <defs>
  <style type="text/css">
   <![CDATA[
    .str0 {stroke:#2B2A29;stroke-width:11;stroke-miterlimit:2.61313}
    .str2 {stroke:#C5C6C6;stroke-width:0.79;stroke-miterlimit:2.61313}
    .str1 {stroke:#898989;stroke-width:0.79;stroke-miterlimit:2.61313}
    .fil0 {fill:#FEFEFE}
    .fil4 {fill:#C5C6C6}
    .fil3 {fill:#898989}
    .fil1 {fill:#F74A55}
    .fil2 {fill:white}
   ]]>
  </style>
 </defs>
 <g id="Layer_x0020_1">
  <metadata id="CorelCorpID_0Corel-Layer"/>
  <g id="_2218594555040">
   <g>
    <path class="fil0 str0" d="M5.5 228.35l0 10.13c0,32.65 21.07,73.9 34.64,94l33.92 46.1 54.26 58.18 86.43 74.62c20.89,16.31 17.82,17.21 38.78,0.45 3.16,-2.53 5.95,-4.56 9.12,-7.09l77.37 -67.48c12.82,-12.82 20.31,-19.74 31.91,-32.91 15.52,-17.62 29.79,-32.58 43.8,-52.43l12.97 -19.45c13.54,-20.05 34.64,-61.45 34.64,-94 0,-30.58 -3.04,-51.78 -12.52,-79.65 -4.14,-12.17 -11.43,-27.12 -17.54,-38.17 -3.4,-6.15 -7.08,-11.56 -11.05,-17.31 -14.59,-21.12 -23.42,-28.29 -39.66,-43.4 -11.72,-10.9 -36.92,-26.93 -50.91,-33.16 -29.1,-12.96 -57.81,-19.97 -86.5,-21.28l-20 0c-28.93,1.33 -57.89,8.41 -87.26,20.98 -33.85,14.5 -69.79,46.46 -90.87,76.27 -25.13,35.54 -41.53,81.51 -41.53,125.6z"/>
    <path class="fil0 str0" d="M105.78 234.42c0,22.21 7.17,47.54 16.78,63.25 10.09,16.49 22.01,31 38.11,41.91 3.5,2.37 6.31,4.18 9.88,6.33 4.18,2.52 6.02,3.08 10.86,5.35 34.71,16.24 82.67,15.61 115.64,-4.57 3.71,-2.27 6.21,-3.84 9.91,-6.3 76.52,-50.88 78.15,-174.48 -17.15,-222.12 -80.65,-40.32 -184.03,18.91 -184.03,116.16z"/>
   </g>
   <path class="fil1" d="M211.65 49.55c-56.42,8.41 -91.74,33.64 -117.93,64.6 -26.85,31.74 -47.73,82.14 -40.78,139.03 11.38,93.11 96.4,172.19 204.35,158.95 91.81,-11.26 171.76,-96.33 158.5,-203.3 -12.58,-101.54 -107.27,-173.7 -204.14,-159.27z"/>
   <path class="fil2" d="M187.36 201.93c10.11,22.23 4.39,26.79 25.65,48.65 21.06,21.64 27.94,16.85 48.34,26.42 -3.46,7.77 -39.92,42.8 -48.39,49.6 -21,16.83 -51.62,14.77 -70.56,-4.17 -42.15,-42.15 11.18,-94.25 44.96,-120.5zm147.36 -21.05c-8.45,46.12 -36.4,38.53 -25.82,24.04 9.11,-12.47 11.38,-8.14 13.32,-26.67 1.77,-16.87 15.55,-13.98 12.51,2.63zm-17.34 -33.43c2.68,-9.91 16.96,-8.51 15.93,2.25 -0.97,10.11 -15.47,10.28 -15.93,-2.25zm-39.63 -33.43c-35.36,5.75 -98.53,81.63 -126,109.28 -23.54,23.69 -44.22,42.8 -32.44,80.18 9.89,31.38 39.88,49.04 72.21,43.9 31.23,-4.97 100.23,-84.35 125.54,-109.83 23.53,-23.69 44.22,-42.8 32.44,-80.18 -10.03,-31.82 -39.09,-48.65 -71.75,-43.34z"/>
   <path class="fil3 str1" d="M212.96 326.59c8.47,-6.79 44.93,-41.83 48.4,-49.6 -20.4,-9.58 -27.28,-4.78 -48.34,-26.42 -21.27,-21.86 -15.54,-26.42 -25.65,-48.65 -33.78,26.24 -87.11,78.34 -44.96,120.5 18.94,18.94 49.56,21 70.56,4.17z"/>
   <path class="fil4 str2" d="M308.9 204.92c-10.58,14.49 17.37,22.08 25.82,-24.04 3.04,-16.61 -10.74,-19.5 -12.5,-2.63 -1.94,18.53 -4.21,14.2 -13.32,26.67z"/>
   <path class="fil4 str2" d="M317.39 147.44c0.46,12.53 14.96,12.36 15.93,2.25 1.03,-10.77 -13.24,-12.17 -15.93,-2.25z"/>
  </g>
 </g>
</svg>
