<?xml version="1.0" encoding="UTF-8"?>
<!DOCTYPE svg PUBLIC "-//W3C//DTD SVG 1.0//EN" "http://www.w3.org/TR/2001/REC-SVG-20010904/DTD/svg10.dtd">
<!-- Creator: CorelDRAW 2023 (Not for commercial use) -->
<svg xmlns="http://www.w3.org/2000/svg" xml:space="preserve" width="1.77602in" height="2.00581in" version="1.0" style="shape-rendering:geometricPrecision; text-rendering:geometricPrecision; image-rendering:optimizeQuality; fill-rule:evenodd; clip-rule:evenodd"
viewBox="0 0 86.74 97.96"
 xmlns:xlink="http://www.w3.org/1999/xlink"
 xmlns:xodm="http://www.corel.com/coreldraw/odm/2003">
 <defs>
  <style type="text/css">
   <![CDATA[
    .str0 {stroke:#2B2A29;stroke-width:2.03;stroke-miterlimit:2.61313}
    .str1 {stroke:#FEFEFE;stroke-width:0.34;stroke-miterlimit:2.61313}
    .str2 {stroke:#FEFEFE;stroke-width:0.15;stroke-miterlimit:2.61313}
    .fil0 {fill:#FEFEFE}
    .fil1 {fill:#78909C}
   ]]>
  </style>
 </defs>
 <g id="Layer_x0020_1">
  <metadata id="CorelCorpID_0Corel-Layer"/>
  <g id="_2183063991440">
   <g>
    <path class="fil0 str0" d="M1.02 42.25l0 1.87c0,6.04 3.9,13.67 6.41,17.39l6.28 8.53 10.04 10.76 15.99 13.81c3.86,3.02 3.3,3.18 7.18,0.08 0.59,-0.47 1.1,-0.84 1.69,-1.31l14.31 -12.48c2.37,-2.37 3.76,-3.65 5.9,-6.09 2.87,-3.26 5.51,-6.03 8.1,-9.7l2.4 -3.6c2.5,-3.71 6.41,-11.37 6.41,-17.39 0,-5.66 -0.56,-9.58 -2.32,-14.74 -0.77,-2.25 -2.12,-5.02 -3.25,-7.06 -0.63,-1.14 -1.31,-2.14 -2.04,-3.2 -2.7,-3.91 -4.33,-5.23 -7.34,-8.03 -2.17,-2.02 -6.83,-4.98 -9.42,-6.13 -5.38,-2.4 -10.7,-3.69 -16,-3.94l-3.7 0c-5.35,0.25 -10.71,1.56 -16.14,3.88 -6.26,2.68 -12.91,8.6 -16.81,14.11 -4.65,6.58 -7.68,15.08 -7.68,23.24z"/>
    <path class="fil0 str0" d="M19.57 43.37c0,4.11 1.33,8.8 3.1,11.7 1.87,3.05 4.07,5.73 7.05,7.75 0.65,0.44 1.17,0.77 1.83,1.17 0.77,0.47 1.11,0.57 2.01,0.99 6.42,3.01 15.3,2.89 21.39,-0.85 0.69,-0.42 1.15,-0.71 1.83,-1.16 14.16,-9.41 14.46,-32.28 -3.17,-41.1 -14.92,-7.46 -34.05,3.5 -34.05,21.49z"/>
   </g>
   <path class="fil1" d="M39.16 8.67c-10.44,1.56 -16.97,6.22 -21.82,11.95 -4.97,5.87 -8.83,15.2 -7.54,25.72 2.11,17.23 17.84,31.86 37.81,29.41 16.99,-2.08 31.78,-17.82 29.33,-37.61 -2.33,-18.79 -19.85,-32.14 -37.77,-29.47z"/>
   <g>
    <rect class="fil0 str1" x="49.82" y="37.66" width="14.22" height="23.17"/>
    <path class="fil0" d="M64.81 60.83l0.06 -1.2 -0.36 0.19c-0.04,0.02 -0.07,0.03 -0.12,0.04l-13.69 0.04c0.14,-1.14 -0,-2.89 -0.01,-4.05 -0,-0.95 0.14,-2.75 -0,-3.98l5.55 -0c0.23,0 0.69,-0.02 0.88,0 0.44,0.06 0.05,0.06 0.28,0.28 4.21,-0.14 2.59,0.04 3.33,1.92l-0.01 1.52c-0.73,-0.18 -1.36,-0.02 -2.2,-0.08 0.27,0.3 0.08,0.26 0.55,0.37 0.53,0.13 0.13,0.04 0.34,-0.08 -0.06,0.54 -0.12,0.05 -0.25,0.74l0.25 0.16c0.21,0.19 0.46,1.03 0.47,1.21 0,0.01 -0.01,0.07 -0.01,0.06 0,-0.01 -0,0.04 -0.01,0.05 0,-1.26 0.15,-1.2 0.81,-1.21 0.18,0.24 0.09,0.06 0.19,0.39l0.18 1.02c0.38,-0.21 0.17,0.75 0.17,-1.42 0.39,0.05 1.13,-0.19 0.54,0.4 0.33,-0.5 0.18,-0.36 0.94,-0.4 -0.02,0.06 -0.04,0.11 -0.07,0.16 -0.02,0.05 -0.04,0.1 -0.06,0.15l-0.21 0.38c-0.1,0.31 0.49,0.08 0.07,0.38l0.67 -0.27c-0.09,0.29 -0.34,0.17 -0.54,-0.4l0.94 0c0.12,0.32 0.23,0.5 0.06,0.89 -0.07,-1.96 0.61,-1.39 -0.3,-2.37 0.19,-1.3 0.03,-0.68 0.04,-1.59l0.5 -0.24 -0.04 -2.14 -0.07 -14.1c-1.07,-0.14 -8.29,-0.02 -10.4,-0 -2.05,0.02 -1.92,0.26 -2.8,-0.64 -1.21,-1.23 -2.35,-2.34 -3.57,-3.57 -0.68,-0.69 -2.96,-3.11 -3.58,-3.46 -0.71,0.41 -1.49,1.39 -2.1,2 -0.68,0.69 -1.26,1.27 -1.95,1.95 -1.33,1.32 -2.56,2.6 -3.88,3.92l-12.35 -0.02 -0.02 20.14 -1.26 -0.02 0.02 2.87 43.02 0.01z"/>
    <path class="fil0" d="M26.1 27.78l-3.22 6.41c-0.34,0.74 -0.76,1.47 -1.06,2.26 3.1,-0.14 7.8,-0.03 11.17,-0.02 2.14,0 1.64,0.07 2.76,-1.05 0.6,-0.6 7.07,-7.21 7.58,-7.5 0.57,0.35 6.97,6.82 7.99,7.9 0.62,0.65 0.47,0.65 1.69,0.65l11.86 0.01c-0.5,-1.34 -1.46,-3.04 -2.14,-4.4 -0.63,-1.26 -1.45,-3.16 -2.15,-4.27l-11.9 0.01c-1.42,0 -1.01,-0.12 -2.81,-1.87l-1.81 -1.81c-0.09,-0.09 -0.19,-0.2 -0.27,-0.27 -0.29,-0.25 -0.11,-0.13 -0.45,-0.32 -0.68,0.35 -3.33,3.3 -4.05,3.97 -0.52,0.48 -1.53,0.3 -2.4,0.3 -3.6,-0 -7.2,0.01 -10.79,0z"/>
    <path class="fil1" d="M39.26 57.94l8.16 0.02c0.05,-1.8 0.19,-5.62 -0.03,-7.23 -0.26,-1.93 -1.95,-3.52 -4.05,-3.52 -2.11,-0 -3.71,1.54 -4.03,3.41 -0.22,1.3 -0.12,5.82 -0.05,7.33z"/>
    <path class="fil1" d="M42.45 36.09c-4.1,1.35 -2.09,7.17 1.87,5.95 1.46,-0.45 2.58,-2.04 2,-3.97 -0.48,-1.57 -2.21,-2.53 -3.87,-1.99z"/>
    <path class="fil0 str2" d="M58.52 55.51c0.84,0.06 1.47,-0.1 2.2,0.08l0.01 -1.52c-0.74,-1.87 0.88,-2.05 -3.33,-1.92 -0.25,0.43 -0.2,1.1 -0.19,1.72 -0.02,-0.02 -0.04,-0.1 -0.05,-0.08 -0.15,0.31 0.12,-0.22 -0.52,-0.42 -0.08,0.14 -0.27,0.41 -0.29,0.6 -0.08,0.7 -0.02,-0.08 0.1,0.69 0.15,0.99 -0.17,0.98 0.86,0.78l0.27 0.76c0.68,-0.27 0.44,-0.55 0.94,-0.71z"/>
    <path class="fil1" d="M51.53 42.29c0,2.73 -0.68,2.48 3.31,2.27 0.49,-4.14 -0.32,-3.33 -1.43,-3.33 -2.14,0 -1.88,-0.19 -1.88,1.06z"/>
    <path class="fil1" d="M27.35 50.07c2.54,0 2.57,0.78 2.28,-3.31 -4.14,-0.4 -3.33,0.16 -3.33,1.58 0,1.46 -0.37,1.74 1.05,1.74z"/>
    <path class="fil1" d="M51.53 47.66c0,2.96 -0.18,2.42 1.62,2.41 1.87,-0.01 1.93,0.54 1.77,-2.68l-0.06 -0.61c-0.68,-0.19 -1.43,-0.1 -2.12,-0.11 -1.24,-0.02 -1.21,-0.19 -1.21,0.98z"/>
    <path class="fil1" d="M26.37 52.2c-0.13,0.77 -0.07,1.55 -0.07,2.33 0,1.16 -0.06,1.03 1.18,1.02 0.69,-0.01 1.55,0.04 2.15,-0.07 0.36,-3.74 0,-3.34 -1.19,-3.33 -0.43,0.01 -1.82,-0.04 -2.06,0.06z"/>
    <path class="fil1" d="M32.72 44.62l2.53 -0.05c0.14,-0.64 0.09,-1.85 0.09,-2.57 -0,-0.99 -0.01,-0.76 -1.95,-0.78 -1.43,-0.01 -1.59,-0.53 -1.47,2.69 0.03,0.69 0.09,0.7 0.8,0.7z"/>
    <path class="fil1" d="M32.09 55.46c0.53,0.14 1.53,0.07 2.12,0.07 1.26,0.02 1.29,0.29 1.07,-3.3l-1.89 -0.1c-1.18,-0 -1.46,-0.28 -1.46,0.89 -0,0.71 -0.17,1.91 0.16,2.43z"/>
    <path class="fil1" d="M57.27 46.82c-0.19,0.58 -0.09,1.51 -0.1,2.2 -0.02,1.34 -0.21,1.06 2.69,1.06 0.85,0 0.77,-0.07 0.69,-2.41l-0.06 -0.89c-0.72,-0.12 -2.65,-0.22 -3.23,0.04z"/>
    <path class="fil1" d="M26.3 42.02c0,2.93 -0.74,2.76 3.31,2.55l0.09 -2.28c-0.01,-1.27 0.32,-1.06 -2.35,-1.06 -0.86,-0 -1.05,-0.14 -1.05,0.79z"/>
    <path class="fil1" d="M31.94 47.53c0,2.99 -0.5,2.54 2.39,2.54 1.16,0 1.02,0.02 1,-1.19 -0.01,-0.67 0.06,-1.56 -0.09,-2.11l-2.52 -0.09c-0.83,-0 -0.78,0.06 -0.78,0.85z"/>
    <path class="fil1" d="M58.39 44.62l2.08 -0.08 0.09 -2.26c0,-1.15 0.09,-1.08 -1.09,-1.06 -2.86,0.04 -2.25,-0.4 -2.3,2.28 -0.02,1.3 -0.06,1.12 1.21,1.12z"/>
    <path class="fil0" d="M52.4 55.49c0.05,-0.26 -0.07,-0.74 0.05,-1.21 0.01,-0.04 0.03,-0.08 0.04,-0.12 0.09,-0.29 0.79,-0.54 1.33,-0.06l0.16 0.2c0.16,-0.57 0.32,-0.51 0.97,-0.36 -0.04,-0.77 0.08,-1.58 -0.19,-1.77 -0.65,-0.15 -2.59,-0.24 -3.06,0.1 -0.34,0.29 -0.19,1.2 -0.2,1.98 -0.01,1.12 -0.19,1.25 0.89,1.23z"/>
    <path class="fil0" d="M42.91 38.77c-0.57,0.02 -1.68,0.21 -0.89,0.92 0.08,0.07 1.28,0.47 1.8,-0.18 0.34,-0.35 0.24,-2.45 -0.05,-2.78 -0.34,-0.38 -0.73,-0.1 -0.83,0.32 -0.07,0.27 -0.02,1.36 -0.02,1.72z"/>
    <path class="fil1" d="M51.42 53.11c0,2.96 -0.18,2.42 1.62,2.41 1.87,-0.01 1.93,0.54 1.77,-2.68l-0.06 -0.61c-0.68,-0.19 -1.43,-0.1 -2.12,-0.11 -1.24,-0.02 -1.21,-0.19 -1.21,0.98z"/>
    <path class="fil1" d="M57.15 52.26c-0.19,0.58 -0.09,1.51 -0.1,2.2 -0.02,1.34 -0.21,1.06 2.69,1.06 0.85,0 0.77,-0.07 0.69,-2.41l-0.06 -0.89c-0.72,-0.12 -2.65,-0.22 -3.23,0.04z"/>
    <rect class="fil0 str1" x="21.78" y="57.95" width="43.19" height="2.88"/>
   </g>
  </g>
 </g>
</svg>
