<?xml version="1.0" encoding="UTF-8"?>
<!DOCTYPE svg PUBLIC "-//W3C//DTD SVG 1.0//EN" "http://www.w3.org/TR/2001/REC-SVG-20010904/DTD/svg10.dtd">
<!-- Creator: CorelDRAW 2023 (Not for commercial use) -->
<svg xmlns="http://www.w3.org/2000/svg" xml:space="preserve" width="1.77602in" height="2.00581in" version="1.0" style="shape-rendering:geometricPrecision; text-rendering:geometricPrecision; image-rendering:optimizeQuality; fill-rule:evenodd; clip-rule:evenodd"
viewBox="0 0 1626.03 1836.41"
 xmlns:xlink="http://www.w3.org/1999/xlink"
 xmlns:xodm="http://www.corel.com/coreldraw/odm/2003">
 <defs>
  <style type="text/css">
   <![CDATA[
    .str0 {stroke:#2B2A29;stroke-width:38.15;stroke-miterlimit:2.61313}
    .fil0 {fill:#FEFEFE}
    .fil2 {fill:#FEFEFE}
    .fil1 {fill:#F74A55}
   ]]>
  </style>
 </defs>
 <g id="Layer_x0020_1">
  <metadata id="CorelCorpID_0Corel-Layer"/>
  <g id="_2218595527280">
   <g>
    <path class="fil0 str0" d="M19.08 791.95l0 35.13c0,113.25 73.07,256.3 120.14,326.01l117.63 159.89 188.18 201.77 299.75 258.81c72.44,56.56 61.8,59.69 134.5,1.55 10.97,-8.77 20.63,-15.8 31.63,-24.58l268.34 -234.03c44.46,-44.47 70.43,-68.45 110.68,-114.15 53.83,-61.12 103.32,-112.98 151.91,-181.83l44.97 -67.44c46.96,-69.53 120.14,-213.11 120.14,-326.01 0,-106.06 -10.55,-179.57 -43.43,-276.25 -14.36,-42.22 -39.65,-94.05 -60.83,-132.38 -11.78,-21.33 -24.56,-40.11 -38.33,-60.03 -50.61,-73.23 -81.22,-98.11 -137.56,-150.52 -40.63,-37.8 -128.06,-93.38 -176.58,-114.99 -100.91,-44.94 -200.51,-69.26 -299.99,-73.82l-69.35 0c-100.32,4.62 -200.78,29.15 -302.62,72.75 -117.39,50.28 -242.05,161.12 -315.15,264.52 -87.17,123.27 -144.04,282.69 -144.04,435.6z"/>
    <path class="fil0 str0" d="M366.86 813.02c0,77.02 24.88,164.88 58.18,219.35 34.99,57.21 76.35,107.5 132.18,145.35 12.14,8.23 21.88,14.49 34.25,21.94 14.49,8.73 20.87,10.67 37.67,18.54 120.39,56.33 286.73,54.14 401.05,-15.86 12.88,-7.89 21.55,-13.32 34.37,-21.84 265.4,-176.46 271.05,-605.13 -59.48,-770.36 -279.72,-139.83 -638.24,65.59 -638.24,402.87z"/>
   </g>
   <path class="fil1" d="M734.06 174.9c-195.67,29.16 -318.18,116.68 -408.99,224.03 -93.1,110.07 -165.54,284.87 -141.43,482.17 39.46,322.94 334.34,597.19 708.71,551.26 318.4,-39.06 595.7,-334.08 549.72,-705.09 -43.65,-352.15 -372.05,-602.44 -708.01,-552.37z"/>
   <g>
    <path class="fil2" d="M780.79 1213.47c26.77,-16.26 56.02,-49.92 80.39,-73.24 42.83,-41 48.52,-28.46 43.12,-111.31 -135.52,3.09 -167.83,-10.23 -167.87,-147.45 -0.04,-141.94 33.99,-143.75 169.12,-143.75 -0.7,-134.63 4.66,-168.58 144.58,-168.58 139.79,0 146.5,34.04 146.5,168.38 30.64,-0.44 51.01,8.21 60.95,-79.55 11.33,-100.07 -48.11,-196.08 -135.36,-238.73 -62.25,-30.43 -138.03,-37.35 -203.15,-8.1 -83.01,37.29 -105.88,90.32 -138.77,110.99 -74.13,-69.03 -159.83,-171.68 -322.42,-111.15 -115.94,43.16 -174.42,161.01 -119.2,311.29 22.53,61.32 102.24,171.16 140.14,205.69l61.02 60.27c21.65,19.83 43.1,33.45 62.91,52.65l58.9 56.09c47,39.35 72.52,71.92 119.15,116.49z"/>
    <path class="fil2" d="M965.83 655.66l-0.54 141.72 -141.27 0.07c-30.2,12.15 -28.96,19.43 -29.08,58.05 -0.06,21.71 -3.46,74.21 4.34,91.34 17.03,37.36 122.24,17.28 165.57,23.91 0,47.4 -4.52,116.31 6.34,156.24 39.47,13.29 117.78,12.53 159.11,1.41 10.63,-37.78 6.86,-109 6.34,-154.84 53.11,-13.27 117.87,8.94 164.45,-13.59 9.83,-36.57 9.14,-114.83 1.28,-152.51 -40.05,-17.28 -112.27,-10.5 -165.02,-9.56 -0.72,-53.42 4.64,-118.44 -7.05,-163 -31.47,-8.54 -54.67,-6.66 -93.23,-6.91 -43.45,-0.27 -57.14,-5.51 -71.24,27.66z"/>
    <path class="fil2" d="M824.02 797.45l141.27 -0.07 0.54 -141.72 -5.32 136.32 -121.56 0.37c-17.54,2.78 -10.7,3.14 -14.94,5.1z"/>
   </g>
  </g>
 </g>
</svg>
