<?xml version="1.0" encoding="UTF-8"?>
<!DOCTYPE svg PUBLIC "-//W3C//DTD SVG 1.0//EN" "http://www.w3.org/TR/2001/REC-SVG-20010904/DTD/svg10.dtd">
<!-- Creator: CorelDRAW 2023 (Not for commercial use) -->
<svg xmlns="http://www.w3.org/2000/svg" xml:space="preserve" width="1.77602in" height="2.00581in" version="1.0" style="shape-rendering:geometricPrecision; text-rendering:geometricPrecision; image-rendering:optimizeQuality; fill-rule:evenodd; clip-rule:evenodd"
viewBox="0 0 1107.5 1250.79"
 xmlns:xlink="http://www.w3.org/1999/xlink"
 xmlns:xodm="http://www.corel.com/coreldraw/odm/2003">
 <defs>
  <style type="text/css">
   <![CDATA[
    .str0 {stroke:#2B2A29;stroke-width:25.98;stroke-miterlimit:2.61313}
    .fil0 {fill:#FEFEFE}
    .fil1 {fill:#F74A55}
    .fil3 {fill:#FEFEFE}
    .fil2 {fill:#F74A55;fill-rule:nonzero}
   ]]>
  </style>
 </defs>
 <g id="Layer_x0020_1">
  <metadata id="CorelCorpID_0Corel-Layer"/>
  <g id="_2182116903504">
   <g>
    <path class="fil0 str0" d="M12.99 539.4l0 23.92c0,77.14 49.77,174.57 81.83,222.05l80.12 108.9 128.17 137.43 204.16 176.28c49.34,38.52 42.09,40.66 91.61,1.06 7.47,-5.98 14.05,-10.76 21.55,-16.74l182.77 -159.4c30.28,-30.29 47.97,-46.62 75.38,-77.75 36.67,-41.63 70.37,-76.95 103.47,-123.85l30.63 -45.93c31.98,-47.36 81.83,-145.15 81.83,-222.05 0,-72.23 -7.19,-122.31 -29.58,-188.16 -9.78,-28.75 -27.01,-64.06 -41.43,-90.16 -8.03,-14.53 -16.73,-27.32 -26.11,-40.89 -34.47,-49.88 -55.32,-66.82 -93.69,-102.52 -27.68,-25.75 -87.22,-63.6 -120.27,-78.32 -68.73,-30.61 -136.57,-47.17 -204.33,-50.28l-47.23 0c-68.33,3.15 -136.75,19.86 -206.12,49.55 -79.95,34.25 -164.86,109.74 -214.65,180.16 -59.37,83.96 -98.11,192.54 -98.11,296.69z"/>
    <path class="fil0 str0" d="M249.87 553.75c0,52.46 16.94,112.3 39.63,149.4 23.83,38.96 52,73.22 90.03,99 8.27,5.61 14.9,9.87 23.33,14.95 9.87,5.95 14.22,7.27 25.66,12.63 82,38.37 195.29,36.87 273.16,-10.8 8.77,-5.37 14.68,-9.07 23.41,-14.87 180.77,-120.19 184.61,-412.15 -40.51,-524.7 -190.52,-95.24 -434.71,44.67 -434.71,274.4z"/>
   </g>
   <path class="fil1" d="M499.97 101.76c-133.27,19.86 -216.72,79.47 -278.56,152.59 -63.41,74.97 -112.75,194.03 -96.33,328.41 26.88,219.96 227.72,406.75 482.71,375.47 216.86,-26.6 405.74,-227.54 374.42,-480.24 -29.73,-239.85 -253.4,-410.33 -482.23,-376.22z"/>
   <g>
    <path class="fil1" d="M527.12 195.23c-176.38,15.13 -322.87,166.05 -307.78,361.24 13.55,175.29 168.13,323.2 361.98,307.3 101.99,-8.37 177.43,-60.16 222.82,-111.49 49.7,-56.21 93.31,-143.98 83.79,-249.97 -9.47,-105.45 -58.66,-174.95 -111.48,-223.21 -54.74,-50.02 -145.13,-92.81 -249.32,-83.87z"/>
    <path id="_1" class="fil2" d="M230.38 555.62l-22.09 1.71 0 0 -0.97 -18.72 -0.02 -18.45 0.9 -18.16 1.81 -17.85 2.69 -17.52 3.54 -17.17 4.37 -16.81 5.18 -16.42 5.96 -16.01 6.71 -15.59 7.44 -15.15 8.14 -14.69 8.82 -14.21 9.48 -13.71 10.1 -13.2 10.71 -12.67 11.28 -12.12 11.84 -11.56 12.37 -10.98 12.87 -10.38 13.35 -9.77 13.8 -9.13 14.23 -8.49 14.63 -7.82 15.01 -7.14 15.37 -6.44 15.7 -5.72 16.01 -4.99 16.28 -4.23 16.54 -3.46 16.77 -2.68 16.98 -1.87 1.9 22.07 -15.91 1.76 -15.72 2.51 -15.5 3.25 -15.26 3.96 -15 4.67 -14.71 5.36 -14.41 6.03 -14.07 6.69 -13.72 7.33 -13.34 7.95 -12.93 8.56 -12.51 9.15 -12.05 9.72 -11.58 10.28 -11.08 10.82 -10.56 11.35 -10.02 11.86 -9.45 12.35 -8.86 12.83 -8.25 13.28 -7.61 13.73 -6.96 14.16 -6.27 14.57 -5.57 14.96 -4.84 15.34 -4.09 15.71 -3.31 16.06 -2.51 16.4 -1.69 16.73 -0.85 17.03 0.02 17.33 0.92 17.61 0 0zm350.03 297.12l1.81 22.08 0 0 -18.62 1.05 -18.38 0.09 -18.11 -0.86 -17.82 -1.77 -17.51 -2.66 -17.18 -3.53 -16.83 -4.36 -16.46 -5.18 -16.07 -5.96 -15.66 -6.72 -15.22 -7.45 -14.77 -8.16 -14.3 -8.84 -13.81 -9.49 -13.3 -10.12 -12.77 -10.73 -12.23 -11.3 -11.66 -11.85 -11.07 -12.38 -10.48 -12.88 -9.85 -13.36 -9.21 -13.81 -8.55 -14.23 -7.87 -14.63 -7.17 -15.01 -6.45 -15.35 -5.72 -15.68 -4.96 -15.97 -4.19 -16.25 -3.39 -16.49 -2.57 -16.71 -1.74 -16.9 22.09 -1.71 1.62 15.79 2.41 15.62 3.16 15.42 3.91 15.19 4.64 14.94 5.35 14.67 6.04 14.37 6.71 14.05 7.37 13.7 8.01 13.33 8.63 12.93 9.23 12.52 9.81 12.07 10.38 11.6 10.92 11.11 11.46 10.59 11.96 10.04 12.45 9.48 12.93 8.88 13.38 8.27 13.82 7.63 14.23 6.97 14.64 6.28 15.02 5.57 15.39 4.84 15.73 4.08 16.07 3.29 16.38 2.49 16.68 1.66 16.97 0.8 17.23 -0.08 17.49 -0.98 0 0zm215.43 -107.78l16.6 14.67 0 0 -4.5 4.98 -4.67 4.97 -4.85 4.96 -5.03 4.93 -5.21 4.9 -5.39 4.86 -5.56 4.81 -5.74 4.76 -5.92 4.69 -6.09 4.62 -6.27 4.54 -6.44 4.45 -6.62 4.36 -6.79 4.25 -6.96 4.14 -7.14 4.02 -7.31 3.89 -7.48 3.75 -7.65 3.6 -7.82 3.45 -7.99 3.28 -8.16 3.12 -8.32 2.93 -8.49 2.75 -8.66 2.55 -8.83 2.34 -8.99 2.13 -9.15 1.91 -9.31 1.68 -9.47 1.44 -9.63 1.2 -9.79 0.94 -1.81 -22.08 9.18 -0.88 9.02 -1.12 8.87 -1.35 8.71 -1.57 8.56 -1.79 8.41 -1.99 8.25 -2.19 8.09 -2.38 7.94 -2.57 7.78 -2.74 7.63 -2.91 7.47 -3.07 7.31 -3.22 7.16 -3.37 6.99 -3.51 6.84 -3.64 6.68 -3.76 6.52 -3.88 6.36 -3.98 6.2 -4.08 6.03 -4.17 5.87 -4.25 5.71 -4.33 5.54 -4.4 5.37 -4.45 5.21 -4.51 5.04 -4.55 4.87 -4.59 4.71 -4.61 4.53 -4.63 4.37 -4.64 4.19 -4.64 0 0zm81.06 -241.65l22.07 -1.98 0 0 0.76 10.21 0.45 10.11 0.14 9.99 -0.15 9.87 -0.44 9.76 -0.71 9.63 -0.98 9.51 -1.24 9.38 -1.49 9.25 -1.74 9.12 -1.97 8.98 -2.19 8.84 -2.4 8.7 -2.61 8.55 -2.81 8.4 -2.99 8.26 -3.17 8.1 -3.34 7.94 -3.5 7.79 -3.66 7.63 -3.8 7.47 -3.93 7.31 -4.06 7.14 -4.17 6.96 -4.28 6.8 -4.38 6.63 -4.47 6.44 -4.55 6.27 -4.63 6.09 -4.69 5.91 -4.75 5.73 -4.79 5.54 -16.6 -14.67 4.49 -5.19 4.45 -5.36 4.39 -5.54 4.34 -5.71 4.27 -5.88 4.2 -6.05 4.11 -6.21 4.02 -6.38 3.92 -6.54 3.81 -6.69 3.69 -6.85 3.56 -7 3.42 -7.15 3.28 -7.3 3.13 -7.44 2.97 -7.58 2.8 -7.72 2.62 -7.86 2.44 -7.99 2.25 -8.13 2.04 -8.26 1.84 -8.38 1.62 -8.51 1.39 -8.63 1.16 -8.75 0.92 -8.88 0.67 -8.99 0.41 -9.11 0.14 -9.22 -0.14 -9.33 -0.42 -9.44 -0.71 -9.56 0 0zm-107.92 -216.02l14.94 -16.36 0 0 5.07 4.71 5.05 4.84 5.02 4.98 4.98 5.12 4.93 5.26 4.88 5.41 4.82 5.56 4.75 5.71 4.68 5.86 4.6 6.02 4.51 6.18 4.41 6.34 4.31 6.51 4.2 6.67 4.08 6.84 3.96 7.01 3.83 7.18 3.69 7.36 3.55 7.54 3.4 7.73 3.23 7.9 3.07 8.09 2.9 8.28 2.72 8.47 2.53 8.66 2.33 8.86 2.13 9.05 1.93 9.25 1.71 9.45 1.49 9.65 1.27 9.85 1.03 10.06 -22.07 1.98 -0.97 -9.5 -1.19 -9.29 -1.4 -9.09 -1.61 -8.88 -1.81 -8.68 -2 -8.49 -2.19 -8.29 -2.36 -8.1 -2.54 -7.92 -2.71 -7.73 -2.87 -7.56 -3.02 -7.38 -3.16 -7.2 -3.31 -7.04 -3.44 -6.87 -3.57 -6.7 -3.7 -6.54 -3.81 -6.38 -3.93 -6.23 -4.03 -6.08 -4.13 -5.93 -4.22 -5.78 -4.31 -5.64 -4.39 -5.5 -4.46 -5.36 -4.53 -5.23 -4.59 -5.09 -4.64 -4.96 -4.7 -4.83 -4.74 -4.71 -4.78 -4.59 -4.81 -4.46 0 0zm-240.9 -81.02l-1.9 -22.07 0 0 10.06 -0.71 9.97 -0.41 9.88 -0.11 9.78 0.18 9.69 0.46 9.58 0.73 9.47 0.99 9.35 1.25 9.24 1.49 9.12 1.73 8.99 1.96 8.86 2.18 8.73 2.39 8.59 2.59 8.44 2.79 8.3 2.97 8.15 3.15 7.99 3.32 7.83 3.48 7.67 3.64 7.51 3.78 7.34 3.92 7.17 4.05 6.98 4.17 6.81 4.28 6.62 4.38 6.44 4.48 6.24 4.57 6.05 4.65 5.85 4.73 5.64 4.79 5.44 4.85 -14.94 16.36 -5.03 -4.49 -5.24 -4.44 -5.44 -4.39 -5.63 -4.33 -5.82 -4.26 -6.01 -4.18 -6.19 -4.1 -6.37 -4 -6.54 -3.9 -6.7 -3.79 -6.87 -3.67 -7.03 -3.55 -7.19 -3.41 -7.34 -3.27 -7.49 -3.11 -7.63 -2.95 -7.78 -2.79 -7.91 -2.61 -8.04 -2.43 -8.17 -2.24 -8.29 -2.04 -8.41 -1.83 -8.52 -1.62 -8.63 -1.4 -8.74 -1.16 -8.85 -0.93 -8.95 -0.68 -9.04 -0.43 -9.14 -0.16 -9.23 0.1 -9.31 0.38 -9.4 0.66 0 0z"/>
   </g>
   <path class="fil3" d="M466.41 285.13l-0.18 156.79 -174.14 0.41 -0.05 174.43 174.1 0.08 0.28 174.37 174.51 0.01 0.23 -174.14 174.21 -0.29 0.08 -174.51 -174.15 -0.08c-1.88,-49.81 0.03,-121.43 -0.38,-174.31l-174.43 -0 -0.09 17.26z"/>
  </g>
 </g>
</svg>
