<?xml version="1.0" encoding="UTF-8"?>
<!DOCTYPE svg PUBLIC "-//W3C//DTD SVG 1.0//EN" "http://www.w3.org/TR/2001/REC-SVG-20010904/DTD/svg10.dtd">
<!-- Creator: CorelDRAW 2023 (Not for commercial use) -->
<svg xmlns="http://www.w3.org/2000/svg" xml:space="preserve" width="1.77602in" height="2.00581in" version="1.0" style="shape-rendering:geometricPrecision; text-rendering:geometricPrecision; image-rendering:optimizeQuality; fill-rule:evenodd; clip-rule:evenodd"
viewBox="0 0 183.26 206.97"
 xmlns:xlink="http://www.w3.org/1999/xlink"
 xmlns:xodm="http://www.corel.com/coreldraw/odm/2003">
 <defs>
  <style type="text/css">
   <![CDATA[
    .str0 {stroke:#2B2A29;stroke-width:4.3;stroke-miterlimit:2.61313}
    .fil0 {fill:#FEFEFE}
    .fil2 {fill:#FEFEFE}
    .fil1 {fill:#F74A55}
   ]]>
  </style>
 </defs>
 <g id="Layer_x0020_1">
  <metadata id="CorelCorpID_0Corel-Layer"/>
  <g id="_2183065680720">
   <g>
    <path class="fil0 str0" d="M2.15 89.26l0 3.96c0,12.76 8.23,28.89 13.54,36.74l13.26 18.02 21.21 22.74 33.78 29.17c8.16,6.37 6.96,6.73 15.16,0.17 1.24,-0.99 2.33,-1.78 3.57,-2.77l30.24 -26.38c5.01,-5.01 7.94,-7.71 12.47,-12.87 6.07,-6.89 11.64,-12.73 17.12,-20.49l5.07 -7.6c5.29,-7.84 13.54,-24.02 13.54,-36.74 0,-11.95 -1.19,-20.24 -4.9,-31.13 -1.62,-4.76 -4.47,-10.6 -6.86,-14.92 -1.33,-2.4 -2.77,-4.52 -4.32,-6.77 -5.7,-8.25 -9.15,-11.06 -15.5,-16.96 -4.58,-4.26 -14.43,-10.52 -19.9,-12.96 -11.37,-5.06 -22.6,-7.81 -33.81,-8.32l-7.82 0c-11.31,0.52 -22.63,3.29 -34.11,8.2 -13.23,5.67 -27.28,18.16 -35.52,29.81 -9.82,13.89 -16.23,31.86 -16.23,49.09z"/>
    <path class="fil0 str0" d="M41.35 91.63c0,8.68 2.8,18.58 6.56,24.72 3.94,6.45 8.6,12.12 14.9,16.38 1.37,0.93 2.47,1.63 3.86,2.47 1.63,0.98 2.35,1.2 4.25,2.09 13.57,6.35 32.32,6.1 45.2,-1.79 1.45,-0.89 2.43,-1.5 3.87,-2.46 29.91,-19.89 30.55,-68.2 -6.7,-86.82 -31.53,-15.76 -71.93,7.39 -71.93,45.41z"/>
   </g>
   <path class="fil1" d="M82.73 18.32c-22.05,3.29 -35.86,13.15 -46.09,25.25 -10.49,12.41 -18.66,32.11 -15.94,54.34 4.45,36.4 37.68,67.31 79.87,62.13 35.89,-4.4 67.14,-37.65 61.96,-79.47 -4.92,-39.69 -41.93,-67.9 -79.79,-62.25z"/>
   <g>
    <path class="fil2" d="M85.7 83.7c-8.8,3.32 -11.21,10.97 -16.94,16.92 -4.95,5.14 -13.74,8.78 -14.45,19.23 -0.68,10.07 6.33,17.66 15.66,18.2 10.83,0.62 15.36,-7.64 27.63,-4.05 9.25,2.71 16.93,8.1 25.66,-0.24 6.2,-5.93 8.24,-15.67 1.62,-23.72 -4.16,-5.05 -7.58,-5.29 -16.54,-17.05 -4.38,-5.74 -10.92,-13.71 -22.64,-9.29z"/>
    <path class="fil2" d="M106.75 41.06c-17.21,9.64 -12.01,39.22 4.16,33.73 18.88,-6.4 9.45,-41.36 -4.16,-33.73z"/>
    <path class="fil2" d="M69.3 41.23c-16.72,9.85 -2.3,41.49 9.95,33.07 17.15,-11.79 1.55,-39.85 -9.95,-33.07z"/>
    <path class="fil2" d="M134.34 66.97c-5.81,2.21 -10.61,9.04 -11.62,16.24 -1.16,8.27 3.67,16.42 12.04,13.85 16.39,-5.05 16.66,-36.59 -0.41,-30.09z"/>
    <path class="fil2" d="M44.76 66.5c-17.24,3.77 -5.49,33.5 8.53,30.95 7.52,-1.37 9.18,-10.9 6.31,-18.75 -1.9,-5.2 -8.63,-13.56 -14.84,-12.2z"/>
   </g>
  </g>
 </g>
</svg>
