<?xml version="1.0" encoding="UTF-8"?>
<!DOCTYPE svg PUBLIC "-//W3C//DTD SVG 1.0//EN" "http://www.w3.org/TR/2001/REC-SVG-20010904/DTD/svg10.dtd">
<!-- Creator: CorelDRAW 2023 (Not for commercial use) -->
<svg xmlns="http://www.w3.org/2000/svg" xml:space="preserve" width="1.77602in" height="2.00581in" version="1.0" style="shape-rendering:geometricPrecision; text-rendering:geometricPrecision; image-rendering:optimizeQuality; fill-rule:evenodd; clip-rule:evenodd"
viewBox="0 0 117.75 132.98"
 xmlns:xlink="http://www.w3.org/1999/xlink"
 xmlns:xodm="http://www.corel.com/coreldraw/odm/2003">
 <defs>
  <style type="text/css">
   <![CDATA[
    .str0 {stroke:#2B2A29;stroke-width:2.76;stroke-miterlimit:2.61313}
    .str2 {stroke:#FEFEFE;stroke-width:0.46;stroke-miterlimit:2.61313}
    .str1 {stroke:white;stroke-width:0.2;stroke-miterlimit:2.61313}
    .fil3 {fill:none}
    .fil0 {fill:#FEFEFE}
    .fil1 {fill:#78909C}
    .fil2 {fill:white}
   ]]>
  </style>
 </defs>
 <g id="Layer_x0020_1">
  <metadata id="CorelCorpID_0Corel-Layer"/>
  <g id="_2218595492480">
   <g>
    <path class="fil0 str0" d="M1.38 57.35l0 2.54c0,8.2 5.29,18.56 8.7,23.61l8.52 11.58 13.63 14.61 21.71 18.74c5.25,4.1 4.47,4.32 9.74,0.11 0.79,-0.64 1.49,-1.14 2.29,-1.78l19.43 -16.95c3.22,-3.22 5.1,-4.96 8.01,-8.27 3.9,-4.43 7.48,-8.18 11,-13.17l3.26 -4.88c3.4,-5.03 8.7,-15.43 8.7,-23.61 0,-7.68 -0.76,-13 -3.15,-20.01 -1.04,-3.06 -2.87,-6.81 -4.41,-9.59 -0.85,-1.54 -1.78,-2.9 -2.78,-4.35 -3.67,-5.3 -5.88,-7.1 -9.96,-10.9 -2.94,-2.74 -9.27,-6.76 -12.79,-8.33 -7.31,-3.25 -14.52,-5.02 -21.72,-5.35l-5.02 0c-7.27,0.33 -14.54,2.11 -21.91,5.27 -8.5,3.64 -17.53,11.67 -22.82,19.16 -6.31,8.93 -10.43,20.47 -10.43,31.54z"/>
    <path class="fil0 str0" d="M26.57 58.88c0,5.58 1.8,11.94 4.21,15.88 2.53,4.14 5.53,7.78 9.57,10.53 0.88,0.6 1.58,1.05 2.48,1.59 1.05,0.63 1.51,0.77 2.73,1.34 8.72,4.08 20.76,3.92 29.04,-1.15 0.93,-0.57 1.56,-0.96 2.49,-1.58 19.22,-12.78 19.63,-43.82 -4.31,-55.79 -20.26,-10.13 -46.22,4.75 -46.22,29.17z"/>
   </g>
   <path class="fil1" d="M53.16 11.77c-14.17,2.11 -23.04,8.45 -29.62,16.22 -6.74,7.97 -11.99,20.63 -10.24,34.92 2.86,23.39 24.21,43.25 51.32,39.92 23.06,-2.83 43.14,-24.19 39.81,-51.06 -3.16,-25.5 -26.94,-43.63 -51.27,-40z"/>
   <path class="fil2" d="M50.32 29.09c-0.2,0.12 -2.94,1.16 -3.05,1.16 -0.19,0.22 -0.23,0.19 -0.49,0.31 -0.19,0.08 -0.3,0.14 -0.45,0.22 -0.73,0.37 -2.38,1.41 -2.75,1.54 -0.13,0.2 -1.02,0.75 -1.29,0.95 -0.49,0.35 -0.82,0.63 -1.28,1 -2.17,1.78 -3.8,3.53 -5.46,5.81 -0.2,0.28 -0.63,1.1 -0.88,1.23l-1.57 2.84c-0.17,0.34 -0.28,0.67 -0.51,0.87l-1.21 3.12c-0.06,0.25 -0.48,1.7 -0.64,1.91l-0.63 3.12c-0.05,0.51 -0.14,1 -0.2,1.52l-0.11 1.1c-0.05,0.2 -0,0.12 -0.1,0.22 -0.17,0.35 -1.55,0.91 -2.9,2.85 -0.14,0.2 -0.57,0.99 -0.69,1.09 -0.17,0.61 -0.52,1.23 -0.72,1.98 -0.2,0.7 -0.31,1.41 -0.35,2.17 -0.11,2.03 0.31,2.82 0.73,4.49l0.75 1.51c0.02,0.01 0.04,0.03 0.05,0.05l0.25 0.29c0.78,1.09 1.41,1.49 1.74,2.01 0.25,0.06 0.48,0.3 0.75,0.48 0.25,0.17 0.5,0.33 0.78,0.49 0.44,0.25 1.37,0.55 1.65,0.74 0.39,0.07 0.72,0.17 1.1,0.25 1.57,0.29 0.81,-0.21 1.78,1.26l2.15 3.06 0.04 0.06c0.28,0.14 1.33,1.4 1.49,1.67 0.33,0.04 0.2,0.09 0.23,0.23l1.49 1.42c0.17,0.05 0.08,-0.24 0.15,0.14l5.35 3.75c0.3,0.02 1.23,0.57 1.58,0.74 0.42,0.2 1.3,0.54 1.6,0.72l1.49 0.51c0.05,0.02 0.17,0.06 0.25,0.1 0.12,0.06 0.11,0.06 0.18,0.12l3.18 0.76 1.79 0.35c0.43,-0.09 1.21,0.04 1.58,0.1 1.84,0.09 3.33,0.05 5.15,-0.07 0.39,-0.05 0.82,-0.15 1.23,-0.1 0.31,-0.23 1.39,-0.31 1.89,-0.42 0.65,-0.15 1.35,-0.37 1.99,-0.48 0.16,-0.13 1.28,-0.45 1.53,-0.45 0.14,-0.14 -0,-0.04 0.22,-0.15l1.57 -0.61c0.31,-0.21 1.18,-0.56 1.62,-0.78 0.42,-0.22 1.24,-0.78 1.62,-0.82 0.21,-0.29 1.55,-1.07 1.92,-1.32 0.62,-0.42 1.26,-0.92 1.78,-1.35 1.15,-0.96 2.31,-2.03 3.24,-3.11 0.97,-1.13 1.88,-2.22 2.77,-3.58 1.11,-1.7 0.57,-1.26 1.69,-1.53 0.98,-0.23 1.58,-0.63 2.34,-0.86l0.27 -0.13 0.45 -0.36c1.79,-1.2 2.25,-2.34 2.66,-2.61 0.03,-0.18 0.04,-0.27 0.2,-0.36 0.15,-0.39 0.31,-0.63 0.5,-1.03 0.17,-0.37 0.24,-0.71 0.46,-0.95 -0.03,-0.42 0.23,-1.01 0.32,-1.47 0.11,-0.54 0.14,-1.08 0.16,-1.63 0.01,-1.56 -0.26,-2.2 -0.51,-3.56l-0.56 -1.41c-0.24,-0.23 -0.86,-1.42 -1.76,-2.36 -1.2,-1.25 -0.94,-0.11 -1.16,-3 -0.06,-0.42 -0.17,-0.87 -0.12,-1.3 -0.18,-0.23 -0.4,-1.76 -0.46,-2.17 -0.14,-0.35 -0.31,-1 -0.3,-1.38 -0.2,-0.22 -1,-2.92 -1.26,-3.48 -0.14,-0.47 -0.59,-1.18 -0.6,-1.57l-1.96 -3.41c-0.69,-1.1 -1.3,-2.3 -3.16,-1.88l-0.15 0.01c-0.24,0.3 -0.91,0.54 -1.12,1.54 -0.37,1.77 1.66,3 2.41,5.35 0.19,0.12 1.3,2.75 1.29,3.23 0.15,0.16 0.13,0.14 0.22,0.41 0.05,0.15 0.08,0.3 0.13,0.45 0.11,0.35 0.18,0.56 0.24,0.93 0.12,0.29 0.33,1 0.27,1.4 0.19,0.26 0.29,1.18 0.34,1.49 0.08,0.53 0.13,1.08 0.18,1.59 0.11,1.13 0.1,2.22 0.13,3.36 0.15,0.13 0.25,0.18 0.45,0.29l0.46 0.34c0.13,0.01 0.03,-0.02 0.16,0.04 0.01,0 0.03,0.04 0.03,0.03 0,-0.01 0.01,0.02 0.02,0.04 0.56,0.22 1.46,1.08 1.65,1.6 0.31,0.22 0.96,1.6 0.89,2.36 0.5,0.69 -0.15,3.04 -0.9,4.11l-0.37 0.37c-0.05,0.23 -0.55,0.67 -0.75,0.81 -0.24,0.16 -0.09,0.11 -0.32,0.15 -0.19,0.27 -0.42,0.35 -0.79,0.51 -0.32,0.14 -0.59,0.24 -0.95,0.32 -0.8,0.18 -1.54,0.12 -2.36,0.16 -0.09,0.51 -1.74,3.06 -2.14,3.64 -0.14,0.2 -0.55,0.92 -0.78,0.99 -0.5,1.02 -4.03,4.5 -5.09,4.99 -0.17,0.32 -1.78,1.28 -2.27,1.55 -0.88,0.51 -1.6,0.83 -2.55,1.31 -0.89,0.32 -4.16,1.65 -5.08,1.53 -0.21,0.15 -0.31,0.14 -0.93,0.23 -0.27,0.04 -0.61,0.08 -0.87,0.14 -0.93,0.08 -4.28,0.43 -4.89,0.04l-0.19 0.04 -1.83 -0.21 -1.56 -0.32c-0.83,-0.13 -2.01,-0.51 -2.83,-0.8 -0.15,-0.05 -0.27,-0.09 -0.43,-0.15l-0.41 -0.24c-0.31,0.01 -3.02,-1.2 -3.1,-1.47 -1.46,-0.52 -4.55,-3.16 -5.64,-4.3 -1.04,-1.09 -3.75,-4.25 -4.19,-5.69 -0.45,-0.37 -0.53,-1.19 -1.01,-1.73l-0.75 -0.02 -0.6 0.12c-0.45,0.03 -1.34,0.07 -1.69,-0.22 -2.14,0.07 -6.15,-4.58 -2.86,-8.91 0.6,-0.79 2.01,-1.82 2.86,-1.86 0.18,-0.19 0.26,-0.17 0.54,-0.32 0.04,-0.59 -0.11,-1.72 0.16,-2.15l-0.05 -0.02c0.02,-0.41 0.07,-1.73 0.28,-2.08 -0.07,-0.25 0,-0.89 0.12,-1.13 0.09,-0.69 0.27,-1.41 0.44,-2.05 0.08,-0.31 0.17,-0.63 0.26,-0.92 0.05,-0.16 0.09,-0.29 0.14,-0.45 0.02,-0.05 0.07,-0.18 0.1,-0.25 0.11,-0.21 0.02,-0.07 0.12,-0.18 -0.03,-0.29 0.3,-1.22 0.49,-1.42 0.24,-1.03 2.32,-4.94 2.92,-5.3 0.06,-0.32 0.41,-0.68 0.62,-0.96 1.05,-1.34 1.27,-1.46 2.27,-2.56 0.38,-0.41 2.94,-2.79 3.52,-2.89 0.4,-0.63 4.24,-2.59 5.31,-2.86 0.15,-0.17 1.14,-0.48 1.42,-0.46l0.24 -0.14c0.07,-0.03 0.12,-0.04 0.19,-0.06 0.12,-0.04 0.27,-0.07 0.39,-0.1 0.84,-0.24 1.99,-0.5 2.83,-0.59 1.27,-0.48 4.98,-0.23 6.53,-0.13 1.19,0.08 1.4,-0.45 1.75,-0.56 0.1,-0.2 0,-0.07 0.18,-0.3 0.14,-0.19 0.07,-0.1 0.22,-0.22 0.03,-0.42 0.25,-0.8 0.16,-1.37 -0.11,-0.73 -0.44,-1.21 -0.95,-1.53 -0.53,-0.33 -1.66,-0.27 -1.91,-0.46l-0.89 -0.01 -2.37 -0.01c-0.31,0.01 -0.37,0.05 -0.64,-0.04l-1.99 0.26c-0.65,0.08 -1.21,0.18 -1.84,0.3 -1.24,0.24 -2.37,0.65 -3.49,0.88z"/>
   <path class="fil1" d="M41.7 70.25c0.19,0.09 0.54,0.82 0.7,1.06 1.26,1.89 2.52,3.21 4.25,4.64l2.02 1.48 3.52 1.73c0.43,-0 0.82,0.24 1.27,0.32 1.25,0.6 4.61,0.85 6.27,0.78 2.13,-0.09 4.17,-0.53 5.93,-1.21 3.57,-1.37 5.72,-3.09 8.11,-5.69 0.02,-0.02 0.1,-0.1 0.12,-0.12 0.1,-0.09 0.06,-0.06 0.12,-0.09 0.28,-0.51 0.77,-1.04 1.12,-1.56 0.21,-0.32 0.81,-1.38 1.07,-1.57 0.1,-0.75 0.87,-1.23 0.79,-2.39 -0.07,-0.94 -0.66,-1.58 -1.36,-1.86 -2.33,-0.92 -2.92,2.32 -3.45,2.61 -0.57,1.37 -3.57,4.48 -4.88,5.02 -0.03,0.04 0,0.03 -0.14,0.14l-1.35 0.76c-0.33,0.18 -1.28,0.67 -1.67,0.66 -0.13,0.12 -0.01,0.04 -0.23,0.15 -0.66,0.33 -2.74,0.71 -3.38,0.75 -0.86,0.19 -2.74,0.08 -3.68,-0.03 -0.59,-0.07 -2.72,-0.48 -2.97,-0.73 -0.84,-0.2 -3.28,-1.32 -3.61,-1.86 -0.55,-0.1 -2.17,-1.63 -2.54,-2.01 -0.3,-0.31 -1.89,-2.13 -1.95,-2.56 -0.27,-0.22 -0.52,-0.72 -0.7,-1.05 -0.19,-0.35 -0.37,-0.78 -0.59,-1.1 -1.1,-1.58 -3.72,-0.89 -3.73,1.28 -0,1.05 0.66,1.63 0.95,2.46z"/>
   <path class="fil1" d="M45.67 53.12c-0.02,0.01 -0.04,0.03 -0.06,0.04l-0.18 0.1c-2.19,1.07 -1.39,1.07 -2.34,1.85 -0.03,0.25 -0.31,0.78 -0.41,1.16 -0.53,2.01 0.5,3.23 0.58,3.63 0.02,0.01 0.05,0.01 0.06,0.04 0.01,0.05 0.22,0.07 0.41,0.53l0.09 0.05c0.58,0.37 0.82,0.89 2.27,1.14 1.45,0.13 2.38,-0.23 3.23,-0.94 0.33,-0.28 0.68,-0.69 0.95,-1.17 0.21,-0.37 0.44,-1.35 0.58,-1.56l0.01 -1.14c-0.13,-0.17 -0.36,-1.2 -0.56,-1.57 -0.24,-0.44 -0.56,-0.88 -0.88,-1.15 -0.77,-0.66 -1.69,-1.08 -3.09,-1.06l-0.67 0.05z"/>
   <path class="fil2 str1" d="M76.28 39.54c-0.32,0.16 -0.49,0.44 -0.62,0.71l-1.16 1.03c-0.26,0.11 -0.38,0.16 -0.53,0.4 -0.29,0.05 -0.48,0.23 -0.77,0.39 -0.18,0.1 -0.62,0.25 -0.69,0.38 -0.72,0.19 -1.26,0.44 -2.05,0.6 -0.82,0.16 -1.46,0.17 -2.35,0.16 -0.3,-0.02 -0.22,-0.04 -0.46,0.04 -0.11,-0.07 0.04,-0.01 -0.22,-0.1l-0.77 -0.15c-1.45,-0.32 -1.71,-0.64 -2.78,-1.03 -0.27,-0.41 -3.4,-1.67 -2.6,-3.96 0.27,-0.78 1.01,-1.49 2.1,-1.42 1.23,0.08 1.54,1.13 2.19,1.28 0.19,0.25 0.43,0.37 0.73,0.51 0.69,0.32 2.32,0.8 2.92,0.43 0.98,0.16 2.5,-0.78 3,-1.21 0.47,-0.41 1.7,-1.76 1.7,-2.61 0.14,-0.14 0.24,-0.45 0.31,-0.82 -2.93,-1.99 -6.24,-3.42 -9.78,-4.14 -0.01,0.4 -0.16,0.71 -0.18,1.04 -0.16,0.12 -0.08,0.03 -0.22,0.22 -0.18,0.23 -0.08,0.1 -0.18,0.3 -0.35,0.11 -0.56,0.64 -1.75,0.56 -1.54,-0.1 -5.26,-0.34 -6.53,0.13 -0.84,0.09 -1.98,0.35 -2.83,0.59 -0.12,0.04 -0.28,0.07 -0.39,0.11 -0.07,0.02 -0.12,0.03 -0.19,0.06l-0.24 0.14c-0.28,-0.02 -1.27,0.3 -1.42,0.46 -1.07,0.28 -4.92,2.23 -5.31,2.86 -0.59,0.09 -3.14,2.48 -3.52,2.89 -1,1.09 -1.22,1.22 -2.27,2.56 -0.21,0.27 -0.56,0.64 -0.62,0.96 -0.6,0.36 -2.68,4.27 -2.92,5.3 -0.19,0.2 -0.52,1.12 -0.49,1.42 -0.1,0.11 -0.01,-0.03 -0.12,0.18 -0.04,0.07 -0.09,0.21 -0.1,0.25 -0.06,0.17 -0.1,0.3 -0.14,0.45 -0.09,0.3 -0.18,0.61 -0.26,0.92 -0.16,0.64 -0.35,1.35 -0.44,2.05 -0.12,0.24 -0.2,0.88 -0.12,1.13 -0.21,0.35 -0.27,1.68 -0.28,2.08l0.05 0.02c-0.27,0.43 -0.12,1.56 -0.16,2.15 -0.27,0.15 -0.36,0.13 -0.54,0.32 -0.56,0.03 -1.36,0.48 -2.01,1.02 0.14,3.44 0.85,6.72 2.02,9.76 0.35,0.28 1.23,0.24 1.68,0.21l0.6 -0.12 0.75 0.02c0.47,0.54 0.56,1.36 1.01,1.73 0.44,1.44 3.15,4.59 4.19,5.69 1.09,1.15 4.18,3.78 5.64,4.3 0.08,0.27 2.8,1.47 3.1,1.47l0.41 0.24c0.16,0.07 0.28,0.1 0.43,0.15 0.82,0.29 2,0.67 2.83,0.8l1.56 0.32 1.83 0.21 0.19 -0.04c0.61,0.39 3.97,0.04 4.89,-0.04 0.26,-0.06 0.59,-0.1 0.87,-0.14 0.61,-0.09 0.72,-0.09 0.93,-0.23 0.92,0.12 4.19,-1.21 5.08,-1.53 0.94,-0.48 1.67,-0.8 2.55,-1.31 0.48,-0.28 2.1,-1.24 2.27,-1.55 1.06,-0.49 4.59,-3.97 5.09,-4.99 0.23,-0.07 0.64,-0.79 0.78,-0.99 0.4,-0.58 2.05,-3.13 2.14,-3.64 0.82,-0.04 1.56,0.02 2.36,-0.16 0.17,-0.04 0.32,-0.08 0.46,-0.13 1.16,-2.91 1.88,-6.07 2.09,-9.37 -0.33,-0.33 -0.71,-0.62 -1.01,-0.73 -0.01,-0.01 -0.02,-0.05 -0.02,-0.04 -0,0.01 -0.02,-0.03 -0.03,-0.03 -0.13,-0.05 -0.03,-0.03 -0.16,-0.04l-0.46 -0.34c-0.2,-0.11 -0.3,-0.16 -0.45,-0.29 -0.02,-1.14 -0.01,-2.23 -0.13,-3.36 -0.05,-0.51 -0.11,-1.06 -0.18,-1.59 -0.05,-0.31 -0.15,-1.23 -0.34,-1.49 0.05,-0.4 -0.15,-1.1 -0.27,-1.4 -0.06,-0.36 -0.13,-0.58 -0.24,-0.93 -0.05,-0.15 -0.08,-0.3 -0.13,-0.45 -0.09,-0.27 -0.06,-0.25 -0.22,-0.41 0.01,-0.48 -1.1,-3.11 -1.29,-3.23 -0.75,-2.35 -2.79,-3.58 -2.41,-5.35 0.15,-0.71 0.53,-1.03 0.82,-1.27 -0.85,-1.06 -1.77,-2.05 -2.75,-2.98 -0.17,0.39 -0.37,0.89 -0.48,1.08 -0.25,0.45 -0.85,1.21 -0.92,1.51zm-3.78 13.64c0.12,0.11 1.21,0.43 1.86,1.15l0.48 0.56c0.36,0.98 0.74,1.29 0.69,2.66 -0.04,1.32 -0.49,1.65 -0.85,2.54 -0.14,0.04 -0.17,0.13 -0.3,0.28 -0.06,0.07 -0.1,0.11 -0.15,0.18 -0.08,0.11 -0.05,0.06 -0.09,0.13 -0.36,0.15 -0.67,0.46 -1.15,0.67 -2.03,0.88 -3.16,-0.11 -4.03,-0.41 -0.06,-0.14 -0.75,-0.82 -0.88,-0.89 -0.2,-0.51 -0.49,-0.82 -0.68,-1.5 -0.19,-0.71 -0.17,-1.17 -0.11,-1.93 0.64,-2.09 1.18,-2.76 3.25,-3.5 0.84,-0.1 1.13,-0.07 1.95,0.05zm-26.16 -0.12c1.4,-0.02 2.32,0.4 3.09,1.06 0.32,0.27 0.64,0.71 0.88,1.15 0.2,0.37 0.43,1.4 0.56,1.57l-0.01 1.14c-0.15,0.21 -0.38,1.19 -0.58,1.56 -0.27,0.48 -0.62,0.89 -0.95,1.17 -0.85,0.71 -1.78,1.08 -3.23,0.94 -1.45,-0.25 -1.69,-0.76 -2.27,-1.14l-0.09 -0.05c-0.19,-0.46 -0.4,-0.47 -0.41,-0.53 -0.01,-0.03 -0.04,-0.03 -0.06,-0.04 -0.08,-0.41 -1.1,-1.62 -0.58,-3.63 0.1,-0.38 0.38,-0.91 0.41,-1.16 0.95,-0.78 0.15,-0.78 2.34,-1.85l0.18 -0.1c0.01,-0.01 0.04,-0.02 0.06,-0.04l0.67 -0.05zm-0.57 15.6c0.06,0.44 1.66,2.26 1.95,2.57 0.36,0.38 1.99,1.92 2.54,2.01 0.34,0.53 2.77,1.66 3.61,1.86 0.26,0.26 2.39,0.66 2.97,0.73 0.94,0.12 2.83,0.22 3.68,0.03 0.64,-0.04 2.72,-0.42 3.38,-0.75 0.22,-0.11 0.1,-0.04 0.23,-0.15 0.39,0.01 1.34,-0.48 1.67,-0.66l1.35 -0.76c0.14,-0.11 0.11,-0.1 0.14,-0.14 1.31,-0.54 4.31,-3.65 4.88,-5.02 0.53,-0.29 1.12,-3.53 3.45,-2.61 0.7,0.28 1.3,0.91 1.36,1.86 0.08,1.17 -0.69,1.64 -0.79,2.39 -0.26,0.19 -0.86,1.25 -1.07,1.57 -0.35,0.52 -0.84,1.05 -1.12,1.56 -0.05,0.03 -0.02,-0 -0.12,0.09 -0.02,0.02 -0.1,0.1 -0.12,0.12 -2.39,2.6 -4.55,4.33 -8.11,5.69 -1.77,0.68 -3.81,1.12 -5.94,1.21 -1.65,0.07 -5.02,-0.18 -6.27,-0.78 -0.45,-0.09 -0.84,-0.33 -1.27,-0.32l-3.52 -1.73 -2.02 -1.48c-1.73,-1.43 -2.99,-2.75 -4.25,-4.64 -0.16,-0.24 -0.52,-0.97 -0.7,-1.06 -0.28,-0.83 -0.95,-1.41 -0.95,-2.46 0.01,-2.17 2.63,-2.85 3.73,-1.28 0.22,0.32 0.4,0.75 0.59,1.1 0.18,0.33 0.43,0.83 0.7,1.05z"/>
   <path class="fil2 str1" d="M86.95 60.87c-0.21,3.3 -0.93,6.45 -2.09,9.37 0.16,-0.05 0.32,-0.12 0.48,-0.19 0.37,-0.16 0.6,-0.25 0.79,-0.51 0.23,-0.04 0.08,0.01 0.32,-0.15 0.2,-0.14 0.7,-0.58 0.75,-0.81l0.37 -0.37c0.76,-1.07 1.41,-3.42 0.9,-4.11 0.07,-0.76 -0.58,-2.13 -0.89,-2.36 -0.09,-0.25 -0.34,-0.58 -0.64,-0.87z"/>
   <path class="fil2 str1" d="M33.24 69.97c-1.17,-3.03 -1.88,-6.32 -2.02,-9.76 -0.34,0.28 -0.64,0.57 -0.84,0.84 -3.29,4.32 0.72,8.98 2.86,8.91 0,0 0,0 0.01,0z"/>
   <ellipse class="fil0 str2" cx="65.28" cy="47.81" rx="16.91" ry="15.92"/>
   <path class="fil1" d="M70.56 53.13c-2.06,0.74 -2.6,1.4 -3.25,3.5 -0.05,0.76 -0.08,1.22 0.11,1.93 0.18,0.68 0.47,0.99 0.68,1.5 0.13,0.07 0.82,0.75 0.88,0.89 0.87,0.31 2,1.3 4.03,0.41 0.48,-0.21 0.79,-0.52 1.15,-0.67 0.04,-0.08 0,-0.02 0.09,-0.13 0.05,-0.07 0.09,-0.11 0.15,-0.18 0.13,-0.15 0.16,-0.24 0.3,-0.28 0.37,-0.89 0.81,-1.22 0.85,-2.54 0.05,-1.38 -0.34,-1.68 -0.69,-2.67l-0.48 -0.56c-0.65,-0.72 -1.74,-1.05 -1.86,-1.15 -0.82,-0.12 -1.11,-0.15 -1.95,-0.05z"/>
   <g>
    <path class="fil1" d="M58.67 43.78c-8.24,1.59 -6.78,-5.63 -3.44,-6.91 0.41,-1.59 1.83,-3.39 4.97,-5.22 5.08,-2.96 6.49,0.29 6.12,3.51 1.15,0.9 1.85,2.59 1.14,5.28 -0.15,0.56 -1.06,2.08 -1.65,1.77 2.34,-0.95 1.6,-3.74 0.22,-5.61 -0.76,2.67 -2.66,4.6 -4.48,1.67 -1.88,-3.02 1.52,-4.63 3.98,-3.57 0.15,-5.34 -6.42,-1.49 -8.2,2.21 0.72,0.3 1.44,0.93 2.13,1.97 1.62,2.47 0.98,3.45 -0.24,3.39 0.06,0.08 0.1,0.18 0.13,0.28 0.15,0.53 -0.15,1.08 -0.68,1.23zm-0.76 -1.87c-1.07,-0.51 -2.18,-1.51 -2.62,-2.83 -1.47,1.18 -2.02,3.75 2.62,2.83zm7.5 -6.05c-1.49,-1.53 -3.28,-1.79 -3,1.89 0.71,0.71 2.34,0.87 2.71,-0.55 0.13,-0.49 0.22,-0.93 0.29,-1.34zm-8.52 2.67c-0.02,0.89 0.39,1.67 1.44,2.19 -0,-0.04 -0.01,-0.08 -0.01,-0.13 -0.21,-1.38 -0.78,-1.96 -1.42,-2.06z"/>
   </g>
   <path class="fil3" d="M58.39 42.82c-6.48,1.88 -6.44,-7.14 -0.68,-4.36 2.36,1.13 1.72,5.38 -0.82,1.84 -3.31,-4.63 7.66,-12.79 8.74,-7 1.43,7.71 -3.62,5.27 -3.71,4.58 -0.47,-3.73 3.12,-4.93 4.78,-0.92 0.69,1.66 1.18,3.92 -0.64,5.16 -0.11,0.08 -0.14,0.08 -0.27,0.07"/>
   <g>
    <path class="fil1" d="M52.13 38.66c-8.24,1.59 -6.78,-5.63 -3.44,-6.91 0.41,-1.59 1.83,-3.39 4.97,-5.22 5.08,-2.96 6.49,0.29 6.12,3.51 1.15,0.9 1.85,2.59 1.14,5.28 -0.15,0.56 -1.06,2.08 -1.65,1.77 2.34,-0.95 1.6,-3.74 0.22,-5.61 -0.76,2.67 -2.66,4.6 -4.48,1.67 -1.88,-3.02 1.52,-4.63 3.98,-3.57 0.15,-5.34 -6.42,-1.49 -8.2,2.21 0.72,0.3 1.44,0.93 2.13,1.97 1.62,2.47 0.98,3.45 -0.24,3.39 0.06,0.08 0.1,0.18 0.13,0.28 0.15,0.53 -0.15,1.08 -0.68,1.23zm-0.76 -1.87c-1.07,-0.51 -2.18,-1.51 -2.62,-2.83 -1.47,1.18 -2.02,3.75 2.62,2.83zm7.5 -6.05c-1.49,-1.53 -3.28,-1.79 -3,1.89 0.71,0.71 2.34,0.87 2.71,-0.55 0.13,-0.49 0.22,-0.93 0.29,-1.34zm-8.52 2.67c-0.02,0.89 0.39,1.67 1.44,2.19 -0,-0.04 -0.01,-0.08 -0.01,-0.13 -0.21,-1.38 -0.78,-1.96 -1.42,-2.06z"/>
   </g>
   <path class="fil3" d="M51.85 37.7c-6.48,1.88 -6.44,-7.14 -0.68,-4.36 2.36,1.13 1.72,5.38 -0.82,1.84 -3.31,-4.63 7.66,-12.79 8.74,-7 1.43,7.71 -3.62,5.27 -3.71,4.58 -0.47,-3.73 3.12,-4.93 4.78,-0.92 0.69,1.66 1.18,3.92 -0.64,5.16 -0.11,0.08 -0.14,0.08 -0.27,0.07"/>
   <g>
    <path class="fil1" d="M68.12 42.3c-8.24,1.59 -6.78,-5.63 -3.44,-6.91 0.41,-1.59 1.83,-3.39 4.97,-5.22 5.08,-2.96 6.49,0.29 6.12,3.51 1.15,0.9 1.85,2.59 1.14,5.28 -0.15,0.56 -1.06,2.08 -1.65,1.77 2.34,-0.95 1.6,-3.74 0.22,-5.61 -0.76,2.67 -2.66,4.6 -4.48,1.67 -1.88,-3.02 1.52,-4.63 3.98,-3.57 0.15,-5.34 -6.42,-1.49 -8.2,2.21 0.72,0.3 1.44,0.93 2.13,1.97 1.62,2.47 0.98,3.45 -0.24,3.39 0.06,0.08 0.1,0.18 0.13,0.28 0.15,0.53 -0.15,1.08 -0.68,1.23zm-0.76 -1.87c-1.07,-0.51 -2.18,-1.51 -2.62,-2.83 -1.47,1.18 -2.02,3.75 2.62,2.83zm7.5 -6.05c-1.49,-1.53 -3.28,-1.79 -3,1.89 0.71,0.71 2.34,0.87 2.71,-0.55 0.13,-0.49 0.22,-0.93 0.29,-1.34zm-8.52 2.67c-0.02,0.89 0.39,1.67 1.44,2.19 -0,-0.04 -0.01,-0.08 -0.01,-0.13 -0.21,-1.38 -0.78,-1.96 -1.42,-2.06z"/>
   </g>
   <path class="fil3" d="M67.84 41.34c-6.48,1.88 -6.44,-7.14 -0.68,-4.36 2.36,1.13 1.72,5.38 -0.82,1.84 -3.31,-4.63 7.66,-12.79 8.74,-7 1.43,7.71 -3.62,5.27 -3.71,4.58 -0.47,-3.73 3.12,-4.93 4.78,-0.92 0.69,1.66 1.18,3.92 -0.64,5.16 -0.11,0.08 -0.14,0.08 -0.27,0.07"/>
  </g>
 </g>
</svg>
